<mxfile host="65bd71144e" scale="3" border="10">
    <diagram id="3u8P1SOjeRHpItyzajtK" name="Page-1">
        <mxGraphModel dx="1314" dy="1294" grid="0" gridSize="10" guides="1" tooltips="1" connect="1" arrows="1" fold="1" page="1" pageScale="1" pageWidth="827" pageHeight="1169" background="#ffffff" math="0" shadow="0">
            <root>
                <mxCell id="0"/>
                <mxCell id="1" parent="0"/>
                <mxCell id="68" value="" style="rounded=0;whiteSpace=wrap;html=1;fontSize=14;fillColor=#FFF0DB;strokeColor=#CC6600;" parent="1" vertex="1">
                    <mxGeometry x="138.75" y="488" width="206.25" height="149" as="geometry"/>
                </mxCell>
                <mxCell id="2" value="&lt;font color=&quot;#000000&quot;&gt;Server&lt;br&gt;(Backend Service)&lt;br&gt;&lt;/font&gt;" style="rounded=1;whiteSpace=wrap;html=1;fillColor=#d0cee2;strokeColor=#56517e;" parent="1" vertex="1">
                    <mxGeometry x="676" y="30.5" width="138" height="67" as="geometry"/>
                </mxCell>
                <mxCell id="3" value="" style="rounded=0;whiteSpace=wrap;html=1;fillColor=#9999FF;" parent="1" vertex="1">
                    <mxGeometry x="419" y="170" width="370" height="230" as="geometry"/>
                </mxCell>
                <mxCell id="4" value="&lt;font color=&quot;#000000&quot;&gt;OTLP Receiver&lt;br&gt;http://localhost:4318&lt;/font&gt;" style="shape=parallelogram;perimeter=parallelogramPerimeter;whiteSpace=wrap;html=1;fixedSize=1;fillColor=#d0cee2;strokeColor=#56517e;" parent="1" vertex="1">
                    <mxGeometry x="429" y="190" width="150" height="60" as="geometry"/>
                </mxCell>
                <mxCell id="5" value="&lt;font color=&quot;#000000&quot;&gt;OTLP Receiver&lt;br&gt;grpc://localhost:4317&lt;/font&gt;" style="shape=parallelogram;perimeter=parallelogramPerimeter;whiteSpace=wrap;html=1;fixedSize=1;fillColor=#d0cee2;strokeColor=#56517e;" parent="1" vertex="1">
                    <mxGeometry x="629" y="190" width="150" height="60" as="geometry"/>
                </mxCell>
                <mxCell id="25" value="" style="edgeStyle=none;html=1;fontSize=14;strokeColor=#000000;" parent="1" source="7" target="23" edge="1">
                    <mxGeometry relative="1" as="geometry"/>
                </mxCell>
                <mxCell id="7" value="&lt;font color=&quot;#000000&quot;&gt;Processors&lt;/font&gt;" style="rounded=1;whiteSpace=wrap;html=1;fillColor=#d0cee2;strokeColor=#56517e;" parent="1" vertex="1">
                    <mxGeometry x="549" y="280" width="100" height="40" as="geometry"/>
                </mxCell>
                <mxCell id="12" value="" style="edgeStyle=elbowEdgeStyle;elbow=vertical;endArrow=classic;html=1;curved=0;rounded=0;endSize=8;startSize=8;exitX=0.5;exitY=1;exitDx=0;exitDy=0;entryX=0.5;entryY=0;entryDx=0;entryDy=0;strokeColor=#000000;" parent="1" source="2" target="5" edge="1">
                    <mxGeometry width="50" height="50" relative="1" as="geometry">
                        <mxPoint x="689" y="160" as="sourcePoint"/>
                        <mxPoint x="739" y="110" as="targetPoint"/>
                        <Array as="points">
                            <mxPoint x="649" y="150"/>
                        </Array>
                    </mxGeometry>
                </mxCell>
                <mxCell id="13" value="" style="edgeStyle=elbowEdgeStyle;elbow=vertical;endArrow=classic;html=1;curved=0;rounded=0;endSize=8;startSize=8;exitX=0.5;exitY=1;exitDx=0;exitDy=0;entryX=0.5;entryY=0;entryDx=0;entryDy=0;strokeColor=#000000;" parent="1" source="2" target="4" edge="1">
                    <mxGeometry width="50" height="50" relative="1" as="geometry">
                        <mxPoint x="609" y="120" as="sourcePoint"/>
                        <mxPoint x="714" y="200" as="targetPoint"/>
                        <Array as="points">
                            <mxPoint x="549" y="150"/>
                        </Array>
                    </mxGeometry>
                </mxCell>
                <mxCell id="17" value="" style="edgeStyle=elbowEdgeStyle;elbow=horizontal;endArrow=classic;html=1;curved=0;rounded=0;endSize=8;startSize=8;exitX=0.5;exitY=1;exitDx=0;exitDy=0;entryX=1;entryY=0.5;entryDx=0;entryDy=0;strokeColor=#000000;" parent="1" source="5" target="7" edge="1">
                    <mxGeometry width="50" height="50" relative="1" as="geometry">
                        <mxPoint x="699" y="330" as="sourcePoint"/>
                        <mxPoint x="749" y="280" as="targetPoint"/>
                        <Array as="points">
                            <mxPoint x="704" y="290"/>
                        </Array>
                    </mxGeometry>
                </mxCell>
                <mxCell id="18" value="" style="edgeStyle=elbowEdgeStyle;elbow=horizontal;endArrow=classic;html=1;curved=0;rounded=0;endSize=8;startSize=8;exitX=0.5;exitY=1;exitDx=0;exitDy=0;entryX=0;entryY=0.5;entryDx=0;entryDy=0;strokeColor=#000000;" parent="1" source="4" target="7" edge="1">
                    <mxGeometry width="50" height="50" relative="1" as="geometry">
                        <mxPoint x="714" y="260" as="sourcePoint"/>
                        <mxPoint x="659" y="310" as="targetPoint"/>
                        <Array as="points">
                            <mxPoint x="504" y="280"/>
                        </Array>
                    </mxGeometry>
                </mxCell>
                <mxCell id="20" value="&lt;font color=&quot;#000000&quot; style=&quot;font-size: 14px;&quot;&gt;OTel Collector&amp;nbsp;&lt;/font&gt;" style="text;strokeColor=none;fillColor=none;html=1;fontSize=24;fontStyle=1;verticalAlign=middle;align=center;" parent="1" vertex="1">
                    <mxGeometry x="428" y="358" width="100" height="40" as="geometry"/>
                </mxCell>
                <mxCell id="22" value="" style="rounded=0;whiteSpace=wrap;html=1;fontSize=14;fillColor=#FFFF33;" parent="1" vertex="1">
                    <mxGeometry x="419" y="440" width="297" height="250" as="geometry"/>
                </mxCell>
                <mxCell id="30" value="" style="edgeStyle=none;html=1;fontSize=12;strokeColor=#000000;" parent="1" source="23" target="27" edge="1">
                    <mxGeometry relative="1" as="geometry"/>
                </mxCell>
                <mxCell id="23" value="&lt;font color=&quot;#000000&quot; style=&quot;font-size: 12px;&quot;&gt;OTLP Exporter&lt;/font&gt;" style="shape=parallelogram;perimeter=parallelogramPerimeter;whiteSpace=wrap;html=1;fixedSize=1;fontSize=14;fillColor=#d0cee2;strokeColor=#56517e;" parent="1" vertex="1">
                    <mxGeometry x="536.5" y="340" width="125" height="40" as="geometry"/>
                </mxCell>
                <mxCell id="26" value="&lt;font color=&quot;#000000&quot; style=&quot;font-size: 14px;&quot;&gt;Tempo&lt;br&gt;&lt;/font&gt;" style="text;strokeColor=none;fillColor=none;html=1;fontSize=24;fontStyle=1;verticalAlign=middle;align=center;" parent="1" vertex="1">
                    <mxGeometry x="422" y="647" width="69" height="40" as="geometry"/>
                </mxCell>
                <mxCell id="31" value="" style="edgeStyle=none;html=1;fontSize=12;strokeColor=#000000;" parent="1" source="27" target="29" edge="1">
                    <mxGeometry relative="1" as="geometry"/>
                </mxCell>
                <mxCell id="27" value="&lt;font style=&quot;font-size: 12px;&quot;&gt;&lt;font color=&quot;#000000&quot;&gt;Tempo Receiver&lt;br&gt;grpc://tempo:4317&lt;/font&gt;&lt;br&gt;&lt;/font&gt;" style="shape=parallelogram;perimeter=parallelogramPerimeter;whiteSpace=wrap;html=1;fixedSize=1;fontSize=14;fillColor=#d0cee2;strokeColor=#56517e;" parent="1" vertex="1">
                    <mxGeometry x="528.5" y="460" width="141" height="40" as="geometry"/>
                </mxCell>
                <mxCell id="33" value="" style="edgeStyle=none;html=1;fontSize=12;strokeColor=#000000;" parent="1" source="29" target="32" edge="1">
                    <mxGeometry relative="1" as="geometry"/>
                </mxCell>
                <mxCell id="29" value="&lt;font color=&quot;#000000&quot;&gt;Tempo DB&lt;/font&gt;" style="shape=cylinder3;whiteSpace=wrap;html=1;boundedLbl=1;backgroundOutline=1;size=15;fontSize=12;fillColor=#d0cee2;strokeColor=#56517e;" parent="1" vertex="1">
                    <mxGeometry x="554" y="530" width="90" height="70" as="geometry"/>
                </mxCell>
                <mxCell id="32" value="&lt;font style=&quot;font-size: 12px;&quot;&gt;&lt;font color=&quot;#000000&quot;&gt;Tempo HTTP&lt;br&gt;http://tempo:3200&lt;/font&gt;&lt;br&gt;&lt;/font&gt;" style="shape=parallelogram;perimeter=parallelogramPerimeter;whiteSpace=wrap;html=1;fixedSize=1;fontSize=14;fillColor=#d0cee2;strokeColor=#56517e;" parent="1" vertex="1">
                    <mxGeometry x="528.5" y="630" width="141" height="40" as="geometry"/>
                </mxCell>
                <mxCell id="35" value="" style="rounded=0;whiteSpace=wrap;html=1;fontSize=14;fillColor=#FF9999;strokeColor=#ae4132;" parent="1" vertex="1">
                    <mxGeometry x="768" y="440" width="270" height="250" as="geometry"/>
                </mxCell>
                <mxCell id="36" value="&lt;p style=&quot;line-height: 70%;&quot;&gt;&lt;font color=&quot;#000000&quot; style=&quot;font-size: 14px;&quot;&gt;Prometheus&lt;br&gt;&lt;/font&gt;&lt;/p&gt;" style="text;strokeColor=none;fillColor=none;html=1;fontSize=24;fontStyle=1;verticalAlign=middle;align=center;" parent="1" vertex="1">
                    <mxGeometry x="781" y="652" width="71" height="36" as="geometry"/>
                </mxCell>
                <mxCell id="37" value="" style="edgeStyle=none;html=1;fontSize=12;strokeColor=#000000;" parent="1" source="38" target="40" edge="1">
                    <mxGeometry relative="1" as="geometry"/>
                </mxCell>
                <mxCell id="38" value="&lt;font style=&quot;font-size: 12px;&quot;&gt;&lt;font color=&quot;#000000&quot;&gt;Prometheus HTTP&lt;br&gt;http://lprometheus:9090&lt;/font&gt;&lt;br&gt;&lt;/font&gt;" style="shape=parallelogram;perimeter=parallelogramPerimeter;whiteSpace=wrap;html=1;fixedSize=1;fontSize=14;fillColor=#d0cee2;strokeColor=#56517e;" parent="1" vertex="1">
                    <mxGeometry x="869" y="460" width="158" height="40" as="geometry"/>
                </mxCell>
                <mxCell id="39" value="" style="edgeStyle=none;html=1;fontSize=12;strokeColor=#000000;" parent="1" source="40" target="41" edge="1">
                    <mxGeometry relative="1" as="geometry"/>
                </mxCell>
                <mxCell id="40" value="&lt;font color=&quot;#000000&quot;&gt;Prometheus DB&lt;/font&gt;" style="shape=cylinder3;whiteSpace=wrap;html=1;boundedLbl=1;backgroundOutline=1;size=15;fontSize=12;fillColor=#d0cee2;strokeColor=#56517e;" parent="1" vertex="1">
                    <mxGeometry x="895.5" y="530" width="105" height="70" as="geometry"/>
                </mxCell>
                <mxCell id="41" value="&lt;font style=&quot;font-size: 12px;&quot;&gt;&lt;font color=&quot;#000000&quot;&gt;Prometheus HTTP&lt;br&gt;http://prometheus:9090&lt;/font&gt;&lt;br&gt;&lt;/font&gt;" style="shape=parallelogram;perimeter=parallelogramPerimeter;whiteSpace=wrap;html=1;fixedSize=1;fontSize=14;fillColor=#d0cee2;strokeColor=#56517e;" parent="1" vertex="1">
                    <mxGeometry x="868" y="630" width="160" height="40" as="geometry"/>
                </mxCell>
                <mxCell id="42" value="" style="edgeStyle=elbowEdgeStyle;elbow=horizontal;endArrow=classic;html=1;curved=0;rounded=0;endSize=8;startSize=8;fontSize=12;entryX=0.5;entryY=0;entryDx=0;entryDy=0;strokeColor=#000000;" parent="1" target="38" edge="1">
                    <mxGeometry width="50" height="50" relative="1" as="geometry">
                        <mxPoint x="745" y="150" as="sourcePoint"/>
                        <mxPoint x="349" y="150" as="targetPoint"/>
                        <Array as="points">
                            <mxPoint x="948" y="309"/>
                            <mxPoint x="274" y="279"/>
                            <mxPoint x="299" y="200"/>
                        </Array>
                    </mxGeometry>
                </mxCell>
                <mxCell id="43" value="&lt;font color=&quot;#000000&quot;&gt;Prometheus&lt;br&gt;HTTP GET&lt;/font&gt;" style="edgeLabel;html=1;align=center;verticalAlign=middle;resizable=0;points=[];fontSize=12;labelBackgroundColor=none;" parent="42" vertex="1" connectable="0">
                    <mxGeometry x="0.1224" y="-1" relative="1" as="geometry">
                        <mxPoint x="-43" y="52" as="offset"/>
                    </mxGeometry>
                </mxCell>
                <mxCell id="44" value="" style="rounded=0;whiteSpace=wrap;html=1;fontSize=12;fillColor=#FFB366;fontColor=#000000;strokeColor=#BD7000;" parent="1" vertex="1">
                    <mxGeometry x="259" y="750" width="330" height="170" as="geometry"/>
                </mxCell>
                <mxCell id="52" value="" style="edgeStyle=none;html=1;fontSize=12;strokeColor=#000000;" parent="1" source="46" target="47" edge="1">
                    <mxGeometry relative="1" as="geometry"/>
                </mxCell>
                <mxCell id="46" value="&lt;font color=&quot;#000000&quot;&gt;Grafana Server&lt;/font&gt;" style="rounded=1;whiteSpace=wrap;html=1;fontSize=12;fillColor=#d0cee2;strokeColor=#56517e;" parent="1" vertex="1">
                    <mxGeometry x="363.75" y="770" width="109.5" height="50" as="geometry"/>
                </mxCell>
                <mxCell id="53" value="" style="edgeStyle=none;html=1;fontSize=12;strokeColor=#000000;" parent="1" source="47" target="51" edge="1">
                    <mxGeometry relative="1" as="geometry"/>
                </mxCell>
                <mxCell id="47" value="&lt;font style=&quot;font-size: 12px;&quot;&gt;&lt;font color=&quot;#000000&quot;&gt;Grafana HTTP&lt;br&gt;http://localhost:3000&lt;/font&gt;&lt;br&gt;&lt;/font&gt;" style="shape=parallelogram;perimeter=parallelogramPerimeter;whiteSpace=wrap;html=1;fixedSize=1;fontSize=14;fillColor=#d0cee2;strokeColor=#56517e;" parent="1" vertex="1">
                    <mxGeometry x="338" y="850" width="161" height="40" as="geometry"/>
                </mxCell>
                <mxCell id="48" value="&lt;font color=&quot;#000000&quot; style=&quot;font-size: 14px;&quot;&gt;Grafana&lt;/font&gt;" style="text;strokeColor=none;fillColor=none;html=1;fontSize=24;fontStyle=1;verticalAlign=middle;align=center;" parent="1" vertex="1">
                    <mxGeometry x="271.5" y="877" width="51" height="40" as="geometry"/>
                </mxCell>
                <mxCell id="49" value="" style="edgeStyle=elbowEdgeStyle;elbow=vertical;endArrow=classic;html=1;curved=0;rounded=0;endSize=8;startSize=8;fontSize=12;entryX=0.5;entryY=0;entryDx=0;entryDy=0;exitX=0.5;exitY=1;exitDx=0;exitDy=0;strokeColor=#000000;" parent="1" source="41" target="46" edge="1">
                    <mxGeometry width="50" height="50" relative="1" as="geometry">
                        <mxPoint x="319" y="650" as="sourcePoint"/>
                        <mxPoint x="369" y="600" as="targetPoint"/>
                        <Array as="points">
                            <mxPoint x="684" y="720"/>
                        </Array>
                    </mxGeometry>
                </mxCell>
                <mxCell id="50" value="" style="edgeStyle=elbowEdgeStyle;elbow=vertical;endArrow=classic;html=1;curved=0;rounded=0;endSize=8;startSize=8;fontSize=12;exitX=0.5;exitY=1;exitDx=0;exitDy=0;entryX=0.5;entryY=0;entryDx=0;entryDy=0;strokeColor=#000000;" parent="1" source="32" target="46" edge="1">
                    <mxGeometry width="50" height="50" relative="1" as="geometry">
                        <mxPoint x="669" y="830" as="sourcePoint"/>
                        <mxPoint x="719" y="780" as="targetPoint"/>
                        <Array as="points">
                            <mxPoint x="508" y="720"/>
                        </Array>
                    </mxGeometry>
                </mxCell>
                <mxCell id="51" value="&lt;font color=&quot;#000000&quot;&gt;Grafana GUI&lt;br&gt;http://localhost:3000&lt;/font&gt;" style="shape=hexagon;perimeter=hexagonPerimeter2;whiteSpace=wrap;html=1;fixedSize=1;fontSize=12;fillColor=#d0cee2;strokeColor=#56517e;" parent="1" vertex="1">
                    <mxGeometry x="353.25" y="950" width="130.5" height="70" as="geometry"/>
                </mxCell>
                <mxCell id="54" value="&lt;font color=&quot;#000000&quot;&gt;Prometheus GUI&lt;br&gt;http://localhost:9090&lt;/font&gt;" style="shape=hexagon;perimeter=hexagonPerimeter2;whiteSpace=wrap;html=1;fixedSize=1;fontSize=12;fillColor=#d0cee2;strokeColor=#56517e;" parent="1" vertex="1">
                    <mxGeometry x="637.75" y="950" width="132.5" height="70" as="geometry"/>
                </mxCell>
                <mxCell id="55" value="" style="edgeStyle=elbowEdgeStyle;elbow=vertical;endArrow=classic;html=1;curved=0;rounded=0;endSize=8;startSize=8;fontSize=12;exitX=0.5;exitY=1;exitDx=0;exitDy=0;entryX=0.5;entryY=0;entryDx=0;entryDy=0;strokeColor=#000000;" parent="1" source="41" target="54" edge="1">
                    <mxGeometry width="50" height="50" relative="1" as="geometry">
                        <mxPoint x="189" y="730" as="sourcePoint"/>
                        <mxPoint x="239" y="680" as="targetPoint"/>
                        <Array as="points">
                            <mxPoint x="748" y="766"/>
                            <mxPoint x="249" y="720"/>
                        </Array>
                    </mxGeometry>
                </mxCell>
                <mxCell id="57" value="" style="edgeStyle=elbowEdgeStyle;elbow=vertical;endArrow=classic;html=1;curved=0;rounded=0;endSize=8;startSize=8;fontSize=12;exitX=0.5;exitY=1;exitDx=0;exitDy=0;entryX=0.5;entryY=0;entryDx=0;entryDy=0;strokeColor=#000000;" parent="1" source="23" target="38" edge="1">
                    <mxGeometry width="50" height="50" relative="1" as="geometry">
                        <mxPoint x="609" y="679.9999999999998" as="sourcePoint"/>
                        <mxPoint x="428.5" y="779.9999999999998" as="targetPoint"/>
                    </mxGeometry>
                </mxCell>
                <mxCell id="64" value="" style="edgeStyle=elbowEdgeStyle;elbow=vertical;endArrow=classic;html=1;curved=0;rounded=0;endSize=8;startSize=8;exitX=0.5;exitY=1;exitDx=0;exitDy=0;entryX=0.5;entryY=0;entryDx=0;entryDy=0;strokeColor=#000000;" parent="1" source="62" target="5" edge="1">
                    <mxGeometry width="50" height="50" relative="1" as="geometry">
                        <mxPoint x="419" y="110" as="sourcePoint"/>
                        <mxPoint x="514" y="200" as="targetPoint"/>
                        <Array as="points">
                            <mxPoint x="630" y="150"/>
                        </Array>
                    </mxGeometry>
                </mxCell>
                <mxCell id="66" value="&lt;font color=&quot;#000000&quot;&gt;Tell me App&lt;br&gt;(Frontend Service w/ Faro Web SDK)&lt;br&gt;&lt;/font&gt;" style="rounded=1;whiteSpace=wrap;html=1;fillColor=#d0cee2;strokeColor=#56517e;" parent="1" vertex="1">
                    <mxGeometry x="190.5" y="30" width="138" height="67" as="geometry"/>
                </mxCell>
                <mxCell id="67" value="" style="shape=image;verticalLabelPosition=bottom;labelBackgroundColor=default;verticalAlign=top;aspect=fixed;imageAspect=0;image=data:image/svg+xml,PHN2ZyB4bWxucz0iaHR0cDovL3d3dy53My5vcmcvMjAwMC9zdmciIHZlcnNpb249IjEuMSIgeG1sOnNwYWNlPSJwcmVzZXJ2ZSIgaGVpZ2h0PSIxNDIuMSIgd2lkdGg9IjIzNi44NyIgdmlld0JveD0iMCAwIDIzNi44NyAxNDIuMSI+CiA8ZGVmcz4KICA8bGluZWFyR3JhZGllbnQgaWQ9IlNWR0lEXzFfIiB4MT0iMC45MjAxNyIgeTE9IjMuMjA1MTUiIHgyPSItMS4xMTY4OCIgeTI9Ii0xMC4wMzIyNyI+CiAgIDxzdG9wIG9mZnNldD0iMCIgc3RvcC1jb2xvcj0iI2ZhZWQxZSIvPgogICA8c3RvcCBvZmZzZXQ9IjEiIHN0b3AtY29sb3I9IiNmMTViMmIiLz4KICA8L2xpbmVhckdyYWRpZW50PgogIDxsaW5lYXJHcmFkaWVudCBpZD0iU1ZHSURfMl8iIHgxPSIwLjY1ODg4IiB5MT0iMy4yOTExMiIgeDI9IjAuMTQ0MSIgeTI9Ii01LjgwNjY0Ij4KICAgPHN0b3Agb2Zmc2V0PSIwIiBzdG9wLWNvbG9yPSIjZmFlZDFlIi8+CiAgIDxzdG9wIG9mZnNldD0iMSIgc3RvcC1jb2xvcj0iI2YxNWIyYiIvPgogIDwvbGluZWFyR3JhZGllbnQ+CiAgPGxpbmVhckdyYWRpZW50IGlkPSJTVkdJRF8zXyIgeDE9IjEuMTI4OTEiIHkxPSI0LjU2MTczIiB4Mj0iLTAuOTA4MTMiIHkyPSItOC42NzU2OSI+CiAgIDxzdG9wIG9mZnNldD0iMCIgc3RvcC1jb2xvcj0iI2ZhZWQxZSIvPgogICA8c3RvcCBvZmZzZXQ9IjEiIHN0b3AtY29sb3I9IiNmMTViMmIiLz4KICA8L2xpbmVhckdyYWRpZW50PgogIDxsaW5lYXJHcmFkaWVudCBpZD0iU1ZHSURfNF8iIHgxPSIwLjkxOTk0IiB5MT0iMy4yMDQ1NyIgeDI9Ii0xLjExNzExIiB5Mj0iLTEwLjAzMjg2Ij4KICAgPHN0b3Agb2Zmc2V0PSIwIiBzdG9wLWNvbG9yPSIjZmFlZDFlIi8+CiAgIDxzdG9wIG9mZnNldD0iMSIgc3RvcC1jb2xvcj0iI2YxNWIyYiIvPgogIDwvbGluZWFyR3JhZGllbnQ+CiAgPGxpbmVhckdyYWRpZW50IGlkPSJTVkdJRF81XyIgeDE9IjEuMTI5NTEiIHkxPSI0LjU2MTg1IiB4Mj0iLTAuOTA5NjciIHkyPSItOC42NzU1NyI+CiAgIDxzdG9wIG9mZnNldD0iMCIgc3RvcC1jb2xvcj0iI2ZhZWQxZSIvPgogICA8c3RvcCBvZmZzZXQ9IjEiIHN0b3AtY29sb3I9IiNmMTViMmIiLz4KICA8L2xpbmVhckdyYWRpZW50PgogIDxsaW5lYXJHcmFkaWVudCBpZD0iU1ZHSURfNl8iIHgxPSIwLjYwNjI3IiB5MT0iMi4zNTg2OSIgeDI9IjAuMDkxNDkiIHkyPSItNi43MzkwNiI+CiAgIDxzdG9wIG9mZnNldD0iMCIgc3RvcC1jb2xvcj0iI2ZhZWQxZSIvPgogICA8c3RvcCBvZmZzZXQ9IjEiIHN0b3AtY29sb3I9IiNmMTViMmIiLz4KICA8L2xpbmVhckdyYWRpZW50PgogIDxsaW5lYXJHcmFkaWVudCBpZD0iU1ZHSURfN18iIHgxPSIwLjkyMDY3IiB5MT0iMy4yMDUwNCIgeDI9Ii0xLjExODUiIHkyPSItMTAuMDMyMzkiPgogICA8c3RvcCBvZmZzZXQ9IjAiIHN0b3AtY29sb3I9IiNmYWVkMWUiLz4KICAgPHN0b3Agb2Zmc2V0PSIxIiBzdG9wLWNvbG9yPSIjZjE1YjJiIi8+CiAgPC9saW5lYXJHcmFkaWVudD4KICA8bGluZWFyR3JhZGllbnQgaWQ9IlNWR0lEXzhfIiB4MT0iMS4xMjkxNCIgeTE9IjQuNTYxMjciIHgyPSItMC45MDc5IiB5Mj0iLTguNjc2MTUiPgogICA8c3RvcCBvZmZzZXQ9IjAiIHN0b3AtY29sb3I9IiNmYWVkMWUiLz4KICAgPHN0b3Agb2Zmc2V0PSIxIiBzdG9wLWNvbG9yPSIjZjE1YjJiIi8+CiAgPC9saW5lYXJHcmFkaWVudD4KICA8bGluZWFyR3JhZGllbnQgaWQ9IlNWR0lEXzlfIiB4MT0iMS4zODMyNCIgeTE9IjEuNjcyMjciIHgyPSIwLjAzNDEyIiB5Mj0iLTAuMTIzOTIiPgogICA8c3RvcCBvZmZzZXQ9IjAiIHN0b3AtY29sb3I9IiNmYWVkMWUiLz4KICAgPHN0b3Agb2Zmc2V0PSIxIiBzdG9wLWNvbG9yPSIjZjE1YjJiIi8+CiAgPC9saW5lYXJHcmFkaWVudD4KICA8bGluZWFyR3JhZGllbnQgaWQ9IlNWR0lEXzEwXyIgeDE9IjEuMzk4NzgiIHkxPSIxLjY3Mjk0IiB4Mj0iMC4wMjU1MiIgeTI9Ii0wLjEyNDI5Ij4KICAgPHN0b3Agb2Zmc2V0PSIwIiBzdG9wLWNvbG9yPSIjZmFlZDFlIi8+CiAgIDxzdG9wIG9mZnNldD0iMSIgc3RvcC1jb2xvcj0iI2YxNWIyYiIvPgogIDwvbGluZWFyR3JhZGllbnQ+CiAgPGxpbmVhckdyYWRpZW50IGlkPSJTVkdJRF8xMV8iIHgxPSIxLjQxMTIiIHkxPSIxLjY3MzYxIiB4Mj0iMC4wMTg4IiB5Mj0iLTAuMTI0NjIiPgogICA8c3RvcCBvZmZzZXQ9IjAiIHN0b3AtY29sb3I9IiNmYWVkMWUiLz4KICAgPHN0b3Agb2Zmc2V0PSIxIiBzdG9wLWNvbG9yPSIjZjE1YjJiIi8+CiAgPC9saW5lYXJHcmFkaWVudD4KICA8bGluZWFyR3JhZGllbnQgaWQ9IlNWR0lEXzEyXyIgeDE9IjEuMzkxMyIgeTE9IjEuNjcyNzgiIHgyPSIwLjAyOTkyIiB5Mj0iLTAuMTI0MTMiPgogICA8c3RvcCBvZmZzZXQ9IjAiIHN0b3AtY29sb3I9IiNmYWVkMWUiLz4KICAgPHN0b3Agb2Zmc2V0PSIxIiBzdG9wLWNvbG9yPSIjZjE1YjJiIi8+CiAgPC9saW5lYXJHcmFkaWVudD4KICA8bGluZWFyR3JhZGllbnQgaWQ9IlNWR0lEXzEzXyIgeDE9IjEuMzY0NDQiIHkxPSIxLjY3MTUyIiB4Mj0iMC4wNDQ0OCIgeTI9Ii0wLjEyMzYxIj4KICAgPHN0b3Agb2Zmc2V0PSIwIiBzdG9wLWNvbG9yPSIjZmFlZDFlIi8+CiAgIDxzdG9wIG9mZnNldD0iMSIgc3RvcC1jb2xvcj0iI2YxNWIyYiIvPgogIDwvbGluZWFyR3JhZGllbnQ+CiAgPGxpbmVhckdyYWRpZW50IGlkPSJTVkdJRF8xNF8iIHgxPSIxLjM3MzA0IiB5MT0iMS42NzE5IiB4Mj0iMC4wMzk3IiB5Mj0iLTAuMTIzODQiPgogICA8c3RvcCBvZmZzZXQ9IjAiIHN0b3AtY29sb3I9IiNmYWVkMWUiLz4KICAgPHN0b3Agb2Zmc2V0PSIxIiBzdG9wLWNvbG9yPSIjZjE1YjJiIi8+CiAgPC9saW5lYXJHcmFkaWVudD4KIDwvZGVmcz4KIDxnPgogIDx0aXRsZT5MYXllciAxPC90aXRsZT4KICA8ZyBpZD0ic3ZnXzEiIHN0cm9rZT0ibnVsbCI+CiAgIDxwYXRoIGNsYXNzPSJzdDAiIGQ9Im0yMzMuMTcsMTMwLjU3YzEuOCwwIDMuMDYsLTEuMjQgMy4wNiwtMy4wMmMwLC0xLjQ4IC0xLjE1LC0zLjAyIC0zLjA2LC0zLjAyYy0xLjU4LDAgLTMuMDIsMS40NCAtMy4wMiwzLjAyYzAsMS42OSAxLjMzLDMuMDIgMy4wMiwzLjAyeiIgZmlsbD0iIzFhMWExYSIgaWQ9InN2Z18xNCIgc3Ryb2tlPSJudWxsIi8+CiAgIDxnIGlkPSJzdmdfMTUiIHN0cm9rZT0ibnVsbCI+CiAgICA8cG9seWdvbiBwb2ludHM9IjEwMS41ODk5OTYzMzc4OTA2MiwxMDguMzA5OTk3NTU4NTkzNzUgOTMuMzA5OTk3NTU4NTkzNzUsMTA5LjU4OTk5NjMzNzg5MDYyIDk0LjU4OTk5NjMzNzg5MDYyLDExNy44NzAwMDI3NDY1ODIwMyAxMDIuODcwMDAyNzQ2NTgyMDMsMTE2LjU5OTk5ODQ3NDEyMTEiIGZpbGw9InVybCgjU1ZHSURfMV8pIiBpZD0ic3ZnXzE2IiBzdHJva2U9Im51bGwiLz4KICAgIDxwb2x5Z29uIHBvaW50cz0iMTMxLjQ5MDAwNTQ5MzE2NDA2LDk4LjkxOTk5ODE2ODk0NTMxIDE2OC4wNTAwMDMwNTE3NTc4LDkzLjI5MDAwMDkxNTUyNzM0IDE2Ni43NzAwMDQyNzI0NjA5NCw4NS4wMTAwMDIxMzYyMzA0NyAxMzAuMjIwMDAxMjIwNzAzMTIsOTAuNjI5OTk3MjUzNDE3OTciIGZpbGw9InVybCgjU1ZHSURfMl8pIiBpZD0ic3ZnXzE3IiBzdHJva2U9Im51bGwiLz4KICAgIDxwb2x5Z29uIHBvaW50cz0iMTE3LjI1LDkyLjYyOTk5NzI1MzQxNzk3IDExOC41MTk5OTY2NDMwNjY0LDEwMC45MTAwMDM2NjIxMDkzOCAxMjYuODA5OTk3NTU4NTkzNzUsOTkuNjM5OTk5Mzg5NjQ4NDQgMTI1LjUyOTk5ODc3OTI5Njg4LDkxLjM0OTk5ODQ3NDEyMTEiIGZpbGw9InVybCgjU1ZHSURfM18pIiBpZD0ic3ZnXzE4IiBzdHJva2U9Im51bGwiLz4KICAgIDxwb2x5Z29uIHBvaW50cz0iMTE1LjgzOTk5NjMzNzg5MDYyLDExNC41OTk5OTg0NzQxMjExIDExNC41NTk5OTc1NTg1OTM3NSwxMDYuMzE5OTk5Njk0ODI0MjIgMTA2LjI3OTk5ODc3OTI5Njg4LDEwNy41ODk5OTYzMzc4OTA2MiAxMDcuNTUwMDAzMDUxNzU3ODEsMTE1Ljg3OTk5NzI1MzQxNzk3IiBmaWxsPSJ1cmwoI1NWR0lEXzRfKSIgaWQ9InN2Z18xOSIgc3Ryb2tlPSJudWxsIi8+CiAgICA8cG9seWdvbiBwb2ludHM9IjkyLjU4OTk5NjMzNzg5MDYyLDEwNC45MDAwMDE1MjU4Nzg5IDEwMC44NzAwMDI3NDY1ODIwMywxMDMuNjI5OTk3MjUzNDE3OTcgOTkuNTk5OTk4NDc0MTIxMSw5NS4zMzk5OTYzMzc4OTA2MiA5MS4zMTk5OTk2OTQ4MjQyMiw5Ni42MjAwMDI3NDY1ODIwMyIgZmlsbD0idXJsKCNTVkdJRF81XykiIGlkPSJzdmdfMjAiIHN0cm9rZT0ibnVsbCIvPgogICAgPHBvbHlnb24gcG9pbnRzPSIxNjguNzcwMDA0MjcyNDYwOTQsOTcuOTgwMDAzMzU2OTMzNiAxMzIuMjEwMDA2NzEzODY3MiwxMDMuNTk5OTk4NDc0MTIxMSAxMzMuNDkwMDA1NDkzMTY0MDYsMTExLjg4OTk5OTM4OTY0ODQ0IDE3MC4wMzk5OTMyODYxMzI4LDEwNi4yNjAwMDIxMzYyMzA0NyIgZmlsbD0idXJsKCNTVkdJRF82XykiIGlkPSJzdmdfMjEiIHN0cm9rZT0ibnVsbCIvPgogICAgPHBvbHlnb24gcG9pbnRzPSIxMTkuMjUsMTA1LjU5OTk5ODQ3NDEyMTEgMTIwLjUxOTk5NjY0MzA2NjQsMTEzLjg3OTk5NzI1MzQxNzk3IDEyOC44MDAwMDMwNTE3NTc4LDExMi42MTAwMDA2MTAzNTE1NiAxMjcuNTI5OTk4Nzc5Mjk2ODgsMTA0LjMxOTk5OTY5NDgyNDIyIiBmaWxsPSJ1cmwoI1NWR0lEXzdfKSIgaWQ9InN2Z18yMiIgc3Ryb2tlPSJudWxsIi8+CiAgICA8cG9seWdvbiBwb2ludHM9IjEwNS41NTk5OTc1NTg1OTM3NSwxMDIuOTEwMDAzNjYyMTA5MzggMTEzLjgzOTk5NjMzNzg5MDYyLDEwMS42Mjk5OTcyNTM0MTc5NyAxMTIuNTY5OTk5Njk0ODI0MjIsOTMuMzQ5OTk4NDc0MTIxMSAxMDQuMjc5OTk4Nzc5Mjk2ODgsOTQuNjIwMDAyNzQ2NTgyMDMiIGZpbGw9InVybCgjU1ZHSURfOF8pIiBpZD0ic3ZnXzIzIiBzdHJva2U9Im51bGwiLz4KICAgIDxwb2x5Z29uIHBvaW50cz0iOTAuNTk5OTk4NDc0MTIxMSw5MS45NDAwMDI0NDE0MDYyNSA5NC4wODk5OTYzMzc4OTA2Miw5MS40MDAwMDE1MjU4Nzg5IDgzLjkwMDAwMTUyNTg3ODksMjUuMTE5OTk5ODg1NTU5MDgyIDgwLjQwMDAwMTUyNTg3ODksMjUuNjU5OTk5ODQ3NDEyMTEiIGZpbGw9InVybCgjU1ZHSURfOV8pIiBpZD0ic3ZnXzI0IiBzdHJva2U9Im51bGwiLz4KICAgIDxwb2x5Z29uIHBvaW50cz0iOTUuNDAwMDAxNTI1ODc4OSw5MS4xOTk5OTY5NDgyNDIxOSA5OC45MDAwMDE1MjU4Nzg5LDkwLjY2MDAwMzY2MjEwOTM4IDg3Ljk1OTk5OTA4NDQ3MjY2LDE5LjUgODQuNDU5OTk5MDg0NDcyNjYsMjAuMDM5OTk5OTYxODUzMDI3IiBmaWxsPSJ1cmwoI1NWR0lEXzEwXykiIGlkPSJzdmdfMjUiIHN0cm9rZT0ibnVsbCIvPgogICAgPHBvbHlnb24gcG9pbnRzPSIxMDMuNjIwMDAyNzQ2NTgyMDMsODkuOTMwMDAwMzA1MTc1NzggMTA3LjExMDAwMDYxMDM1MTU2LDg5LjM4OTk5OTM4OTY0ODQ0IDk1LjUxMDAwMjEzNjIzMDQ3LDEzLjk1MDAwMDEwNzI4ODM2IDkyLjAxMDAwMjEzNjIzMDQ3LDE0LjQ5MDAwMDAwOTUzNjc0MyIgZmlsbD0idXJsKCNTVkdJRF8xMV8pIiBpZD0ic3ZnXzI2IiBzdHJva2U9Im51bGwiLz4KICAgIDxwb2x5Z29uIHBvaW50cz0iMTA4LjQxOTk5ODE2ODk0NTMxLDg5LjE5MDAwMjQ0MTQwNjI1IDExMS45MTk5OTgxNjg5NDUzMSw4OC42NTAwMDE1MjU4Nzg5IDEwMS4zMzk5OTYzMzc4OTA2MiwxOS44Njk5OTk4ODU1NTkwODIgOTcuODM5OTk2MzM3ODkwNjIsMjAuNDA5OTk5ODQ3NDEyMTEiIGZpbGw9InVybCgjU1ZHSURfMTJfKSIgaWQ9InN2Z18yNyIgc3Ryb2tlPSJudWxsIi8+CiAgICA8cG9seWdvbiBwb2ludHM9IjExNi41Mjk5OTg3NzkyOTY4OCw4Ny45NDk5OTY5NDgyNDIxOSAxMjAuMDI5OTk4Nzc5Mjk2ODgsODcuNDEwMDAzNjYyMTA5MzggMTEwLjYyOTk5NzI1MzQxNzk3LDI2LjMxMDAwMDQxOTYxNjcgMTA3LjEyOTk5NzI1MzQxNzk3LDI2Ljg0MDAwMDE1MjU4Nzg5IiBmaWxsPSJ1cmwoI1NWR0lEXzEzXykiIGlkPSJzdmdfMjgiIHN0cm9rZT0ibnVsbCIvPgogICAgPHBvbHlnb24gcG9pbnRzPSIxMjEuMzM5OTk2MzM3ODkwNjIsODcuMjA5OTk5MDg0NDcyNjYgMTI0LjgzOTk5NjMzNzg5MDYyLDg2LjY2OTk5ODE2ODk0NTMxIDExNS4wODAwMDE4MzEwNTQ2OSwyMy4yMjk5OTk1NDIyMzYzMjggMTExLjU4MDAwMTgzMTA1NDY5LDIzLjc2MDAwMDIyODg4MTgzNiIgZmlsbD0idXJsKCNTVkdJRF8xNF8pIiBpZD0ic3ZnXzI5IiBzdHJva2U9Im51bGwiLz4KICAgPC9nPgogIDwvZz4KIDwvZz4KPC9zdmc+;" parent="1" vertex="1">
                    <mxGeometry x="125" y="492" width="86.79" height="52" as="geometry"/>
                </mxCell>
                <mxCell id="69" value="" style="rounded=0;whiteSpace=wrap;html=1;fontSize=14;fillColor=#FFF0DB;strokeColor=#CC6600;" parent="1" vertex="1">
                    <mxGeometry x="74" y="171" width="313" height="227" as="geometry"/>
                </mxCell>
                <mxCell id="70" value="&lt;p style=&quot;line-height: 70%;&quot;&gt;&lt;font color=&quot;#000000&quot; style=&quot;font-size: 14px;&quot;&gt;Alloy&lt;br&gt;&lt;/font&gt;&lt;/p&gt;" style="text;strokeColor=none;fillColor=none;html=1;fontSize=24;fontStyle=1;verticalAlign=middle;align=center;" parent="1" vertex="1">
                    <mxGeometry x="65" y="362" width="71" height="36" as="geometry"/>
                </mxCell>
                <mxCell id="71" value="&lt;font color=&quot;#000000&quot;&gt;Faro Receiver&lt;br&gt;http://localhost:8027&lt;/font&gt;" style="shape=parallelogram;perimeter=parallelogramPerimeter;whiteSpace=wrap;html=1;fixedSize=1;fillColor=#d0cee2;strokeColor=#56517e;" parent="1" vertex="1">
                    <mxGeometry x="191.5" y="185" width="137" height="45" as="geometry"/>
                </mxCell>
                <mxCell id="73" value="&lt;font color=&quot;#000000&quot;&gt;Processors&lt;/font&gt;" style="rounded=1;whiteSpace=wrap;html=1;fillColor=#d0cee2;strokeColor=#56517e;" parent="1" vertex="1">
                    <mxGeometry x="210" y="265" width="100" height="40" as="geometry"/>
                </mxCell>
                <mxCell id="74" value="&lt;font color=&quot;#000000&quot; style=&quot;font-size: 12px;&quot;&gt;Loki Write&lt;/font&gt;" style="shape=parallelogram;perimeter=parallelogramPerimeter;whiteSpace=wrap;html=1;fixedSize=1;fontSize=14;fillColor=#d0cee2;strokeColor=#56517e;" parent="1" vertex="1">
                    <mxGeometry x="125" y="340" width="127" height="40" as="geometry"/>
                </mxCell>
                <mxCell id="75" value="&lt;font color=&quot;#000000&quot; style=&quot;font-size: 12px;&quot;&gt;OTLP Exporter&lt;/font&gt;" style="shape=parallelogram;perimeter=parallelogramPerimeter;whiteSpace=wrap;html=1;fixedSize=1;fontSize=14;fillColor=#d0cee2;strokeColor=#56517e;" parent="1" vertex="1">
                    <mxGeometry x="259" y="340" width="125" height="40" as="geometry"/>
                </mxCell>
                <mxCell id="77" value="&lt;font color=&quot;#000000&quot; style=&quot;font-size: 14px;&quot;&gt;Loki&lt;br&gt;&lt;/font&gt;" style="text;strokeColor=none;fillColor=none;html=1;fontSize=24;fontStyle=1;verticalAlign=middle;align=center;" parent="1" vertex="1">
                    <mxGeometry x="140.26999999999998" y="594" width="56.25" height="40" as="geometry"/>
                </mxCell>
                <mxCell id="78" value="&lt;font color=&quot;#000000&quot;&gt;Loki Server&lt;/font&gt;" style="rounded=1;whiteSpace=wrap;html=1;fontSize=12;fillColor=#d0cee2;strokeColor=#56517e;" parent="1" vertex="1">
                    <mxGeometry x="211.79" y="544" width="109.5" height="50" as="geometry"/>
                </mxCell>
                <mxCell id="81" value="" style="edgeStyle=elbowEdgeStyle;elbow=vertical;endArrow=classic;html=1;curved=0;rounded=0;endSize=8;startSize=8;exitX=0.5;exitY=1;exitDx=0;exitDy=0;entryX=0.5;entryY=0;entryDx=0;entryDy=0;strokeColor=#000000;" parent="1" source="66" target="71" edge="1">
                    <mxGeometry width="50" height="50" relative="1" as="geometry">
                        <mxPoint x="421.5000000000002" y="101.75" as="sourcePoint"/>
                        <mxPoint x="514" y="200" as="targetPoint"/>
                        <Array as="points">
                            <mxPoint x="250" y="153"/>
                        </Array>
                    </mxGeometry>
                </mxCell>
                <mxCell id="82" value="" style="edgeStyle=elbowEdgeStyle;elbow=horizontal;endArrow=classic;html=1;curved=0;rounded=0;endSize=8;startSize=8;exitX=0.5;exitY=1;exitDx=0;exitDy=0;entryX=0.5;entryY=0;entryDx=0;entryDy=0;strokeColor=#000000;" parent="1" source="71" target="73" edge="1">
                    <mxGeometry width="50" height="50" relative="1" as="geometry">
                        <mxPoint x="514" y="260" as="sourcePoint"/>
                        <mxPoint x="559" y="310" as="targetPoint"/>
                        <Array as="points"/>
                    </mxGeometry>
                </mxCell>
                <mxCell id="84" value="" style="edgeStyle=elbowEdgeStyle;elbow=vertical;endArrow=classic;html=1;curved=0;rounded=0;endSize=8;startSize=8;exitX=0.5;exitY=1;exitDx=0;exitDy=0;strokeColor=#000000;entryX=0.5;entryY=0;entryDx=0;entryDy=0;" parent="1" source="73" target="75" edge="1">
                    <mxGeometry width="50" height="50" relative="1" as="geometry">
                        <mxPoint x="421.5000000000002" y="101.75" as="sourcePoint"/>
                        <mxPoint x="322" y="355" as="targetPoint"/>
                        <Array as="points">
                            <mxPoint x="291" y="321"/>
                        </Array>
                    </mxGeometry>
                </mxCell>
                <mxCell id="85" value="" style="edgeStyle=elbowEdgeStyle;elbow=vertical;endArrow=classic;html=1;curved=0;rounded=0;endSize=8;startSize=8;exitX=0.5;exitY=1;exitDx=0;exitDy=0;strokeColor=#000000;entryX=0.5;entryY=0;entryDx=0;entryDy=0;" parent="1" source="73" target="74" edge="1">
                    <mxGeometry width="50" height="50" relative="1" as="geometry">
                        <mxPoint x="270" y="315" as="sourcePoint"/>
                        <mxPoint x="331.4999999999999" y="350" as="targetPoint"/>
                        <Array as="points">
                            <mxPoint x="226" y="321"/>
                        </Array>
                    </mxGeometry>
                </mxCell>
                <mxCell id="86" value="" style="edgeStyle=elbowEdgeStyle;elbow=vertical;endArrow=classic;html=1;curved=0;rounded=0;endSize=8;startSize=8;exitX=0.5;exitY=1;exitDx=0;exitDy=0;entryX=0.5;entryY=0;entryDx=0;entryDy=0;strokeColor=#000000;" parent="1" source="74" target="78" edge="1">
                    <mxGeometry width="50" height="50" relative="1" as="geometry">
                        <mxPoint x="421.5000000000002" y="101.75" as="sourcePoint"/>
                        <mxPoint x="514" y="200" as="targetPoint"/>
                        <Array as="points">
                            <mxPoint x="267" y="455"/>
                        </Array>
                    </mxGeometry>
                </mxCell>
                <mxCell id="87" value="" style="edgeStyle=elbowEdgeStyle;elbow=vertical;endArrow=classic;html=1;curved=0;rounded=0;endSize=8;startSize=8;exitX=0.5;exitY=1;exitDx=0;exitDy=0;entryX=0.5;entryY=0;entryDx=0;entryDy=0;strokeColor=#000000;" parent="1" source="78" target="46" edge="1">
                    <mxGeometry width="50" height="50" relative="1" as="geometry">
                        <mxPoint x="271.2500000000002" y="623" as="sourcePoint"/>
                        <mxPoint x="363.75" y="721.25" as="targetPoint"/>
                        <Array as="points">
                            <mxPoint x="345" y="720"/>
                        </Array>
                    </mxGeometry>
                </mxCell>
                <mxCell id="88" value="" style="group" parent="1" vertex="1" connectable="0">
                    <mxGeometry x="407" y="30" width="191" height="84" as="geometry"/>
                </mxCell>
                <mxCell id="59" value="" style="rounded=0;whiteSpace=wrap;html=1;fillColor=#f0a30a;fontColor=#000000;strokeColor=#BD7000;" parent="88" vertex="1">
                    <mxGeometry x="2" width="189" height="84" as="geometry"/>
                </mxCell>
                <mxCell id="62" value="&lt;font color=&quot;#000000&quot;&gt;Auto instrumentation&lt;br&gt;for metrics and traces&lt;br&gt;&lt;/font&gt;" style="shape=parallelogram;perimeter=parallelogramPerimeter;whiteSpace=wrap;html=1;fixedSize=1;fillColor=#d0cee2;strokeColor=#56517e;" parent="88" vertex="1">
                    <mxGeometry x="17.879999999999995" y="8.5" width="157.25" height="50.5" as="geometry"/>
                </mxCell>
                <mxCell id="65" value="&lt;font color=&quot;#000000&quot; style=&quot;font-size: 14px;&quot;&gt;Beyla&lt;/font&gt;" style="text;strokeColor=none;fillColor=none;html=1;fontSize=24;fontStyle=1;verticalAlign=middle;align=center;" parent="88" vertex="1">
                    <mxGeometry y="55.5" width="57" height="25" as="geometry"/>
                </mxCell>
                <mxCell id="60" value="" style="edgeStyle=none;html=1;fontColor=#000000;strokeColor=#000000;entryX=1;entryY=0.5;entryDx=0;entryDy=0;" parent="1" source="2" target="62" edge="1">
                    <mxGeometry relative="1" as="geometry"/>
                </mxCell>
                <mxCell id="89" value="" style="shape=image;verticalLabelPosition=bottom;labelBackgroundColor=default;verticalAlign=top;aspect=fixed;imageAspect=0;image=data:image/svg+xml,PHN2ZyB4bWxuczp4bGluaz0iaHR0cDovL3d3dy53My5vcmcvMTk5OS94bGluayIgeG1sbnM9Imh0dHA6Ly93d3cudzMub3JnLzIwMDAvc3ZnIiBwcmVzZXJ2ZUFzcGVjdFJhdGlvPSJ4TWlkWU1pZCIgdmlld0JveD0iMCAwIDI1NiAyNzguMTk4NTE2ODQ1NzAzMSIgaGVpZ2h0PSIyNzguMTk4NTE2ODQ1NzAzMSIgd2lkdGg9IjI1NiI+PGRlZnM+PGxpbmVhckdyYWRpZW50IGlkPSJhIiB5Mj0iMzEuMTM5JSIgeDI9IjQ5Ljk5NSUiIHkxPSIxMjIuNDUlIiB4MT0iNDkuOTk1JSI+PHN0b3Agb2Zmc2V0PSIwJSIgc3RvcC1jb2xvcj0iI0ZGRjEwMCIvPjxzdG9wIG9mZnNldD0iMTAwJSIgc3RvcC1jb2xvcj0iI0YwNUEyOCIvPjwvbGluZWFyR3JhZGllbnQ+PC9kZWZzPjxnPjxwYXRoIGZpbGw9InVybCgjYSkiIGQ9Ik0yNTUuNTkwMSwxMjIuNzc1MjE1IEMyNTUuMTMwMjY4LDExOC4xMDAyNTMgMjU0LjM2Mzg4MSwxMTIuNzM1NTQzIDI1Mi44MzExMDcsMTA2Ljc1NzcyNCBDMjUxLjI5ODMzMiwxMDAuODU2NTQzIDI0OC45OTkxNzEsOTQuMzQyMjUyOSAyNDUuNjI3MDY4LDg3LjU5ODA0NjMgQzI0Mi4yNTQ5NjUsODAuODUzODM5OCAyMzcuODg2NTU4LDczLjg3OTcxNzEgMjMyLjIxNTI5Myw2Ny4wNTg4NzE5IEMyMjkuOTkyNzcxLDY0LjM3NjUxNyAyMjcuNTQwMzMyLDYxLjc3MDgwMDggMjI0LjkzNDYxNiw1OS4yNDE3MjM0IEMyMjguODQzMTksNDMuNjg0MDY1MSAyMjAuMTgzMDE2LDMwLjE5NTY1MiAyMjAuMTgzMDE2LDMwLjE5NTY1MiBDMjA1LjIzODQ2NywyOS4yNzU5ODc1IDE5NS43MzUyNjcsMzQuODcwNjEzNCAxOTIuMjA5ODg2LDM3LjM5OTY5MDggQzE5MS41OTY3NzcsMzcuMTY5Nzc0NyAxOTEuMDYwMzA2LDM2Ljg2MzIxOTkgMTkwLjQ0NzE5NiwzNi42MzMzMDM3IEMxODcuOTE4MTE5LDM1LjYzNzAwMDUgMTg1LjMxMjQwMiwzNC42NDA2OTcyIDE4Mi41NTM0MDksMzMuNzk3NjcxNCBDMTc5Ljg3MTA1NCwzMi45NTQ2NDU2IDE3Ny4xMTIwNiwzMi4xODgyNTg1IDE3NC4yNzY0MjgsMzEuNDk4NTEwMSBDMTcxLjQ0MDc5NiwzMC44MDg3NjE3IDE2OC42MDUxNjQsMzAuMjcyMjkwNyAxNjUuNjkyODkzLDI5LjgxMjQ1ODUgQzE2NS4xNTY0MjIsMjkuNzM1ODE5OCAxNjQuNjk2NTg5LDI5LjY1OTE4MSAxNjQuMTYwMTE4LDI5LjU4MjU0MjMgQzE1Ny42NDU4MjgsOC43MzY4MTMwMiAxMzguOTQ1OTgzLDAgMTM4Ljk0NTk4MywwIEMxMTguMDIzNjE0LDEzLjI1ODQ5NyAxMTQuMTE1MDQsMzEuODA1MDY0OSAxMTQuMTE1MDQsMzEuODA1MDY0OSBDMTE0LjExNTA0LDMxLjgwNTA2NDkgMTE0LjAzODQwMiwzMi4xODgyNTg1IDExMy44ODUxMjQsMzIuODc4MDA2OSBDMTEyLjczNTU0MywzMy4xODQ1NjE3IDExMS41ODU5NjMsMzMuNTY3NzU1MyAxMTAuNDM2MzgyLDMzLjg3NDMxMDEgQzEwOC44MjY5NjksMzQuMzM0MTQyNCAxMDcuMjE3NTU2LDM0Ljk0NzI1MjEgMTA1LjY4NDc4MiwzNS41NjAzNjE4IEMxMDQuMDc1MzY5LDM2LjE3MzQ3MTUgMTAyLjU0MjU5NSwzNi43ODY1ODExIDEwMC45MzMxODIsMzcuNDc2MzI5NSBDOTcuNzkwOTk0OSwzOC44NTU4MjYzIDk0LjY0ODgwNzcsNDAuMzg4NjAwNSA5MS41ODMyNTkzLDQyLjA3NDY1MjIgQzg4LjU5NDM0OTYsNDMuNzYwNzAzOCA4NS42ODIwNzg2LDQ1LjYwMDAzMjkgODIuODQ2NDQ2Myw0Ny41MTYwMDA2IEM4Mi40NjMyNTI3LDQ3LjM2MjcyMzIgODIuMDgwMDU5Miw0Ny4yMDk0NDU4IDgyLjA4MDA1OTIsNDcuMjA5NDQ1OCBDNTMuMTEwNjI2NSwzNi4xNzM0NzE1IDI3LjQzNjY1ODQsNDkuNDMxOTY4NCAyNy40MzY2NTg0LDQ5LjQzMTk2ODQgQzI1LjA2MDg1ODQsODAuMjQwNzMwMSAzOS4wMDkxMDM4LDk5LjYzMDMyMzkgNDEuNzY4MDk3MywxMDMuMTU1NzA1IEM0MS4wNzgzNDg5LDEwNS4wNzE2NzIgNDAuNDY1MjM5MywxMDYuOTg3NjQgMzkuODUyMTI5NiwxMDguOTAzNjA4IEMzNy43MDYyNDU3LDExNS44Nzc3MzEgMzYuMDk2ODMyNywxMjMuMDA1MTMxIDM1LjEwMDUyOTUsMTMwLjQzOTA4NiBDMzQuOTQ3MjUyMSwxMzEuNTEyMDI4IDM0Ljc5Mzk3NDcsMTMyLjU4NDk3IDM0LjcxNzMzNiwxMzMuNjU3OTExIEM3Ljg5Mzc4NzIsMTQ2LjkxNjQwOCAwLDE3My45Njk4NzMgMCwxNzMuOTY5ODczIEMyMi4zMDE4NjQ4LDE5OS42NDM4NDEgNDguMzU5MDI2NSwyMDEuMjUzMjU0IDQ4LjM1OTAyNjUsMjAxLjI1MzI1NCBDNDguMzU5MDI2NSwyMDEuMjUzMjU0IDQ4LjQzNTY2NTIsMjAxLjE3NjYxNiA0OC40MzU2NjUyLDIwMS4xNzY2MTYgQzUxLjczMTEyOTcsMjA3LjA3Nzc5NiA1NS41NjMwNjUzLDIxMi42NzI0MjIgNTkuODU0ODMzMSwyMTcuOTYwNDkzIEM2MS42OTQxNjIxLDIyMC4xODMwMTYgNjMuNTMzNDkxMiwyMjIuMjUyMjYxIDY1LjUyNjA5NzcsMjI0LjMyMTUwNiBDNTcuNDAyMzk0MywyNDcuNjE5Njc0IDY2LjY3NTY3ODMsMjY2LjkzMjYyOSA2Ni42NzU2NzgzLDI2Ni45MzI2MjkgQzkxLjUwNjYyMDYsMjY3Ljg1MjI5NCAxMDcuODMwNjY2LDI1Ni4wNDk5MzIgMTExLjI3OTQwOCwyNTMuMzY3NTc4IEMxMTMuNzMxODQ3LDI1NC4yMTA2MDMgMTE2LjI2MDkyNCwyNTQuOTc2OTkxIDExOC43OTAwMDIsMjU1LjU5MDEgQzEyNi40NTM4NzMsMjU3LjU4MjcwNyAxMzQuMjcxMDIxLDI1OC43MzIyODcgMTQyLjA4ODE3LDI1OS4wMzg4NDIgQzE0NC4wMDQxMzcsMjU5LjExNTQ4MSAxNDUuOTk2NzQ0LDI1OS4xOTIxMiAxNDcuOTEyNzEyLDI1OS4xMTU0ODEgTDE0OC44MzIzNzYsMjU5LjExNTQ4MSBMMTQ5LjQ0NTQ4NiwyNTkuMTE1NDgxIEwxNTAuNjcxNzA1LDI1OS4xMTU0ODEgTDE1MS44OTc5MjUsMjU5LjAzODg0MiBMMTUxLjg5NzkyNSwyNTkuMTE1NDgxIEMxNjMuNjIzNjQ3LDI3NS44MjI3MiAxODQuMTYyODIyLDI3OC4xOTg1MiAxODQuMTYyODIyLDI3OC4xOTg1MiBDMTk4LjgwMDgxNiwyNjIuNzk0MTM5IDE5OS42NDM4NDEsMjQ3LjQ2NjM5NyAxOTkuNjQzODQxLDI0NC4xNzA5MzIgQzE5OS42NDM4NDEsMjQ0LjE3MDkzMiAxOTkuNjQzODQxLDI0NC4wOTQyOTQgMTk5LjY0Mzg0MSwyNDMuOTQxMDE2IEMxOTkuNjQzODQxLDI0My42MzQ0NjEgMTk5LjY0Mzg0MSwyNDMuNDgxMTg0IDE5OS42NDM4NDEsMjQzLjQ4MTE4NCBDMTk5LjY0Mzg0MSwyNDMuMjUxMjY4IDE5OS42NDM4NDEsMjQzLjAyMTM1MiAxOTkuNjQzODQxLDI0Mi43OTE0MzYgQzIwMi43MDkzOSwyNDAuNjQ1NTUyIDIwNS42MjE2NjEsMjM4LjM0NjM5IDIwOC4zODA2NTQsMjM1LjgxNzMxMyBDMjE0LjIwNTE5NiwyMzAuNTI5MjQyIDIxOS4zMzk5OSwyMjQuNDc0Nzg0IDIyMy42MzE3NTgsMjE3Ljk2MDQ5MyBDMjI0LjAxNDk1MSwyMTcuMzQ3Mzg0IDIyNC4zOTgxNDUsMjE2LjczNDI3NCAyMjQuNzgxMzM5LDIxNi4xMjExNjQgQzI0MS4zMzUzLDIxNy4wNDA4MjkgMjUzLjA2MTAyMywyMDUuODUxNTc3IDI1My4wNjEwMjMsMjA1Ljg1MTU3NyBDMjUwLjMwMjAyOSwxODguNjA3ODY3IDI0MC40OTIyNzQsMTgwLjE3NzYwOSAyMzguNDIzMDI5LDE3OC41NjgxOTYgQzIzOC40MjMwMjksMTc4LjU2ODE5NiAyMzguMzQ2MzksMTc4LjQ5MTU1NyAyMzguMTkzMTEzLDE3OC40MTQ5MTkgQzIzOC4wMzk4MzUsMTc4LjMzODI4IDIzOC4wMzk4MzUsMTc4LjI2MTY0MSAyMzguMDM5ODM1LDE3OC4yNjE2NDEgQzIzOC4wMzk4MzUsMTc4LjI2MTY0MSAyMzguMDM5ODM1LDE3OC4yNjE2NDEgMjM4LjAzOTgzNSwxNzguMjYxNjQxIEMyMzcuOTYzMTk3LDE3OC4xODUwMDIgMjM3LjgwOTkxOSwxNzguMTA4MzY0IDIzNy42NTY2NDIsMTc4LjAzMTcyNSBDMjM3LjczMzI4MSwxNzYuOTU4NzgzIDIzNy44MDk5MTksMTc1Ljk2MjQ4IDIzNy44ODY1NTgsMTc0Ljg4OTUzOCBDMjM4LjAzOTgzNSwxNzMuMDUwMjA5IDIzOC4wMzk4MzUsMTcxLjEzNDI0MSAyMzguMDM5ODM1LDE2OS4yOTQ5MTIgTDIzOC4wMzk4MzUsMTY3LjkxNTQxNSBMMjM4LjAzOTgzNSwxNjcuMjI1NjY3IEwyMzguMDM5ODM1LDE2Ni44NDI0NzMgQzIzOC4wMzk4MzUsMTY2LjM4MjY0MSAyMzguMDM5ODM1LDE2Ni41MzU5MTggMjM4LjAzOTgzNSwxNjYuMzgyNjQxIEwyMzcuOTYzMTk3LDE2NS4yMzMwNiBMMjM3Ljg4NjU1OCwxNjMuNzAwMjg2IEMyMzcuODg2NTU4LDE2My4xNjM4MTUgMjM3LjgwOTkxOSwxNjIuNzAzOTgzIDIzNy43MzMyODEsMTYyLjI0NDE1MSBDMjM3LjY1NjY0MiwxNjEuNzg0MzE4IDIzNy42NTY2NDIsMTYxLjI0Nzg0NyAyMzcuNTgwMDAzLDE2MC43ODgwMTUgTDIzNy40MjY3MjYsMTU5LjMzMTg4IEwyMzcuMTk2ODEsMTU3Ljg3NTc0NCBDMjM2Ljg5MDI1NSwxNTUuOTU5Nzc2IDIzNi41ODM3LDE1NC4xMjA0NDcgMjM2LjEyMzg2OCwxNTIuMjA0NDc5IEMyMzQuMzYxMTc3LDE0NC43NzA1MjUgMjMxLjQ0ODkwNiwxMzcuNzE5NzYzIDIyNy42OTM2MSwxMzEuMzU4NzUgQzIyMy44NjE2NzQsMTI0Ljk5NzczNyAyMTkuMTEwMDc0LDExOS40MDMxMTEgMjEzLjY2ODcyNSwxMTQuNjUxNTExIEMyMDguMzA0MDE2LDEwOS44OTk5MTEgMjAyLjI0OTU1OCwxMDYuMDY3OTc2IDE5NS45NjUxODMsMTAzLjIzMjM0MyBDMTg5LjYwNDE3LDEwMC4zOTY3MTEgMTgzLjAxMzI0MSw5OC41NTczODIgMTc2LjQyMjMxMiw5Ny43MTQzNTYyIEMxNzMuMTI2ODQ3LDk3LjI1NDUyMzkgMTY5LjgzMTM4Myw5Ny4xMDEyNDY1IDE2Ni41MzU5MTgsOTcuMTc3ODg1MiBMMTY1LjMwOTY5OSw5Ny4xNzc4ODUyIEwxNjUuMDAzMTQ0LDk3LjE3Nzg4NTIgQzE2NC45MjY1MDUsOTcuMTc3ODg1MiAxNjQuNTQzMzEyLDk3LjE3Nzg4NTIgMTY0LjYxOTk1MSw5Ny4xNzc4ODUyIEwxNjQuMDgzNDgsOTcuMTc3ODg1MiBMMTYyLjg1NzI2LDk3LjI1NDUyMzkgQzE2Mi4zOTc0MjgsOTcuMjU0NTIzOSAxNjEuOTM3NTk2LDk3LjMzMTE2MjYgMTYxLjU1NDQwMiw5Ny4zMzExNjI2IEMxNTkuODY4MzUxLDk3LjQ4NDQ0IDE1OC4xODIyOTksOTcuNzE0MzU2MiAxNTYuNTcyODg2LDk4LjAyMDkxMSBDMTQ5Ljk4MTk1Nyw5OS4yNDcxMzA0IDE0My43NzQyMjEsMTAxLjYyMjkzIDEzOC4zMzI4NzMsMTA0LjkxODM5NSBDMTMyLjg5MTUyNCwxMDguMjEzODYgMTI4LjEzOTkyNCwxMTIuMjc1NzExIDEyNC4zMDc5ODksMTE2Ljg3NDAzNCBDMTIwLjQ3NjA1MywxMjEuNDcyMzU2IDExNy40ODcxNDQsMTI2LjYwNzE1IDExNS40MTc4OTgsMTMxLjg5NTIyMSBDMTEzLjM0ODY1MywxMzcuMTgzMjkyIDExMi4xOTkwNzIsMTQyLjcwMTI3OSAxMTEuODkyNTE4LDE0Ny45ODkzNSBDMTExLjgxNTg3OSwxNDkuMjkyMjA4IDExMS44MTU4NzksMTUwLjY3MTcwNSAxMTEuODE1ODc5LDE1MS45NzQ1NjMgQzExMS44MTU4NzksMTUyLjI4MTExOCAxMTEuODE1ODc5LDE1Mi42NjQzMTIgMTExLjgxNTg3OSwxNTIuOTcwODY3IEwxMTEuODkyNTE4LDE1NC4wNDM4MDkgQzExMS45NjkxNTYsMTU0LjY1NjkxOCAxMTEuOTY5MTU2LDE1NS4zNDY2NjcgMTEyLjA0NTc5NSwxNTUuOTU5Nzc2IEMxMTIuMjc1NzExLDE1OC42NDIxMzEgMTEyLjgxMjE4MiwxNjEuMjQ3ODQ3IDExMy41MDE5MzEsMTYzLjcwMDI4NiBDMTE0Ljk1ODA2NiwxNjguNjgxODAyIDExNy4yNTcyMjcsMTczLjIwMzQ4NiAxMjAuMDkyODYsMTc3LjAzNTQyMiBDMTIyLjkyODQ5MiwxODAuODY3MzU3IDEyNi4zNzcyMzQsMTg0LjAwOTU0NCAxMjkuOTc5MjUzLDE4Ni41Mzg2MjIgQzEzMy41ODEyNzMsMTg4Ljk5MTA2MSAxMzcuNDg5ODQ3LDE5MC43NTM3NTEgMTQxLjMyMTc4MywxOTEuOTAzMzMyIEMxNDUuMTUzNzE4LDE5My4wNTI5MTIgMTQ4Ljk4NTY1NCwxOTMuNTEyNzQ1IDE1Mi41ODc2NzMsMTkzLjUxMjc0NSBDMTUzLjA0NzUwNSwxOTMuNTEyNzQ1IDE1My41MDczMzgsMTkzLjUxMjc0NSAxNTMuODkwNTMxLDE5My41MTI3NDUgQzE1NC4xMjA0NDcsMTkzLjUxMjc0NSAxNTQuMzUwMzYzLDE5My41MTI3NDUgMTU0LjU4MDI3OSwxOTMuNTEyNzQ1IEMxNTQuODEwMTk2LDE5My41MTI3NDUgMTU1LjA0MDExMiwxOTMuNTEyNzQ1IDE1NS4yNzAwMjgsMTkzLjQzNjEwNiBDMTU1LjY1MzIyMSwxOTMuNDM2MTA2IDE1Ni4wMzY0MTUsMTkzLjM1OTQ2NyAxNTYuNDE5NjA5LDE5My4zNTk0NjcgQzE1Ni40OTYyNDcsMTkzLjM1OTQ2NyAxNTYuNjQ5NTI1LDE5My4zNTk0NjcgMTU2LjcyNjE2MywxOTMuMjgyODI4IEwxNTcuMTA5MzU3LDE5My4yMDYxOSBDMTU3LjMzOTI3MywxOTMuMjA2MTkgMTU3LjU2OTE4OSwxOTMuMTI5NTUxIDE1Ny43OTkxMDUsMTkzLjEyOTU1MSBDMTU4LjI1ODkzOCwxOTMuMDUyOTEyIDE1OC42NDIxMzEsMTkyLjk3NjI3NCAxNTkuMTAxOTYzLDE5Mi44OTk2MzUgQzE1OS41NjE3OTYsMTkyLjgyMjk5NiAxNTkuOTQ0OTg5LDE5Mi43NDYzNTcgMTYwLjMyODE4MywxOTIuNTkzMDggQzE2MS4xNzEyMDksMTkyLjQzOTgwMyAxNjEuOTM3NTk2LDE5Mi4xMzMyNDggMTYyLjcwMzk4MywxOTEuOTAzMzMyIEMxNjQuMjM2NzU3LDE5MS4zNjY4NjEgMTY1Ljc2OTUzMSwxOTAuNzUzNzUxIDE2Ny4wNzIzODksMTkwLjA2NDAwMyBDMTY4LjQ1MTg4NiwxODkuMzc0MjU0IDE2OS42NzgxMDYsMTg4LjUzMTIyOCAxNzAuOTA0MzI1LDE4Ny43NjQ4NDEgQzE3MS4yMTA4OCwxODcuNTM0OTI1IDE3MS41OTQwNzMsMTg3LjMwNTAwOSAxNzEuOTAwNjI4LDE4Ni45OTg0NTQgQzE3My4xMjY4NDcsMTg2LjAwMjE1MSAxNzMuMzU2NzY0LDE4NC4xNjI4MjIgMTcyLjM2MDQ2LDE4Mi45MzY2MDIgQzE3MS41MTc0MzUsMTgxLjg2MzY2MSAxNjkuOTg0NjYsMTgxLjU1NzEwNiAxNjguNzU4NDQxLDE4Mi4yNDY4NTQgQzE2OC40NTE4ODYsMTgyLjQwMDEzMSAxNjguMTQ1MzMxLDE4Mi41NTM0MDkgMTY3LjgzODc3NiwxODIuNzA2Njg2IEMxNjYuNzY1ODM1LDE4My4yNDMxNTcgMTY1LjY5Mjg5MywxODMuNzAyOTkgMTY0LjU0MzMxMiwxODQuMDg2MTgzIEMxNjMuMzkzNzMxLDE4NC40NjkzNzcgMTYyLjE2NzUxMiwxODQuNzc1OTMyIDE2MC45NDEyOTIsMTg1LjAwNTg0OCBDMTYwLjMyODE4MywxODUuMDgyNDg2IDE1OS43MTUwNzMsMTg1LjE1OTEyNSAxNTkuMDI1MzI1LDE4NS4yMzU3NjQgQzE1OC43MTg3NywxODUuMjM1NzY0IDE1OC40MTIyMTUsMTg1LjMxMjQwMiAxNTguMDI5MDIxLDE4NS4zMTI0MDIgQzE1Ny43MjI0NjcsMTg1LjMxMjQwMiAxNTcuMzM5MjczLDE4NS4zMTI0MDIgMTU3LjEwOTM1NywxODUuMzEyNDAyIEMxNTYuODAyODAyLDE4NS4zMTI0MDIgMTU2LjQ5NjI0NywxODUuMzEyNDAyIDE1Ni4xODk2OTIsMTg1LjMxMjQwMiBDMTU1LjgwNjQ5OSwxODUuMzEyNDAyIDE1NS40MjMzMDUsMTg1LjMxMjQwMiAxNTUuMDQwMTEyLDE4NS4yMzU3NjQgQzE1NS4wNDAxMTIsMTg1LjIzNTc2NCAxNTQuODEwMTk2LDE4NS4yMzU3NjQgMTU0Ljk2MzQ3MywxODUuMjM1NzY0IEwxNTQuODEwMTk2LDE4NS4yMzU3NjQgTDE1NC41ODAyNzksMTg1LjIzNTc2NCBDMTU0LjQyNzAwMiwxODUuMjM1NzY0IDE1NC4xOTcwODYsMTg1LjIzNTc2NCAxNTQuMDQzODA5LDE4NS4xNTkxMjUgQzE1My42NjA2MTUsMTg1LjA4MjQ4NiAxNTMuMzU0MDYsMTg1LjA4MjQ4NiAxNTIuOTcwODY3LDE4NS4wMDU4NDggQzE1MC4xMzUyMzQsMTg0LjYyMjY1NCAxNDcuMjk5NjAyLDE4My43Nzk2MjggMTQ0LjYxNzI0NywxODIuNTUzNDA5IEMxNDEuODU4MjU0LDE4MS4zMjcxOSAxMzkuMjUyNTM3LDE3OS42NDExMzggMTM2Ljg3NjczNywxNzcuNDk1MjU0IEMxMzQuNTAwOTM3LDE3NS4zNDkzNyAxMzIuNDMxNjkyLDE3Mi44MjAyOTMgMTMwLjgyMjI3OSwxNjkuOTA4MDIyIEMxMjkuMjEyODY2LDE2Ni45OTU3NTEgMTI4LjA2MzI4NiwxNjMuNzc2OTI1IDEyNy41MjY4MTUsMTYwLjQwNDgyMiBDMTI3LjI5Njg5OCwxNTguNzE4NzcgMTI3LjE0MzYyMSwxNTYuOTU2MDggMTI3LjIyMDI2LDE1NS4yNzAwMjggQzEyNy4yMjAyNiwxNTQuODEwMTk2IDEyNy4yOTY4OTgsMTU0LjM1MDM2MyAxMjcuMjk2ODk4LDE1My44OTA1MzEgQzEyNy4yOTY4OTgsMTU0LjA0MzgwOSAxMjcuMjk2ODk4LDE1My44MTM4OTIgMTI3LjI5Njg5OCwxNTMuODEzODkyIEwxMjcuMjk2ODk4LDE1My42NjA2MTUgTDEyNy4yOTY4OTgsMTUzLjI3NzQyMSBDMTI3LjI5Njg5OCwxNTMuMDQ3NTA1IDEyNy4zNzM1MzcsMTUyLjgxNzU4OSAxMjcuMzczNTM3LDE1Mi41ODc2NzMgQzEyNy40NTAxNzYsMTUxLjY2ODAwOCAxMjcuNjAzNDUzLDE1MC43NDgzNDQgMTI3Ljc1NjczMSwxNDkuODI4Njc5IEMxMjkuMDU5NTg5LDE0Mi40NzEzNjMgMTMyLjczODI0NywxMzUuMjY3MzI0IDEzOC40MDk1MTIsMTI5LjgyNTk3NiBDMTM5Ljg2NTY0NywxMjguNDQ2NDc5IDE0MS4zOTg0MjEsMTI3LjIyMDI2IDE0My4wMDc4MzQsMTI2LjA3MDY3OSBDMTQ0LjYxNzI0NywxMjQuOTIxMDk4IDE0Ni4zNzk5MzcsMTIzLjkyNDc5NSAxNDguMjE5MjY3LDEyMy4wODE3NjkgQzE1MC4wNTg1OTYsMTIyLjIzODc0NCAxNTEuODk3OTI1LDEyMS41NDg5OTUgMTUzLjg5MDUzMSwxMjEuMDEyNTI0IEMxNTUuODA2NDk5LDEyMC40NzYwNTMgMTU3Ljc5OTEwNSwxMjAuMTY5NDk4IDE1OS44NjgzNTEsMTE5LjkzOTU4MiBDMTYwLjg2NDY1NCwxMTkuODYyOTQ0IDE2MS44NjA5NTcsMTE5Ljc4NjMwNSAxNjIuOTMzODk5LDExOS43ODYzMDUgQzE2My4yNDA0NTQsMTE5Ljc4NjMwNSAxNjMuMzkzNzMxLDExOS43ODYzMDUgMTYzLjYyMzY0NywxMTkuNzg2MzA1IEwxNjQuNDY2NjczLDExOS43ODYzMDUgTDE2NS4wMDMxNDQsMTE5Ljc4NjMwNSBDMTY1LjIzMzA2LDExOS43ODYzMDUgMTY1LjAwMzE0NCwxMTkuNzg2MzA1IDE2NS4wNzk3ODMsMTE5Ljc4NjMwNSBMMTY1LjMwOTY5OSwxMTkuNzg2MzA1IEwxNjYuMTUyNzI1LDExOS44NjI5NDQgQzE2OC4zNzUyNDcsMTIwLjAxNjIyMSAxNzAuNTIxMTMxLDEyMC4zMjI3NzYgMTcyLjY2NzAxNSwxMjAuODU5MjQ3IEMxNzYuOTU4NzgzLDEyMS43Nzg5MTEgMTgxLjE3MzkxMiwxMjMuMzg4MzI0IDE4NS4wODI0ODYsMTI1LjUzNDIwOCBDMTkyLjg5OTYzNSwxMjkuOTAyNjE1IDE5OS41NjcyMDMsMTM2LjY0NjgyMSAyMDMuNjI5MDU0LDE0NC43NzA1MjUgQzIwNS42OTgzLDE0OC44MzIzNzYgMjA3LjE1NDQzNSwxNTMuMjAwNzgzIDIwNy44NDQxODMsMTU3LjcyMjQ2NyBDMjA3Ljk5NzQ2MSwxNTguODcyMDQ3IDIwOC4xNTA3MzgsMTYwLjAyMTYyOCAyMDguMjI3Mzc3LDE2MS4xNzEyMDkgTDIwOC4zMDQwMTYsMTYyLjAxNDIzNCBMMjA4LjM4MDY1NCwxNjIuODU3MjYgQzIwOC4zODA2NTQsMTYzLjE2MzgxNSAyMDguMzgwNjU0LDE2My40NzAzNyAyMDguMzgwNjU0LDE2My43MDAyODYgQzIwOC4zODA2NTQsMTY0LjAwNjg0MSAyMDguMzgwNjU0LDE2NC4zMTMzOTYgMjA4LjM4MDY1NCwxNjQuNTQzMzEyIEwyMDguMzgwNjU0LDE2NS4zMDk2OTkgTDIwOC4zODA2NTQsMTY2LjE1MjcyNSBDMjA4LjM4MDY1NCwxNjYuNjg5MTk2IDIwOC4zMDQwMTYsMTY3LjYwODg2IDIwOC4zMDQwMTYsMTY4LjE0NTMzMSBDMjA4LjIyNzM3NywxNjkuMzcxNTUxIDIwOC4wNzQxLDE3MC42NzQ0MDkgMjA3LjkyMDgyMiwxNzEuOTAwNjI4IEMyMDcuNzY3NTQ1LDE3My4xMjY4NDcgMjA3LjUzNzYyOSwxNzQuMzUzMDY3IDIwNy4zMDc3MTIsMTc1LjU3OTI4NiBDMjA3LjA3Nzc5NiwxNzYuODA1NTA2IDIwNi43NzEyNDEsMTc4LjAzMTcyNSAyMDYuNDY0Njg3LDE3OS4xODEzMDYgQzIwNS44NTE1NzcsMTgxLjU1NzEwNiAyMDUuMDg1MTksMTgzLjkzMjkwNiAyMDQuMTY1NTI1LDE4Ni4zMDg3MDYgQzIwMi4zMjYxOTYsMTkwLjkwNzAyOCAxOTkuODczNzU4LDE5NS4zNTIwNzQgMTk2Ljk2MTQ4NywxOTkuNDEzOTI1IEMxOTEuMDYwMzA2LDIwNy41Mzc2MjkgMTgzLjAxMzI0MSwyMTQuMTI4NTU4IDE3My44MTY1OTYsMjE4LjM0MzY4NyBDMTY5LjIxODI3MywyMjAuNDEyOTMyIDE2NC4zOTAwMzQsMjIxLjk0NTcwNiAxNTkuNDA4NTE4LDIyMi43MTIwOTMgQzE1Ni45NTYwOCwyMjMuMTcxOTI2IDE1NC40MjcwMDIsMjIzLjQwMTg0MiAxNTEuODk3OTI1LDIyMy40Nzg0OCBMMTUxLjQzODA5MiwyMjMuNDc4NDggTDE1MS4wNTQ4OTksMjIzLjQ3ODQ4IEwxNTAuMjExODczLDIyMy40Nzg0OCBMMTQ4Ljk4NTY1NCwyMjMuNDc4NDggTDE0OC4zNzI1NDQsMjIzLjQ3ODQ4IEMxNDguNjc5MDk5LDIyMy40Nzg0OCAxNDguMjk1OTA1LDIyMy40Nzg0OCAxNDguMjk1OTA1LDIyMy40Nzg0OCBMMTQ4LjA2NTk4OSwyMjMuNDc4NDggQzE0Ni42ODY0OTIsMjIzLjQ3ODQ4IDE0NS4zODM2MzQsMjIzLjQwMTg0MiAxNDQuMDA0MTM3LDIyMy4yNDg1NjQgQzEzOC42Mzk0MjgsMjIyLjg2NTM3MSAxMzMuMzUxMzU3LDIyMS44NjkwNjggMTI4LjEzOTkyNCwyMjAuNDEyOTMyIEMxMjMuMDA1MTMxLDIxOC45NTY3OTYgMTE4LjAyMzYxNCwyMTYuODg3NTUxIDExMy4yNzIwMTQsMjE0LjQzNTExMyBDMTAzLjg0NTQ1MywyMDkuMzc2OTU4IDk1LjMzODU1NjEsMjAyLjQ3OTQ3NCA4OC43NDc2MjcsMTk0LjEyNTg1NCBDODUuNDUyMTYyNCwxODkuOTg3MzY0IDgyLjUzOTg5MTQsMTg1LjQ2NTY4IDgwLjE2NDA5MTQsMTgwLjc5MDcxOSBDNzcuNzg4MjkxNCwxNzYuMTE1NzU3IDc1Ljg3MjMyMzYsMTcxLjEzNDI0MSA3NC40OTI4MjY4LDE2Ni4xNTI3MjUgQzczLjExMzMzLDE2MS4wOTQ1NyA3Mi4yNzAzMDQyLDE1NS45NTk3NzYgNzEuODg3MTEwNiwxNTAuNzQ4MzQ0IEw3MS44MTA0NzE5LDE0OS43NTIwNDEgTDcxLjgxMDQ3MTksMTQ5LjUyMjEyNSBMNzEuODEwNDcxOSwxNDkuMjkyMjA4IEw3MS44MTA0NzE5LDE0OC44MzIzNzYgTDcxLjgxMDQ3MTksMTQ3Ljk4OTM1IEw3MS44MTA0NzE5LDE0Ny43NTk0MzQgTDcxLjgxMDQ3MTksMTQ3LjQ1Mjg3OSBMNzEuODEwNDcxOSwxNDYuODM5NzcgTDcxLjgxMDQ3MTksMTQ1LjYxMzU1IEw3MS44MTA0NzE5LDE0NS4zODM2MzQgQzcxLjgxMDQ3MTksMTQ1LjM4MzYzNCA3MS44MTA0NzE5LDE0NS40NjAyNzMgNzEuODEwNDcxOSwxNDUuMzA2OTk2IEw3MS44MTA0NzE5LDE0NC44NDcxNjMgQzcxLjgxMDQ3MTksMTQ0LjIzNDA1NCA3MS44MTA0NzE5LDE0My41NDQzMDUgNzEuODEwNDcxOSwxNDIuOTMxMTk1IEM3MS44ODcxMTA2LDE0MC40MDIxMTggNzIuMTE3MDI2OCwxMzcuNzE5NzYzIDcyLjQyMzU4MTYsMTM1LjExNDA0NyBDNzIuNzMwMTM2NSwxMzIuNTA4MzMxIDczLjE4OTk2ODcsMTI5LjgyNTk3NiA3My43MjY0Mzk3LDEyNy4yMjAyNiBDNzQuMjYyOTEwNywxMjQuNjE0NTQ0IDc0Ljg3NjAyMDQsMTIyLjAwODgyNyA3NS42NDI0MDc1LDExOS40MDMxMTEgQzc3LjA5ODU0MywxMTQuMjY4MzE4IDc4LjkzNzg3MiwxMDkuMjg2ODAxIDgxLjA4Mzc1NTksMTA0LjYxMTg0IEM4NS40NTIxNjI0LDk1LjI2MTkxNzQgOTEuMTIzNDI3LDg2LjkwODI5NzkgOTcuOTQ0MjcyMyw4MC4yNDA3MzAxIEM5OS42MzAzMjM5LDc4LjU1NDY3ODUgMTAxLjM5MzAxNCw3Ny4wMjE5MDQzIDEwMy4yMzIzNDMsNzUuNDg5MTMgQzEwNS4wNzE2NzIsNzQuMDMyOTk0NSAxMDYuOTg3NjQsNzIuNjUzNDk3OCAxMDguOTgwMjQ3LDcxLjM1MDYzOTcgQzExMC44OTYyMTQsNzAuMDQ3NzgxNiAxMTIuOTY1NDYsNjguODk4MjAwOSAxMTUuMDM0NzA1LDY3LjgyNTI1OSBDMTE2LjAzMTAwOCw2Ny4yODg3ODggMTE3LjEwMzk1LDY2Ljc1MjMxNyAxMTguMTc2ODkyLDY2LjI5MjQ4NDggQzExOC43MTMzNjMsNjYuMDYyNTY4NiAxMTkuMjQ5ODM0LDY1LjgzMjY1MjUgMTE5Ljc4NjMwNSw2NS42MDI3MzY0IEMxMjAuMzIyNzc2LDY1LjM3MjgyMDIgMTIwLjg1OTI0Nyw2NS4xNDI5MDQxIDEyMS4zOTU3MTgsNjQuOTEyOTg4IEMxMjMuNTQxNjAyLDYzLjk5MzMyMzQgMTI1Ljc2NDEyNCw2My4yMjY5MzYzIDEyOC4wNjMyODYsNjIuNTM3MTg3OSBDMTI4LjU5OTc1Nyw2Mi4zODM5MTA1IDEyOS4yMTI4NjYsNjIuMjMwNjMzMSAxMjkuNzQ5MzM3LDYyLjAwMDcxNyBDMTMwLjI4NTgwOCw2MS44NDc0Mzk1IDEzMC44OTg5MTgsNjEuNjk0MTYyMSAxMzEuNDM1Mzg5LDYxLjU0MDg4NDcgQzEzMi41ODQ5Nyw2MS4yMzQzMjk5IDEzMy43MzQ1NSw2MC45Mjc3NzUgMTM0Ljg4NDEzMSw2MC42OTc4NTg5IEMxMzUuNDIwNjAyLDYwLjU0NDU4MTUgMTM2LjAzMzcxMiw2MC40Njc5NDI3IDEzNi42NDY4MjEsNjAuMzE0NjY1MyBDMTM3LjI1OTkzMSw2MC4xNjEzODc5IDEzNy43OTY0MDIsNjAuMDg0NzQ5MiAxMzguNDA5NTEyLDU5LjkzMTQ3MTggQzEzOS4wMjI2MjEsNTkuODU0ODMzMSAxMzkuNTU5MDkyLDU5LjcwMTU1NTYgMTQwLjE3MjIwMiw1OS42MjQ5MTY5IEwxNDEuMDE1MjI4LDU5LjQ3MTYzOTUgTDE0MS45MzQ4OTIsNTkuMzE4MzYyMSBDMTQyLjU0ODAwMiw1OS4yNDE3MjM0IDE0My4wODQ0NzMsNTkuMTY1MDg0NyAxNDMuNjk3NTgzLDU5LjA4ODQ0NiBDMTQ0LjM4NzMzMSw1OS4wMTE4MDcyIDE0NS4wMDA0NDEsNTguOTM1MTY4NSAxNDUuNjkwMTg5LDU4Ljg1ODUyOTggQzE0Ni4yMjY2Niw1OC43ODE4OTExIDE0Ny4xNDYzMjUsNTguNzA1MjUyNCAxNDcuNjgyNzk2LDU4LjYyODYxMzcgQzE0OC4wNjU5ODksNTguNTUxOTc1IDE0OC41MjU4MjEsNTguNTUxOTc1IDE0OC45MDkwMTUsNTguNDc1MzM2MyBMMTQ5Ljc1MjA0MSw1OC4zOTg2OTc2IEwxNTAuMTM1MjM0LDU4LjMyMjA1ODggTDE1MC41OTUwNjcsNTguMzIyMDU4OCBDMTUxLjI4NDgxNSw1OC4yNDU0MjAxIDE1MS44OTc5MjUsNTguMjQ1NDIwMSAxNTIuNTg3NjczLDU4LjE2ODc4MTQgTDE1My41ODM5NzYsNTguMDkyMTQyNyBDMTUzLjU4Mzk3Niw1OC4wOTIxNDI3IDE1My45NjcxNyw1OC4wOTIxNDI3IDE1My42NjA2MTUsNTguMDkyMTQyNyBMMTUzLjg5MDUzMSw1OC4wOTIxNDI3IEwxNTQuMzUwMzYzLDU4LjA5MjE0MjcgQzE1NC44ODY4MzQsNTguMDkyMTQyNyAxNTUuNDk5OTQ0LDU4LjAxNTUwNCAxNTYuMDM2NDE1LDU4LjAxNTUwNCBDMTU4LjI1ODkzOCw1Ny45Mzg4NjUzIDE2MC41NTgwOTksNTcuOTM4ODY1MyAxNjIuNzgwNjIyLDU4LjAxNTUwNCBDMTY3LjIyNTY2Nyw1OC4xNjg3ODE0IDE3MS41OTQwNzMsNTguNzA1MjUyNCAxNzUuODA5MjAyLDU5LjQ3MTYzOTUgQzE4NC4zMTYwOTksNjEuMDgxMDUyNCAxOTIuMjg2NTI1LDYzLjc2MzQwNzMgMTk5LjU2NzIwMyw2Ny4zNjU0MjY3IEMyMDYuODQ3ODgsNzAuODkwODA3NCAyMTMuMjg1NTMyLDc1LjI1OTIxMzkgMjE4Ljk1Njc5Niw4MC4wMTA4MTQgQzIxOS4zMzk5OSw4MC4zMTczNjg4IDIxOS42NDY1NDUsODAuNjIzOTIzNyAyMjAuMDI5NzM4LDgwLjkzMDQ3ODUgQzIyMC4zMzYyOTMsODEuMjM3MDMzNCAyMjAuNzE5NDg3LDgxLjU0MzU4ODIgMjIxLjAyNjA0Miw4MS44NTAxNDMgQzIyMS43MTU3OSw4Mi40NjMyNTI3IDIyMi4zMjg5LDgzLjA3NjM2MjQgMjIzLjAxODY0OCw4My42ODk0NzIxIEMyMjMuNzA4Mzk3LDg0LjMwMjU4MTggMjI0LjMyMTUwNiw4NC45MTU2OTE1IDIyNC45MzQ2MTYsODUuNTI4ODAxMiBDMjI1LjU0NzcyNiw4Ni4xNDE5MTA4IDIyNi4xNjA4MzUsODYuNzU1MDIwNSAyMjYuNzczOTQ1LDg3LjQ0NDc2ODkgQzIyOS4xNDk3NDUsODkuOTczODQ2NCAyMzEuMzcyMjY4LDkyLjUwMjkyMzggMjMzLjM2NDg3NCw5NS4xMDg2NCBDMjM3LjM1MDA4NywxMDAuMjQzNDM0IDI0MC41Njg5MTMsMTA1LjQ1NDg2NiAyNDMuMDk3OTksMTEwLjM1OTc0MyBDMjQzLjI1MTI2OCwxMTAuNjY2Mjk4IDI0My40MDQ1NDUsMTEwLjk3Mjg1MyAyNDMuNTU3ODIzLDExMS4yNzk0MDggQzI0My43MTExLDExMS41ODU5NjMgMjQzLjg2NDM3NywxMTEuODkyNTE4IDI0NC4wMTc2NTUsMTEyLjE5OTA3MiBDMjQ0LjMyNDIxLDExMi44MTIxODIgMjQ0LjYzMDc2NSwxMTMuNDI1MjkyIDI0NC44NjA2ODEsMTE0LjAzODQwMiBDMjQ1LjE2NzIzNiwxMTQuNjUxNTExIDI0NS4zOTcxNTIsMTE1LjE4Nzk4MiAyNDUuNzAzNzA3LDExNS44MDEwOTIgQzI0NS45MzM2MjMsMTE2LjQxNDIwMiAyNDYuMjQwMTc4LDExNi45NTA2NzMgMjQ2LjQ3MDA5NCwxMTcuNTYzNzgyIEMyNDcuMzg5NzU4LDExOS44NjI5NDQgMjQ4LjMwOTQyMywxMjIuMDg1NDY2IDI0OC45OTkxNzEsMTI0LjE1NDcxMSBDMjUwLjE0ODc1MiwxMjcuNTI2ODE1IDI1MC45OTE3NzgsMTMwLjUxNTcyNCAyNTEuNjgxNTI2LDEzMy4xMjE0NDEgQzI1MS45MTE0NDIsMTM0LjE5NDM4MiAyNTIuOTA3NzQ1LDEzNC44ODQxMzEgMjUzLjk4MDY4NywxMzQuNzMwODUzIEMyNTUuMTMwMjY4LDEzNC42NTQyMTUgMjU1Ljk3MzI5NCwxMzMuNzM0NTUgMjU1Ljk3MzI5NCwxMzIuNTg0OTcgQzI1Ni4wNDk5MzIsMTI5LjgyNTk3NiAyNTUuOTczMjk0LDEyNi41MzA1MTEgMjU1LjU5MDEsMTIyLjc3NTIxNSBaIi8+PC9nPjwvc3ZnPg==;" parent="1" vertex="1">
                    <mxGeometry x="267" y="756.45" width="51.16" height="55.55" as="geometry"/>
                </mxCell>
                <mxCell id="90" value="" style="shape=image;verticalLabelPosition=bottom;labelBackgroundColor=default;verticalAlign=top;aspect=fixed;imageAspect=0;image=data:image/svg+xml,PHN2ZyB4bWxucz0iaHR0cDovL3d3dy53My5vcmcvMjAwMC9zdmciIGZpbGw9Im5vbmUiIHZpZXdCb3g9IjAgMCAyMzkgMTIwLjU0NSIgaGVpZ2h0PSIxMjAuNTQ1IiB3aWR0aD0iMjM5Ij48cGF0aCBmaWxsPSIjMTcxNzFDIiBkPSJNMTUxLjU5MyA4OS41MzM4SDE0My44MDRWMTEyLjAzNUgxMzkuOTA5Vjg5LjUzMzhIMTMyLjEyMVY4NkgxNTEuNTIxVjg5LjUzMzhIMTUxLjU5M1oiLz48cGF0aCBmaWxsPSIjMTcxNzFDIiBkPSJNMTY2Ljk1NCAxMDQuNjc5SDE1Mi44OTFDMTUzLjM5NiAxMDcuNTYzIDE1NS40ODcgMTA5LjAwNiAxNTguMzcyIDEwOS4wMDZDMTYwLjM5MSAxMDkuMDA2IDE2Mi4zMzggMTA4LjA2OCAxNjMuMzQ4IDEwNi40MDlMMTY2LjMwNSAxMDcuODUyQzE2NC43MTggMTEwLjgwOSAxNjEuNTQ1IDExMi4zOTUgMTU4LjIyOCAxMTIuMzk1QzE1My4xMDcgMTEyLjM5NSAxNDkuMTQxIDEwOC42NDUgMTQ5LjE0MSAxMDMuMDJDMTQ5LjE0MSA5Ny4zOTQ3IDE1My4yNTEgOTMuNzg4OCAxNTguMjI4IDkzLjc4ODhDMTYzLjI3NiA5My43ODg4IDE2Ny4wOTggOTcuMzk0NyAxNjcuMDk4IDEwMy4wMkMxNjcuMDI2IDEwMy41OTcgMTY3LjAyNiAxMDQuMTAyIDE2Ni45NTQgMTA0LjY3OVpNMTYzLjM0OCAxMDEuNjVDMTYyLjk4NyA5OC45MDkxIDE2MC45NjggOTcuMzIyNSAxNTguMjI4IDk3LjMyMjVDMTU1LjQ4NyA5Ny4zMjI1IDE1My40NjggOTguNjkyOCAxNTIuOTYzIDEwMS42NUgxNjMuMzQ4WiIvPjxwYXRoIGZpbGw9IiMxNzE3MUMiIGQ9Ik0xOTcuMjQ0IDEwMS45MzhWMTEyLjAzNUgxOTMuNDkzVjEwMi4xNTRDMTkzLjQ5MyA5OS4yNjk3IDE5MS45NzkgOTcuNDY2OCAxODkuNTk5IDk3LjQ2NjhDMTg3LjA3NSA5Ny4zOTQ2IDE4NS40MTYgOTkuMzQxOCAxODUuMiAxMDEuOTM4VjExMi4wMzVIMTgxLjQ1VjEwMi4xNTRDMTgxLjQ1IDk5LjI2OTcgMTc5LjkzNSA5Ny40NjY4IDE3Ny43NzIgOTcuNDY2OEMxNzUuNDY0IDk3LjQ2NjggMTczLjA4NCA5OC45MDkxIDE3My4wODQgMTAyLjUxNVYxMTIuMDM1SDE2OS40MDZWOTQuMzY1N0gxNzMuMDg0Vjk3LjE3ODNDMTczLjg3NyA5NS4xNTkgMTc2LjE4NSA5My45MzMgMTc4LjYzNyA5My45MzNDMTgxLjE2MSA5My45MzMgMTgzLjM5NyA5NS4yMzExIDE4NC40MDYgOTcuNTM4OUMxODUuOTkzIDk0LjUwOTkgMTg4LjczNCA5My45MzMgMTkwLjQ2NCA5My45MzNDMTk0Ljg2NCA5My44NjA5IDE5Ny4yNDQgOTYuODg5OCAxOTcuMjQ0IDEwMS45MzhaIi8+PHBhdGggZmlsbD0iIzE3MTcxQyIgZD0iTTIxOS4wOTUgMTAzLjE2NEMyMTkuMDk1IDEwOC43ODkgMjE1LjEyOSAxMTIuNDY3IDIxMC4yOTcgMTEyLjQ2N0MyMDcuNzczIDExMi40NjcgMjA1LjMyMSAxMTEuMzg2IDIwNC4xNjcgMTA5LjM2NlYxMjAuNTQ1SDIwMC40ODlWOTQuMjkzNkgyMDQuMTY3Vjk2Ljk2MTlDMjA1LjMyMSA5NC45NDI2IDIwNy45MTcgOTMuODYwOSAyMTAuMjk3IDkzLjg2MDlDMjE1LjEyOSA5My44NjA5IDIxOS4wOTUgOTcuNjExIDIxOS4wOTUgMTAzLjE2NFpNMjE1LjQxNyAxMDMuMjM2QzIxNS40MTcgOTkuOTE4OCAyMTIuOTY1IDk3LjM5NDcgMjA5LjkzNiA5Ny4zOTQ3QzIwNi45OCA5Ny4zOTQ3IDIwNC4zMTEgOTkuNzAyNSAyMDQuMzExIDEwMy4yMzZDMjA0LjMxMSAxMDYuNzcgMjA3LjE5NiAxMDkuMDA2IDIwOS45MzYgMTA5LjAwNkMyMTIuOTY1IDEwOS4wMDYgMjE1LjQxNyAxMDYuNTU0IDIxNS40MTcgMTAzLjIzNloiLz48cGF0aCBmaWxsPSIjMTcxNzFDIiBkPSJNMjIwLjM5MyAxMDMuMTY0QzIyMC4zOTMgOTcuNTM4OSAyMjQuNjQ4IDkzLjg2MDkgMjI5LjY5NyA5My44NjA5QzIzNC43NDUgOTMuODYwOSAyMzkgOTcuNTM4OSAyMzkgMTAzLjE2NEMyMzkgMTA4Ljc4OSAyMzQuNzQ1IDExMi40NjcgMjI5LjY5NyAxMTIuNDY3QzIyNC42NDggMTEyLjQ2NyAyMjAuMzkzIDEwOC43ODkgMjIwLjM5MyAxMDMuMTY0Wk0yMzUuMjUgMTAzLjE2NEMyMzUuMjUgOTkuNzc0NiAyMzIuNjU0IDk3LjM5NDcgMjI5LjYyNSA5Ny4zOTQ3QzIyNi41OTYgOTcuMzk0NyAyMjQuMDcxIDk5Ljc3NDYgMjI0LjA3MSAxMDMuMTY0QzIyNC4wNzEgMTA2LjYyNiAyMjYuNTk2IDEwOS4wMDYgMjI5LjYyNSAxMDkuMDA2QzIzMi43MjYgMTA5LjAwNiAyMzUuMjUgMTA2LjYyNiAyMzUuMjUgMTAzLjE2NFoiLz48cGF0aCBmaWxsPSIjMTcxNzFDIiBkPSJNMjUuNjAyIDk5Ljc3NDZDMjUuMzEzNSAxMDYuODQyIDE5Ljc2MDQgMTEyLjM5NSAxMi43NjQ5IDExMi4zOTVDNS40MDg4OCAxMTIuMzk1IDAgMTA2LjQ4MiAwIDk5LjI2OThDMCA5Mi4wNTc5IDUuOTEzNzEgODYuMDcyMSAxMy4xMjU1IDg2LjA3MjFDMTYuMzcwOSA4Ni4wNzIxIDE5LjU0NDEgODcuNDQyNCAyMi4yODQ1IDg5Ljk2NjVMMjAuMTkzMSA5Mi41NjI4QzE4LjEwMTcgOTAuNzU5OCAxNS42NDk3IDg5LjUzMzggMTMuMTk3NiA4OS41MzM4QzcuOTMzIDg5LjUzMzggMy42MDU5MSA5My44NjA5IDMuNjA1OTEgOTkuMTk3N0MzLjYwNTkxIDEwNC42MDcgNy43MTY2NSAxMDguNzg5IDEyLjkwOTIgMTA4Ljc4OUMxNy41OTY5IDEwOC43ODkgMjEuMjc0OSAxMDUuNCAyMS45OTYxIDEwMC45MjhIMTEuMzk0N1Y5Ny44Mjc0SDI1Ljc0NjJMMjUuNjAyIDk5Ljc3NDZaIi8+PHBhdGggZmlsbD0iIzE3MTcxQyIgZD0iTTM3Ljc4OTkgOTguMDQzN0gzNS44NDI4QzMzLjY3OTIgOTguMDQzNyAzMS45NDg0IDk5Ljc3NDYgMzEuOTQ4NCAxMDEuOTM4VjExMi4xNzlIMjguNDg2N1Y5NC43MjYzSDMxLjM3MTRWOTYuMTY4N0MzMi4zMDkgOTUuMjMxMSAzMy44MjM1IDk0LjcyNjMgMzUuNDgyMiA5NC43MjYzSDM5LjIzMjNMMzcuNzg5OSA5OC4wNDM3WiIvPjxwYXRoIGZpbGw9IiMxNzE3MUMiIGQ9Ik01Ni44MjkyIDExMi4xNzlINTMuODcyM1YxMDkuOTQzQzUxLjU2NDYgMTEyLjE3OSA0Ny45NTg2IDExMy4yNjEgNDQuMjgwNiAxMTEuNjc0QzQxLjU0MDEgMTEwLjQ0OCAzOS41MjA4IDEwNy45OTYgMzkuMDE2IDEwNS4wMzlDMzguMDA2MyA5OS40MTQgNDIuMzMzNCA5NC4zNjU3IDQ3Ljg4NjUgOTQuMzY1N0M1MC4xOTQzIDk0LjM2NTcgNTIuMzU3OSA5NS4zMDMzIDUzLjg3MjMgOTYuODE3OFY5NC43MjYzSDU2LjkwMTNMNTYuODI5MiAxMTIuMTc5Wk01My4yOTU0IDEwNC42NzlDNTQuMDg4NyAxMDEuMTQ1IDUxLjQyMDMgOTcuODk5NSA0Ny45NTg2IDk3Ljg5OTVDNDQuOTI5NyA5Ny44OTk1IDQyLjQ3NzYgMTAwLjM1MiA0Mi40Nzc2IDEwMy4zODFDNDIuNDc3NiAxMDYuNzcgNDUuNDM0NSAxMDkuNDM4IDQ4Ljk2ODMgMTA4Ljc4OUM1MC45ODc2IDEwOC41MDEgNTIuNzkwNSAxMDYuODQyIDUzLjI5NTQgMTA0LjY3OVoiLz48cGF0aCBmaWxsPSIjMTcxNzFDIiBkPSJNNjMuODk2OSA5My43MTY2Vjk0LjcyNjNINjkuNDVWOTcuODI3NEg2My44OTY5VjExMi4yNTFINjAuNDM1MlY5My45MzNDNjAuNDM1MiA5MC4xMTA4IDYzLjE3NTcgODcuODAzIDY2LjYzNzQgODcuODAzSDcwLjgyMDJMNjkuNDUgOTEuMTIwNEg2Ni42Mzc0QzY1LjEyMjkgOTAuOTc2MiA2My44OTY5IDkyLjIwMjIgNjMuODk2OSA5My43MTY2WiIvPjxwYXRoIGZpbGw9IiMxNzE3MUMiIGQ9Ik04Ny45ODQzIDExMi4xNzlIODUuMDI3NVYxMDkuOTQzQzgyLjcxOTcgMTEyLjE3OSA3OS4xMTM4IDExMy4yNjEgNzUuNDM1OCAxMTEuNjc0QzcyLjY5NTMgMTEwLjQ0OCA3MC42NzU5IDEwNy45OTYgNzAuMTcxMSAxMDUuMDM5QzY5LjE2MTUgOTkuNDE0IDczLjQ4ODYgOTQuMzY1NyA3OS4wNDE3IDk0LjM2NTdDODEuMzQ5NSA5NC4zNjU3IDgzLjUxMyA5NS4zMDMzIDg1LjAyNzUgOTYuODE3OFY5NC43MjYzSDg4LjA1NjVMODcuOTg0MyAxMTIuMTc5Wk04NC4zNzg0IDEwNC42NzlDODUuMTcxNyAxMDEuMTQ1IDgyLjUwMzQgOTcuODk5NSA3OS4wNDE3IDk3Ljg5OTVDNzYuMDEyNyA5Ny44OTk1IDczLjU2MDcgMTAwLjM1MiA3My41NjA3IDEwMy4zODFDNzMuNTYwNyAxMDYuNzcgNzYuNTE3NSAxMDkuNDM4IDgwLjA1MTMgMTA4Ljc4OUM4Mi4xNDI4IDEwOC41MDEgODMuODczNiAxMDYuODQyIDg0LjM3ODQgMTA0LjY3OVoiLz48cGF0aCBmaWxsPSIjMTcxNzFDIiBkPSJNMTA2LjY2MyAxMDEuNzk0VjExMi4xMDdIMTAzLjEyOVYxMDEuNzk0QzEwMy4xMjkgOTkuNjMwMyAxMDEuMzI2IDk3Ljg5OTUgOTkuMjM0OCA5Ny44OTk1Qzk2Ljk5OTIgOTcuODk5NSA5NS4yNjgzIDk5LjYzMDMgOTUuMjY4MyAxMDEuNzk0VjExMi4xMDdIOTEuODA2NlY5NC43MjYzSDk0LjY5MTRWOTYuMjQwOEM5NS45MTc0IDk1LjA4NjkgOTcuNjQ4MiA5NC40Mzc4IDk5LjM3OTEgOTQuNDM3OEMxMDMuNDE4IDk0LjQzNzggMTA2LjY2MyA5Ny43NTUzIDEwNi42NjMgMTAxLjc5NFoiLz48cGF0aCBmaWxsPSIjMTcxNzFDIiBkPSJNMTI3LjIxNyAxMTIuMTc5SDEyNC4yNlYxMDkuOTQzQzEyMS45NTIgMTEyLjE3OSAxMTguMzQ2IDExMy4yNjEgMTE0LjY2OCAxMTEuNjc0QzExMS45MjggMTEwLjQ0OCAxMDkuOTA4IDEwNy45OTYgMTA5LjQwMyAxMDUuMDM5QzEwOC4zOTQgOTkuNDE0IDExMi43MjEgOTQuMzY1NyAxMTguMjc0IDk0LjM2NTdDMTIwLjU4MiA5NC4zNjU3IDEyMi43NDUgOTUuMzAzMyAxMjQuMjYgOTYuODE3OFY5NC43MjYzSDEyNy4yODlMMTI3LjIxNyAxMTIuMTc5Wk0xMjMuNjExIDEwNC42NzlDMTI0LjQwNCAxMDEuMTQ1IDEyMS43MzYgOTcuODk5NSAxMTguMjc0IDk3Ljg5OTVDMTE1LjI0NSA5Ny44OTk1IDExMi43OTMgMTAwLjM1MiAxMTIuNzkzIDEwMy4zODFDMTEyLjc5MyAxMDYuNzcgMTE1Ljc1IDEwOS40MzggMTE5LjI4NCAxMDguNzg5QzEyMS4zNzUgMTA4LjUwMSAxMjMuMTA2IDEwNi44NDIgMTIzLjYxMSAxMDQuNjc5WiIvPjxwYXRoIGZpbGw9InVybCgjYSkiIGQ9Ik03OS4yMzgyIDE3LjY5MjNINzcuNjk2MkM3Ni43NzEgMTcuNjkyMyA3NiAxOC40NjE2IDc2IDE5LjM4NDdDNzYgMjAuMzA3NyA3Ni43NzEgMjEuMDc2OSA3Ny42OTYyIDIxLjA3NjlINzkuMjM4MkM4MC4xNjM0IDIxLjA3NjkgODAuOTM0NCAyMC4zMDc3IDgwLjkzNDQgMTkuMzg0N0M4MC45MzQ0IDE4LjQ2MTYgODAuMTYzNCAxNy42OTIzIDc5LjIzODIgMTcuNjkyM1pNMTEwLjIzMiA0Mi4wMDAxSDEwOC42OUMxMDcuNzY1IDQyLjAwMDEgMTA2Ljk5NCA0Mi43NjkzIDEwNi45OTQgNDMuNjkyM0MxMDYuOTk0IDQ0LjYxNTQgMTA3Ljc2NSA0NS4zODQ2IDEwOC42OSA0NS4zODQ2SDExMC4yMzJDMTExLjE1NyA0NS4zODQ2IDExMS45MjggNDQuNjE1NCAxMTEuOTI4IDQzLjY5MjNDMTExLjc3NCA0Mi43NjkzIDExMS4xNTcgNDIuMDAwMSAxMTAuMjMyIDQyLjAwMDFaTTEwOC44NDQgMjZDMTA4Ljg0NCAyNS4wNzcgMTA4LjA3MyAyNC4zMDc4IDEwNy4xNDggMjQuMzA3OEgxMDEuNTk3QzEwMC42NzIgMjQuMzA3OCA5OS45MDA3IDI1LjA3NyA5OS45MDA3IDI2Qzk5LjkwMDcgMjYuOTIzMSAxMDAuNjcyIDI3LjY5MjMgMTAxLjU5NyAyNy42OTIzSDEwNy4xNDhDMTA4LjA3MyAyNy42OTIzIDEwOC44NDQgMjYuOTIzMSAxMDguODQ0IDI2Wk0xNjEuODg5IDE1LjUzODVMMTYwLjE5MiA2LjAwMDA0QzE1OS40MjEgMi4xNTM4OCAxNTYuNjQ2IDAgMTUyLjk0NSAwSDg3LjI1NjVDODQuMzI2NyAwIDgyLjMyMjIgMi40NjE1NCA4Mi43ODQ4IDUuMzg0NjJMODQuNjM1MSAxNS41Mzg1Qzg0LjYzNTEgMTUuNjkyNCA4NC42MzUxIDE1LjY5MjQgODQuNjM1MSAxNS44NDYyQzg0Ljc4OTMgMTcuMDc3IDg0LjE3MjUgMTcuNTM4NSA4My43MDk5IDE3LjY5MjNDODMuMDkzMSAxOCA4Mi42MzA2IDE4LjQ2MTUgODIuNjMwNiAxOS4yMzA4QzgyLjYzMDYgMjAuMTUzOCA4My40MDE2IDIwLjkyMzEgODQuMzI2NyAyMC45MjMxSDE1Ny40MTdDMTYwLjUwMSAyMS4wNzcgMTYyLjUwNSAxOC42MTU0IDE2MS44ODkgMTUuNTM4NVpNMTM5LjY4NCA1My44NDYyQzEzOC45MTMgNTAuMTUzOCAxMzYuOTA4IDQ4Ljc2OTMgMTM0LjQ0MSA0OC43NjkzSDExNy4zMjVIMTE3LjAxN0MxMTYuMDkyIDQ4Ljc2OTMgMTE1LjMyMSA0OS41Mzg1IDExNS4zMjEgNTAuNDYxNkMxMTUuMzIxIDUxLjM4NDcgMTE1LjkzNyA1MiAxMTYuODYzIDUyLjE1MzlDMTE3LjQ3OSA1Mi4zMDc3IDExNy45NDIgNTIuOTIzMSAxMTguNDA1IDU0Ljc2OTNMMTIwLjI1NSA2NC42MTU0QzEyMC43MTggNjcuNTM4NSAxMjMuNjQ3IDcwIDEyNi43MzEgNzBIMTM3LjA2M0MxNDAuMTQ3IDcwIDE0Mi4xNTEgNjcuNTM4NSAxNDEuNjg5IDY0LjYxNTRMMTM5LjY4NCA1My44NDYyWk0xMTYuNzA4IDQ1LjUzODVIMTM1LjUyMUMxMzUuNjc1IDQ1LjUzODUgMTM1LjgyOSA0NS41Mzg1IDEzNS45ODMgNDUuNTM4NUMxMzcuNjc5IDQ1LjIzMDggMTM3LjgzNCA0My42OTIzIDEzNy41MjUgNDIuMzA3N0wxMzUuMDU4IDI5LjIzMDhDMTM0LjQ0MSAyNS44NDYyIDEzMi40MzcgMjQuNDYxNiAxMjkuODE1IDI0LjQ2MTZIMTEyLjg1M0gxMTIuNTQ1QzExMS42MiAyNC40NjE2IDExMC44NDkgMjUuMjMwOCAxMTAuODQ5IDI2LjE1MzhDMTEwLjg0OSAyNy4wNzY5IDExMS40NjYgMjcuNjkyNCAxMTIuMzkxIDI3Ljg0NjJDMTEzLjAwOCAyOC4wMDAxIDExMy42MjQgMjguNzY5MyAxMTMuOTMzIDMwLjYxNTRMMTE1Ljc4MyA0MC42MTU0QzExNS45MzcgNDEuNTM4NSAxMTUuMzIxIDQyIDExNC43MDQgNDIuMzA3N0MxMTQuMDg3IDQyLjQ2MTUgMTEzLjYyNCA0My4wNzY5IDExMy42MjQgNDMuODQ2MkMxMTMuNjI0IDQ0Ljc2OTIgMTE0LjM5NSA0NS41Mzg1IDExNS4zMjEgNDUuNTM4NUgxMTYuNzA4WiIvPjxkZWZzPjxsaW5lYXJHcmFkaWVudCBncmFkaWVudFVuaXRzPSJ1c2VyU3BhY2VPblVzZSIgeTI9IjQwLjMyMSIgeDI9Ijk1LjE2NSIgeTE9IjkuNDQ2IiB4MT0iMTk1LjA0NyIgaWQ9ImEiPjxzdG9wIHN0b3AtY29sb3I9IiNGRkYxMDAiLz48c3RvcCBzdG9wLWNvbG9yPSIjRjA1QTI4IiBvZmZzZXQ9IjEiLz48L2xpbmVhckdyYWRpZW50PjwvZGVmcz48L3N2Zz4=;clipPath=inset(0% 27.41% 30.17% 30.75%);" parent="1" vertex="1">
                    <mxGeometry x="428" y="451.5" width="67.46" height="57" as="geometry"/>
                </mxCell>
                <mxCell id="92" value="" style="shape=image;verticalLabelPosition=bottom;labelBackgroundColor=default;verticalAlign=top;aspect=fixed;imageAspect=0;image=data:image/png,iVBORw0KGgoAAAANSUhEUgAABdYAAAXoCAYAAACw/JkWAAAACXBIWXMAACxKAAAsSgF3enRNAAAgAElEQVR4nOzd3XUT2bo27Ht9CdARFLwRmB0B3hHgHYHFWZ3hjgB1BKjPdIYcwTIRtBzBsiNYtiJoRcB3MOUWdAP+kzTr57rG8IDVC8w9RtN21V1PPfNfX758CQAAB9A2x/f8itdJftljguUDfs1V5qs/95gBAACg9/6lWAcAuMe3hfirzceP/ndSCvIXe0xUwzrJ1d/+2Z/f+WdXm3++/d+KegAAYGAU6wDA+LTN15Phx5sff0kpxO9+fnTgVGNx+dXPvy7hbzYf5efz1U0AAAA6SrEOAAxH23xdjh9vfrwr0ZXl/XSdbfm+3Px4k7sSfr5aBgAA4MAU6wBAf2yL8+/9qDQft7sC/uv1NMskyncAAGDnFOsAQLdsy/O7wvx48/+8qRWJwbgr36/+8aM98AAAwCMo1gGAOsqBoH8v0ZXn1HS3/32ZbfFu3zsAAPAPinUAYL9Kgf5q83H385e14sAT3U27L6N0BwCA0VOsAwC70Tavsi3PX29+bu85Y3CZ7YGqd4X71c9+AwAA0G+KdQDg8drmbn3L1x8vqmaC7rnOtmxXuAMAwIAo1gGAn/tniW4POjzP14X7MlbKAABA7yjWAYCtss7lrkA/jhIdDmWd7WT73XT7smoiAADghxTrADBm5WDRuxL9dRwqCl1zna8Ld2U7AAB0gmIdAMaibX5JKdCPY6UL9JmyHQAAKlOsA8BQlbUux9kW6UcV0wD7pWwHAIADUqwDwFB8W6Qfx1oXGLvLbMv2pQNSAQBgdxTrANBXZbXLSRTpwMOskyyzLdqXVdMAAECPKdYBoE/a5usi3WoX4LmuU8r2ZcoKmZuaYQAAoC8U6wDQZW3zOqVEP4nDRoH9u823RftV1TQAANBRinUA6JJv17ucJHlRNQ8wdnfrY8qHoh0AAJIo1gGgvjKVfrL5sN4F6DJFOwAARLEOAIdXptKPs51Md+go0FeKdgAARkmxDgCH0Davsi3T31bNArA/d0X7RUrRflM1DQAA7IliHQD2pZTpJ0kmseIFGKevD0O9yHz1Z9U0AACwI4p1ANilsi99klKoW/EC8K3rbEv2Zd0oAADwdIp1AHguZTrAU33Otmi/qRsFAAAeTrEOAE+hTAfYtdtsd7Nf1A4DAAA/o1gHgIdSpgMckml2AAA6S7EOAD9TDiA9izIdoKa7aXa72QEA6ATFOgD8XSnTT1Km04+qZgHg79a5m2QvRfufdeMAADBGinUASJK2+SWlTD9J8rZyGgAe7jLbkv2mchYAAEZCsQ7AuLXNXZl+WjsKAM92tzJmkfnqqnYYAACGS7EOwPjYmw4wBrfZHn56UTkLAAADo1gHYBy2q17OYm86wNiss10Xo2QHAODZFOsADFvbHKccQmrVCwCJw08BANgBxToAw1Om0ycp0+lWvQDwM5+jZAcA4JEU6wAMh+l0AJ5HyQ4AwIMo1gHoN9PpAOyHkh0AgB9SrAPQT6bTATgMB58CAPAPinUA+qNMp58kmcZ0OgCHp2QHACCJYh2APmibVymrXiZJXlTNAgDFbUrJvsh8dVU7DAAAh6VYB6C72uYkpVB/UzsKAPzEbZJFSsl+UzcKAACHoFgHoFusewGg366TzOLQUwCAQVOsA9AN1r0AMDyfU6bY7WMHABgYxToAdbXNcUqZflo3CADszd2hpzP72AEAhkGxDkAd9qcDME632a6KuamcBQCAJ1KsA3BYbTOJ/ekAkJRVMReZrxa1gwAA8DiKdQD2rxxIerb5sD8dAL61TrJI2cduVQwAQA8o1gHYHweSAsBjXWe7KubP2mEAAPg+xToAu1cK9WkcSAoAT3V34Oki89WychYAAP5GsQ7A7ijUAWAf7g48XZhiBwDoBsU6AM/XNscphfqbukEAYPDOY4odAKA6xToAT6dQB4BaTLEDAFSkWAfg8RTqANAl50lmma+uagcBABgLxToAD6dQB4Auu06ZYr8wxQ4AsF+KdQDup1AHgD5ZJ1mkTLHf1I0CADBMinUAfkyhDgB9d5lSsF/UDgIAMCSKdQD+qW1ep7xKrlAHgGG4zXaK3ZoYAIBnUqwDsNU2r1Im1E/rBgEA9shhpwAAz6RYB0ChDgDjdJlkkflqUTsIAEDfKNYBxqxtfkkp1N9XTgIA1HObsgJuYU0MAMDDKNYBxqgU6mebjxeV0wAA3bBOcpFkmvnqpnIWAIBOU6wDjE3bTFKm0hTqAMCPfE7Zw76sHQQAoIsU6wBj0TYnKYX6y9pRAIDeuE4p2Be1gwAAdIliHWDo2uY4ZY/6m7pBAIAeu02ySCnZ7WEHAEZPsQ4wVG3zKmVC/W3lJADAcNjDDgAQxTrA8GwPJv1QOwoAMGjnKRPsV7WDAAAcmmIdYEja5ixl7YuDSQGAQ7lMmWBf1g4CAHAoinWAISh71BdxMCkAUI+DTgGA0VCsA/RZ2aO+iINJAYDuuE2ZYF/UDgIAsC+KdYA+KnvUp0neV04CAPAj65SD1GeZr/6sHQYAYJcU6wB90zaTlJtUe9QBgD5QsAMAg6NYB+iLskd9GmtfAIB+Wie5SFkTc1M5CwDAsyjWAbqurH2ZJTmtHQUAYEfOo2AHAHpMsQ7QZW1zljKlbu0LADBECnYAoJcU6wBdVNa+zJIcVU4CAHAICnYAoFcU6wBdUta+TJO8r5wEAKCGy5SCfVk7CADAzyjWAbqibSYpU+rWvgAAY6dgBwA6TbEOUFvbvEqySPKmbhAAgM5RsAMAnaRYB6ipbaZJPtSOAQDQcQp2AKBTFOsANZTDSRdJXtYNAgDQKwp2AKATFOsAh1QOJ50lOa0dBQCgxz4nOct8dVM7CAAwTop1gENpm5OUKXWHkwIA7MZ5ygT7Te0gAMC4KNYB9s3hpAAA+6ZgBwAOSrEOsE9tc5ZkGlPqAACHoGAHAA5CsQ6wD6bUAQBq+i3JLPPVn7WDAADDpFgH2LW2mSY5iyl1AICa1imHxivYAYCdU6wD7ErbvE6ZUj+qnATov+skuyyBXsfDPmC8SsE+X01rBwEAhkOxDrALZUr9Q+0YQBV/L8GXf/v/r/LPkvymc/t/y8PBX77z/3zvnx9/59co7oGuu03Zv76oHQQA6D/FOsBzmFKHIVqnlOHJt6X48q9fMV8tw4+1zfFX/+vrYv7V5uPunyvjgRpuk5xlvrqoHQQA6C/FOsBTmVKHvrrc/Ljc/HhXnndvinwsttPyv6QU7sm2kP8lHl4C+3GZMsG+rB0EAOgfxTrAY7XNq5Qp9Td1gwA/cLeaZbn53+VHxUn/bSfh70r3ux9fJXlZJxQwAJdJJh6uAgCPoVgHeIy2OUsyjfUFUNvdupa7afNlTJxTHnx+/fF1Ae/rNnCf85QJ9pvaQQCA7lOsAzyEKXWo5a5AXya5SSnPlxXz0Gdl4v2uaH+VbfmudAfurJPMkswyX/394GkAgL8o1gHu0zYnKaW64gX26zKlPL/660OpwaGU0v1VtmX7q9jtDmO2Tplen9UOAgB0k2Id4Efa5peUQv1t5SQwRJf5tkC/qpwHvq8crPoqpWxXuMP43CY5y3x1UTsIANAtinWA7ymTi4s4DA924TpllYsSneH4tnA/jgNUYeguUybYl7WDAADdoFgH+Lu2mSV5XzsG9NRttjvRrxQQjEp50+n13z5Mt8OwOOAUAEiiWAfYKtOHiyhB4DG+nkZfKhrgO7b72+/KdgdhQ7854BQAUKwDJEna5izJNA4ohfvcFenlQ6EAT1Me5t59HMdDXeij25Tp9UXtIADA4SnWgXFzQCncZ1ukO7gN9qtMtn9dttvZDv1wnXLA6bJ2EADgcBTrwHiVAuMiptThaybSoSvKw9/jbIt2K2Sg2z6nFOw3tYMAAPunWAfGqW2mST7UjgEdsE55wLSMHenQfWWFzHFMtUNX2b8OACOhWAfGpW1epZSIdtkyZtcp/x1cZL66qh0GeIbyfe04drVD19i/DgADp1gHxqNtTlL2qVv9wth8PZV+YYIOBmy7PubuQ9EOdV2mrIfxIBsABkaxDoxD28ySvK8dAw7oNtup9GXlLEAtinboivOUgt3DbQAYCMU6MGxWvzAu1ylvZVzYlQ58l6IdalqnrIeZ1Q4CADyfYh0YLqtfGIfPuVvzokwHHmu7o/3uw2GosH/XKdPry9pBAICnU6wDw2T1C8N2V6bblw7sVtvcHYJ69+HhNOzP55SC/aZ2EADg8RTrwLBY/cJwKdOBw2ub4yQnsTYG9mWdZJb5alo7CADwOIp1YDisfmF4lOlAd3y7NuYkvt/CLt0mmVgPAwD9oVgHhqFtpkk+1I4BO+AAUqAfTLPDPlgPAwA9oVgH+q1tfkmZ6H1TOwo8w21Kmb5wIw300naa/STJ26pZoP/WSaaZr2a1gwAAP6ZYB/qrHLC2jFfR6ad1ykOhWearq9phAHaqrGe7m2Z/WTcM9NZ1yvT6snYQAOCfFOtAP7XNWZKPtWPAE5S96fPVonYQgIMoD8InsTIGnuo8pWB33goAdIhiHeiXsvplluS0dhR4BKteAJK7lTEnKUW7kh0ebp1Sri9qBwEACsU60B/lZvwibsTpj/OUMn1ZOwhA59jLDk9xmVKwWyMHAJUp1oF+aJvjlFLdPnW67jblrYqFV7YBHqi8kXa3l13JDvf7LeWcFtcaAFCJYh3oPvvU6QfT6QC7oGSHh7pNMnHtAQB1KNaB7rJPne4znQ6wT0p2eIjPKQW7axEAOCDFOtBN9qnTbZcpr19f1A4CMBpKdviZdZJp5qtZ7SAAMBaKdaB77FOnm9ZJFimF+k3dKAAjty3ZJ0ne1A0DnXKZMr1+UzsIAAydYh3olraZJPlUOwZ85TbJNMmFV6wBOqi85XZXsnvTDYrfMl9Na4cAgCFTrAPd0TaL2KdOd1j3AtA3pWQ/SynaX9YNA9VdJzlzuCkA7IdiHaivvM69jCkzuuE8pVC/qh0EgGdom9fZluzWyzFmv6fsX/fmHQDskGIdqKvc9F7EVBl1rZPMkizsJAUYoLa5WxXj0FPG6jZl9/qydhAAGArFOlBPucldxBQZ9dxmW6ib4gIYuvKW3CT2sTNen1MKdtc9APBMinWgjrY5S/KxdgxGqxxIOl8tagcBoJLy1txk8+EhP2OyTinXnSMDAM+gWAcOzyGl1ONAUgD+yaoYxsn0OgA8g2IdOJzy+vVFkje1ozA6lykT6svaQQDosLZ5lXLY6Vmc/8I4mF4HgCdSrAOHUV63XsQ+Uw5LoQ7A07TNccoUu7fsGIPLlIL9pnYQAOgLxTqwf6VUX8b+Ug5HoQ7AbpQ37u6m2A0IMGTrlOunWe0gANAHinVgv9pmkuRT7RiMhkIdgP0pwwJnKUW7gQGGyvQ6ADyAYh3Yn7Y5S/KxdgxGQaEOwOFsp9insYudYTK9DgD3UKwD+9E2i9hJyv4p1AGoyy52hs30OgD8gGId2K0ywXWR5E3tKAyaQh2AbinXQJOUVTGm2BmSdUq5flE7CAB0iWId2J1yQ7mMg73YH4U6AN3XNicpJfvbyklglz6nFOx/1g4CAF2gWAd2oxzmtYyDvNiP2yRnJqUA6JW2eZUywT6JaySGwfQ6AGwo1oHnU6qzP7cpE+qL2kEA4MkcdsrwmF4HYPQU68DztM0kyafaMRicdZJZkpkbNgAGpRx2ehZrYui/dZITK/oAGCvFOvB0SnX247co1AEYOmtiGI7fU94wdO0GwKgo1oGnaZtFktPaMRiU85SbspvaQQDgYMqamElKyW5NDH11m7IaZlk7CAAcimIdeDylOrt1mVKoL2sHAYCq2uYkpWB/UzsKPNFvma+mtUMAwCEo1oGHKxNVi9gJym7cJjnLfHVROwgAdEo5GP4sBhnop+uU6fWr2kEAYJ8U68DDlFJ9meSochL6rxxMapoJAH7OHnb6a53yRuKsdhAA2BfFOnA/pTq7c54ype5wKwB4qHItdlew28NOn1wmOXHtB8AQKdaBnyuvIi9jSornsUcdAHahbSZJplGw0x/rlNUw1v8BMCiKdeDHlOo83zplQn1ROwgADIqDTukfby4CMCiKdeD7lOo8328pu9TdPAHAvrTNccoEu4KdPrhNWQ3jYFMAek+xDvxTecV4FqU6T3OZ8rrvTe0gADAa5aDTaZLTukHgQX5zkD0AfadYB75VSvVPtWPQS/ZnAkBtCnb6wzAGAL2mWAe2lOo83e8ph5Na+wIAXVAK9knKHnZvIdJVBjMA6C3FOlAo1Xmay5RDqOzJBIAuaptfUsp1BTtd5mBTAHpHsQ4kbTNL8r52DHplnTKhPqsdBAB4AAU73XedMr1uYAOAXlCsw9i1zSJ2cPI4n1NuekwUAUDfKNjpvl8NbwDQB4p1GDOlOo9zm1KoL2sHAQCeScFOtxnkAKDzFOswVkp1HsfhpAAwRAp2umud5MRQBwBdpViHMVKq83DXKQdJLWsHAQD2SMFOd/2W+WpaOwQA/J1iHcZGqc7DuYkBgLFRsNNNlynT696eBKAzFOswFuUmaRalOve7TtlpeVU7CABQiYKd7lmnXKNe1A4CAIliHcah3BgtkxxVTkL3mVIHALYU7HTP75mvzmqHAADFOgydUp2HMaUOAPyYgp1uuU5ZDXNTOwgA46VYhyFTqvMwptQBgIexXpDusBoGgKoU6zBUSnXuZ0odAHiatnmVZBoFO/VZDQNAFYp1GCKlOvczpQ4APF8p2GdJ3lZOwrhZDQPAwSnWYWiU6vycKXUAYPfa5jhlgv1N3SCM2DqlXF/WDgLAOCjWYUiU6vyc12QBgP0qBfssrkepx5uZAByEYh2GQqnOj92mTKkvawcBAEaibSYpE+wv6wZhpC5Tptf/rB0EgOFSrMMQKNX5sc8ppbqbCgDg8NrmLKVgf1E5CeNjNQwAe6VYh75TqvN965RC/aJ2EABg5Mr16tnmQ8HOof2a+WpWOwQAw6NYh75rm2UcEsW3LlNK9ZvaQQAA/tI2r1Km10/rBmGEvMUJwM4p1qHP2mYRNyZ8y2FNAEC3tc3rlANODYdwSNcp5fpV7SAADINiHfpKqc63HFAKAPRL2xwnWcQBpxzOOslZ5qtF7SAA9J9iHfpIqc63vNoKAPRX20xSJtjtX+dQfs98dVY7BAD9pliHvlGqs7VOMnUYEwDQe9sDTj/UjsJoXCc5NpwCwFMp1qFPlOps2REJAAyPA045rHWSE+sUAXgKxTr0hVKdrfOU3ZCmawCAYSr716dxwCmH8au3QAF4LMU69EHbnCX5WDsG1TlsCQAYF/vXORzDKwA8imIduq7cTHyqHYPqrH4BAMbJ/nUO5zplNcxN7SAAdJ9iHbpMqU5hegYAoOxfnyV5WzkJw7ZOGWi5qB0EgG5TrENXKdUp3ln9AgDwlbJ/fZHkZd0gDNxvma+mtUMA0F2KdeiitjlJ8u/aMajqNuU1VKtfAAC+p5xDNI396+zP55TpdW+OAvAPinXomrZ5nWQZNwhj5gIeAOAhyv71WZLT2lEYLGcdAfBdinXoEqU6XjkFAHi8sh5mluSochKGaZ3yNumydhAAukOxDl2hVB87hyQBADyX9TDs16+Zr2a1QwDQDYp16ILyCusyJmzG6jplAuamdhAAgN6zHob9Ok9yZm0jAIp1qE2pPnYuzOGQytfc1/f8quMd/6lXSX723/if9rYC7IH1MOyPwRgAFOtQlVJ97LxKCo/RNq+SvPrqnxx/9fPvFeav0+9VALdJbv72z/5e0i+/+vmNG3yA77Aehv1YJzn2cBxgvBTrUFPbLOIV1TFy+BHcKedL/JJvi/FX2RbofS/Ha1mnlPBJKeLvfn6Tu7Le1yBgTMpAyyLJ28pJGJ53ma8WtUMAcHiKdahFqT5WXhtlPLal+d2PrzYfv8SbOl3y9WT8cvPj3WT8lVVVwKCU9TCLJC/rBmFgzjNfTWqHAOCwFOtQQ9vMkryvHYOD+5xkoqRiMLarWe4+vi7STZkPy135fveheAf6rW2mST7UjsGgXKYM0Pi+CDASinU4tLaZJPlUOwYH91vmq2ntEPBo28M+70rz45g4558us105c5O78l25AHRZeUC8SPKmbhAG5DalXLd3HWAEFOtwSEr1MVonObN3kc7bTp8f59sJdJPnPNdltmX7MsmfCgegU8o1+iy+57Eb65S3VC9qBwFgvxTrcChl1/AyLtjHZJ3kWIFEp3w7gf5q86NJPWq4znatTPlw/gRQS/n+OIszkNid3zNfndUOAcD+KNbhEJTqY3SdUqpbg0A9ZQr9rkQ/TinSHdZG191NuN+V7cuqaYBxcbgpu3We8vaqewKAAVKsw76V6ZeruDgfExfQHN4/S3RrXBiS22wn25exvx3YN4ebsjsGbgAGSrEO+1RK9WUc8jcmDill/7brXI6jRGe8lO3AfpW3TmexMo3nsyISYIAU67BPbbOMC/ExeeeQUvai3Nh/PYnuYR18323uSnZrZIBdaZuzJNN4iM3zONQUYGAU67AvbbOIw4/GwgQKu1X2u959mEaH57nMt1PtN1XTAP1UVq4tYmiG5/s189WsdggAnk+xDvtgJ+OYXKdMnijVeZp/rnVxww779fVU+9LXb+BR2uYkpWD30JvnOM98NakdAoDnUazDrrXNJMmn2jE4CAcR8TTbifSTWOsCta1TivbyoWgH7lMeii+SvK2chH5zLwHQc4p12KWyB/k/tWNwEOdJzlwI8yDfrnYxkQ7dpmgHHsb0Os/n7VeAHlOsw66UUn0ZF9Zj4NVNfq7sYT3Jtkz3dQH6S9EO/FiZXp/F2Uo8nfOaAHpKsQ67UC6or5K8rB2FvXuX+WpROwQdU74GHGe73sXXAhiudZKLbIv2m6ppgG4ob6ct4hqAp3OfAdAzinV4rlKoLWNP8tCtU1a/LGoHoSO+nUq3YxXG6zZ3Rft8dVE7DFBRuS+YJnlfOQn99Vvmq2ntEAA8jGIdnqttFvHq59B5PZOiTKOdxFQ68GOX2Rbtvm/AGJle53msnQToCcU6PEfbTJN8qB2DvVKqj1mZPLubSj+JXenA45hmh7Eyvc7zXKfcg/xZOwgAP6ZYh6dqm0mST7VjsFcuaMeorHg5TinSrXgBdulztkX7TeUswCGYXufprpNMDPgAdJdiHZ6ibV4n+U/tGOyVUn1MtvvSJ3FeAnAY1ykl+4XSBAauTK/PYn0kj+ftWYAOU6zDY5UC7ipWQgzZecpBpUr1IVOmA91xtzLmIvPVsnIWYF/a5iRlet19BI+xTrk3WdQOAsC3FOvwGGXaZBkl3JA5LGjIlOlA962zLdntZYehKfcTi1g3x+O9U64DdItiHR6jbS7iInjIlOpDVG5gJ1GmA/2jZIehMr3O07hfAegQxTo8VNvMkryvHYO9MQEyJKVMP4kDSIHhULLD0JTrlYskb2pHoVesrQToCMU6PETbTJJ8qh2DvVGqD0WZ/jqJw8GAYVOyw5C0zVmSaUyv83DXKYeaKtcBKlKsw33a5nWS/9SOwd4o1fuu/Dc62Xy4IQXGRskOQ1DOgbmItXU83HWSSearq9pBAMZKsQ4/Uy5wr6KsG6J1yoWoEqKP7E0H+J51ys7mhaIFeqptpkk+1I5Bb6xTJtd9zQeoQLEOP1KKu2WUdkPkArSvyqqXSexNB7jPbbYl+03dKMCjlLfxLpK8rB2FXjAwBFCJYh1+pG0Wsad5iJTqfVPeHDmLVS8AT3WdZJayLsY+XuiDMuQzTfK+chL6w4pLgANTrMP3lAOEPtaOwc4p1fukHBo8SfKmbhCAQfmcMsVushH6oLytt4jhAh7mt8xX09ohAMZCsQ5/Vy5e/107BjunVO8D0+kAh3K3j31mVQx0XJlev4hhAx7mPPPVpHYIgDFQrMPXyj7DZRR6Q3Ob5ESp3mGm0wFqsioG+sBbtTzceZIzX9MB9kuxDnccVjpU1ymT6i4qu6ZMp082Hw7nAqhvnTIVu8h8taycBfieMgi0iHsW7uc+CGDPFOtwp20ukrytHYOdcjHZRW1znFKmOxwYoLtuU6bYF76PQsc42JSHcz8EsEeKdUiStpkm+VA7BjvlIrJryrqXs5iwAuib85hih+5xsCkP46wpgD1RrIPDSodIqd4V23UvZ3HTB9B3tylTsnaxQ1eUa61FnFPDzynXAfZAsc64Oax0iJTqXVD+2zqLdS8AQ3S3i32mpIGO8AYu91snmWS+uqgdBGAoFOuMl8NKh0ipXlt5A+QspqYAxuIyZU3MonYQGL1yjs0iDoXn5975mg2wG4p1xqttFjFNOyRK9ZrK/vRp3MgBjNVtSqG3yHx1UzcKjFgZHlokeVs5Cd2mXAfYAcU649Q2Z0k+1o7BzijVayg3bmexPx2Ab53Hmhioy/0O9/s989VZ7RAAfaZYZ3zKK5J/1I7BzijVD82BpAA8jDUxUFM58+Yi3ijkx84zX01qhwDoK8U641ImbG+iDBwKpfohlUJ9GiuUAHicuzUxM9+z4cCshuF+ynWAJ1KsMy5tcxWHlQ6FUv1QFOoA7MY624L9pm4UGJlyHs4sBoz4vsskJ+6tAB5Hsc54tM0syfvaMdgJpfohlLVJZzHhBMDunaesiVnWDgKjUVbDLGLQiO9zjwXwSIp1xqFMaHyqHYOdcMG3b6VQnyZ5UzcIACNwmTLBflE7CIxCWQ0zizcR+T73WgCPoFhn+MpkxjJeexyCdZLXXh/fE4U6APXcJpk66BQOpG3OknysHYNOuk5ZC3NTOwhA1ynWGbYykbGM1x2HYJ0yPXFVO8jgKNQB6I7blGnahYlJ2LMygHSR5GXtKHSOey+AB1CsM2xts4jXHIfAhd0+KNQB6K51SsE+U7DDHpVBpEWcqcM/uQcDuIdineGyV30oXNDtWtu8SrmBUqgD0HUKdjgEq2H4PvdiAD+hWGeY7FUfChdyu1QK9Wm8xQFA/6xTVlZM7f2FPXEPxfetU3auL2sHAegaxTrDUx9J2X8AACAASURBVF5nvIpdgUPwP0r1HVCoAzAs51Gww36Ue6mLeLORf3rngGmAbynWGZ62uYgdgUPgwu25yo3RWZIPtaMAwB4o2GFf2maW5H3tGHSOezSAryjWGRa7AYfCBdtzbAv1s3iVF4DhU7DDPrTNScq5PK4n+Zp7NYANxTrDUXYC/qd2DJ7NhdpzlEN7p7EKCYDxUbDDrpV7rEWSo8pJ6Bb3bABRrDMU9qoPxa+Zr2a1Q/RS2xyn3PT4bwCAsVOwwy6Ve61ZnNfDt9y7AaOnWGcY7FUfgvPMV5PaIXqnTBHN4oApAPi731MK9j9rB4FBsHaTf3IPB4yaYp3+K6svPtWOwbO4IHustnmVsvLF5BAA/Ng65QH0TMEOO1CGOpaxd50t93LAaCnW6TcXdkPwOfPVSe0QveFgUgB4CgU77Eq5Hl3G3nW2lOvAKCnW6S8XdENwneTYDe4DOZgUAJ5rneTMoXuwA22ziLcn2VKuA6OjWKe/XMj1nVL9ocrBpNPYow4Au3Kbsn99UTsI9Jq1nHxLuQ6MimKdfmqbkyT/rh2DJ1sneaVUv0d5K2MWD5AAYF8uUwr2Ze0g0FvWc/It5TowGop1+qcc2ngVF259tU6ZVL+qHaTT2mYae9QB4FAuU1bEuD6Bp7Cmk28p14FRUKzTP21zFRdsfaVUv09Z+7KIPeoAUMN5ygT7Te0g0EvWdbKlXAcGT7FOv5Qp3g+1Y/Bk7+wy/YHyJsYsydvKSQBg7NYp35Nn1tbBE9i7ztZlkhNfS4GhUqzTH2WS94/aMXgypfqPWPsCAF20TlkPs6gdBHrH3nW2rlPeWlauA4OjWKcfys6+q1iP0VdeA/wea18AoA+uUwr2Ze0g0Cv2rrOlXAcGSbFOP7TNRazI6Cul+t+Vm4xF/J0GgD65TDKxfx0eoVz3zmLvOsp1YIAU63SfHX19dp356nXtEJ3SNmdJpvFaLAD01e8pB5wqh+ChyjXwx9oxqE65DgyKYp1uKwc6XkUJ2Ucumr5W9kzOkrypHQUAeDb71+Gx2uYk5a1N93bj5j4RGAzFOt3WNlexk6+P1klee1U6d6+/niX5UDsKALBz9q/DY5Rhk0Xc442dch0YBMU63dU20ygj+2idcpF0VTtIdQ4nBYCxOE9ZD3NTOwh0Xhk8uYg3OcdOuQ70nmKdbiqF5B+1Y/Ak70b/WrRDmgBgjNZJZpmvprWDQC+0zSKul8dOuQ70mmKd7iml5FVM+fbRr5mvZrVDVGV3JACM3W2SifUw8ABtM0vyvnYMqlKuA72lWKd7TC701Xnmq0ntENWUB0KLJG8rJwEAuuFzyv71m9pBoNPaZpLkU+0YVKVcB3pJsU63lGnff9eOwaNdZr46rh2imnIzMIspdQDgW+uU3evjfqMP7qNcR7kO9JBine4oE783UU72zXgvgNrmVcqUuoOXAICfuU6ZXl/WDgKd1TavkyzjfnDMxntvCfTS/1c7AHxlERdRfbNO2SE6vguftjlLOQtAqQ4A3OcoyR9pm9lmmAT4u/nqKslxyj0G43SUZOnrJNAXinW6oZSUdlP3z/HmAng82uaXtM0yycd4EAQAPM77JDeb9YfA323L9evKSajnKGXNJkDnWQVDfWWdxlWUlH3zLvPVonaIgyo3wYv4uwoAPN9lypt/N7WDQOeUieVlSsnKOJ1nvprUDgHwMybW6YJFFJV98/uoSvUypX6RcrCuv6sAwC68SXKVtpnWDgKdU1ZNHqc8gGKcTtM2i9ohAH7GxDp1lRUwH2vH4FE+Z74az+vLptQBgP27TpleH9eKPXiIUq6e1o5BNSbXgc5SrFNPOfX9P7Vj8CjjOaW9vH46i4t4AOBwfk8yHcW1FjyGcn3slOtAJ1kFQ02L2gF4lHXKJNXwb/Ta5jhl77+LdwDgkN6nrIc5rh0EOqWUqu9qx6Aaa2GATlKsU0fZJekgmn45GcXryeXv5h9JXlZOAgCM08skf6RtZps36IAkmzOelOvjpVwHOscqGA7PCpg++jXz1ax2iL1qm1dJLuKBDwDQHXdvDF7UDgKd4QyksbMWBugME+vUsKgdgEc5H0Gpfpay+kWpDgB0yYsk/07bXJheh43yoOk45cET43Oathn2/SnQG4p1DssKmL65TnJWO8TetM0vaZuLJB9j4gUA6K63SW42k7pAWVF5nOS2chLqeJ+2mdQOAWAVDIdjBUzfrJO8GuxhpeVQsEXsUgcA+uVzxnKgPNynvMmxjOGtsXq32b0PUIWJdQ5pUTsAj3I82Bs2B5QCAP1leh3ulPuV45Q3bRmfTybXgZpMrHMYpcj8UDsGDzbMJ//lgNJFkjd1gwAA7ITpdbjTNoskp7VjUMUw71+BzlOss39WwPTNME9ZL1Ndi9ilDgAMy21Kub6sHQSqU66PmXIdODjFOvvXNlex864vrjNfva4dYufKqfHva8cAANij35NMTa8zet6WHqt1yjrTq9pBgPFQrLNfLmr6ZJ3kdearm9pBdqasfrmIBzsAwDjcJjlRLDF6Ze/2p9oxODjlOnBQDi9lf8oKGKV6f5wMrFQ/SeJtCQBgTF4m+c9muAXGq6wEeZdStDIeL5IsN10EwN6ZWGd/rIDpk18zX81qh9gZq18AAK4ztMEJeKxSsC7jnKWxMbkOHIRinf2wAqZPPme+OqkdYiesfgEA+No6yZkD/Rg15fpY3aasOnXuBLA3inV2r5SbV3Hh0gfXKU/y+3+x0TbHKaW6v3cAAN/6nGQyiGs+eAoDOGM1nPtdoJPsWGcfFlFu9sE6Q7nBKm9I/BF/7wAAvudtkpvNIAKMT1mJdJxStDIeRyk713+pHQQYJhPr7FbbnCX5WDsGD/Ku968FlwukRcrNIgAA9/st89W0dgiootw/LGNyfWxMrgN7oVhnd6yA6ZPzzFeT2iGepexKvEjysnYUAICecbAp49Y2iySntWNwUP2/BwY6xyoYdmkWpXofXPf+gqJtJimTJkp1AIDHO0pytbmmgvEp90PntWNwUKebByoAO6NYZzfa5iTWcfTBOslJ7RDP0jazJJ/iIQ4AwHO8SPIpbbOwf5hRUq6PkXId2CmrYHi+ciF+E0VnH/xf5quL2iGexD5EAIB9uU451P6qdhA4uDK48752DA7KWRPATphYZxemUar3we89LtVfpzy8UaoDAOzeUZKl1TCM0nx1luRd7Rgc1Adf74BdMLHO87TNcZI/asfgXteZr17XDvEk5YLH/n4AgMP4nDK9/mftIHBQ5b7jU+0YHNS7zFeL2iGA/jKxznMtagfgXv3dq26fOgDAob1NmV7v51AGPFUpWE2uj8unzbAgwJOYWOfp2maa5EPtGNyrf3vVyz71iyRvakcBABipdZIz05yMjsn1sVknOXbGBPAUinWepm1eJflv7Rjc6/fNzsD+KNNRi9inDgDQBecpBbvVMIxHuSdZxpuzY6FcB57EKhiealE7APe67mGpfpJyAatUBwDohtNYDcPYlIL1OKVwZfheJLnYvDkN8GCKdR6vvBpnRUe39W+vetucJfl3TIUAAHTNUUq53q/rS3gO5frYvEz5OqdcBx5Msc7jlG8ys9oxuNck89VN7RAP1jaLJB9rxwAA4IdeJPn35nB5GAfl+tiUh4gAD2THOo9TCtDT2jH4qfPMV5PaIR6kPKhZxuoXAIA+uU7ZR2zvOuNg5/rY9OeeGqjKxDoP1zbHUap33XWSfuxV316cKtUBAPrlKMmNveuMRplcf51yv8XwnW6GCgF+SrHOYyxqB+Bek15MDinVAQD67kWS/2zOyYHhK6s2j6NcH4tTX9+A+yjWeZi2maYc5kF3/bqZpOi2cvjtf+I1SgCAIfiYtlk48I9RKENMx1Guj8XHzf0rwHfZsc792uZVkqsoQrvsc+ark9oh7lUe0HyoHQMAgJ27TnKymeqFYXNW1Nj8X+ari9ohgO4xsc5DLKJU77J1kkntEPcqO+qU6gAAw3SU5GpzLhMMm8n1sVk4UwL4HhPr/FzbnCT5d+0Y/NT/Zr5a1g7xQ6Y5AADG5l3mq0XtELB37nXGZJ3kuBfrV4GDMbHOj5WLhFntGPzU7x0v1V/FhSYAwNh82rytCMNmcn1MXqRMrjtPAviLYp2fOYsDS7vsOvNVd08pL6/KXUWpDgAwRqdpmyslFIO3Ldc/V07C/h0lWfq6BtxRrPN9ZdLYPuzu6vZe9bJCaBm7+QEAxuwoyY3dxAzefPVn5quTJOe1o7B3R/FmP7ChWOdHFrUD8FPTzu52a5tJyl5+pToAAC9SJjwntYPA3s1XkyjXx+DUuisgUazzPWXa+E3tGPzQZearbj4hb5tpkk+1YwAA0CkvUvauT2sHgb1Tro/FqQeGwL++fPlSOwNdUnaFXcVu9a5aJ3m12ePXLeWJ/WntGAAAdNp5krNOXs/CLrk/Got3ma8WtUMAdZhY5+8cWNptk07ehLhoBADgYU7j8D/GwOT6WMycIwHjZWKdrXJg6X9rx+CHzjcXZ91RboiWKQe4AADAQ62THHf23CDYFUNIY+DrGYyUiXW+tqgdgB+6TXmboDuU6gAAPN3doaYntYPAXplcH4MXSRbexIHxUaxTOLC067q1Aqa86raMUh0AgKd7keTfDgBk8JTrY3AUa65gdBTr3JnVDsAP/Z75alk7xF+U6gAA7NanzboMGC7l+hgcRbcCo6JYJ2mbaRxY2lXXSaa1Q/xlW6q/qJwEAIBhOU3bXJj2ZNCU62NwmrZRrsNIOLx07MqBpVdRlHbV/3TmAJS2OU5yEX9XAADYn+uUQwC7swYRds2BpmPwLvPVonYIYL9MrDONorSrfutQqT5J8kf8XQEAYL+Oktxs3pSEYTK5PgafNsNpwICZWB+z8kX+j9ox+K7rzFfduJkopfqn2jEAABiVdZKTTp01BLtmcn3o1ilv4HRjYA7YORPr42bvV3dNagdIolQHAKCWF0n+2FyPwjCZXB+6F0mcHQEDplgfq3KBelQ7Bt/VjRUwSnUAAOr7lLY5qx0C9ka5PnQvkyyV6zBMivUxKl/QTat303Xmq2ntEJtXEpXqAAB0wcfN9SkMk3J96I6ig4FBUqyP01kcQtlVk9oB7PkDAKCDTtM2C1OfDJZyfehO0zbT2iGA3XJ46di0zask/60dg+/6rfq0ulIdAIBuu045DPDP2kFgL9yTDd27zFeL2iGA3TCxPj5eP+qm+itgXMABANB9R7GvmCEzuT50n9I2r2uHAHZDsT4mbXOc5G3tGHzXpOqfrlQHAKA/jpJcKacYLOX60C032wSAnlOsj4tp9W76LfPVVbU/XakOAED/vEwpp5TrDJNyfcheJLnw5g30n2J9LNpmkjLZQbfUXQGjVAcAoL9epJTrx7WDwF6Ucv1z7RjsxVGSRe0QwPMo1segPAU1rd5Nk2p/slIdAID+e5Hkj80gEQzRJOXQXobn7ea+HOgpxfo4nKVccNIt9VbAKNUBABiWT8p1Bmm++jPJcZTrQ3Xqaxf017++fPlSOwP7VA7EuIpivWtuM1+9qvInK9UBABiud5mvFrVDwM6VN9GXseJ1qP4389WydgjgcUysD980SvUumlT5U5XqAAAM26e0jTWYDI/J9aG72AxGAj2iWB+ytnkdJWoX/V7lSbRSHQCAcXhvbzGDpFwfshcp5fovtYMAD6dYHzaTGt1zm/IWwWEp1QEAGJdT5TqDpFwfsqMki9ohgIdTrA9V2xwneVM7Bv9wtrkQOhylOgAA46RcZ5iU60P21jor6A+Hlw5V29wkeVk7Bt/4nPnq5KB/olIdAADOU2PABfat7OS+inPVhshBzNADJtaHqG0mUap3zTqHPrBUqQ4AAEm5Jl7aXczgzFc3KZPr67pB2INPm3PzgA5TrA9NuVj02lD3TA86IaNUBwCArx1Fuc4QzVdXUa4Pla9Z0HGK9eE5i9fAuuYy89XhHnYo1QEA4HuU6wyTcn2oXiRZ1g4B/JhifUjKBeJZ7Rj8w+Rgf5JSHQAAfka5zjAp14fqyCHM0F2K9WGZxbR61/y22Xu3f2W3vlIdAAB+TrnOMJVyfVI7Bjt3mrYxRAkd9K8vX77UzsAulNPA/1s7Bt+4zXz16iB/UinVPx3kzwIAgGG4TnJ80LOQ4BDcHw7V/2a+WtYOAWyZWB+Oae0A/MPkIH+KiyYAAHgKk+sM03y1SPKudgx27mIzVAl0hGJ9CNrmOFaAdM35QZ4kK9UBAOA5lOsMk3J9iF6klOu+XkFHKNaHYVo7AN9Y5xCHyCrVAQBgF5TrDFMp13+tHYOdOkqyqB0CKBTrfVem1d/UjsE3pnvf09g2r6NUBwCAXVGuM0zz1SzJee0Y7NTbtM20dghAsT4E09oB+Mbl5sJlf0qpvtzrnwEAAOOjXGeY5qtJlOtD8yFtc1I7BIydYr3PyioQ0+rdst8VMNtS/cVe/xwAABgn5TrDpFwfosWmIwAqUaz327R2AL7xe+arq719dqU6AAAcgnKdYSrl+mXtGOzMi5Ry3dcqqESx3ldlWv1l7Rj85Tb7fNBRvlEuolQHAIBDUK4zVCdJrmuHYGccZgoVKdb7a1o7AN8429uBpeVifpnyDRMAADgM5TrDU+5bj6NcH5K3aZv9rqUFvkux3kfl9GfT6t1xmfnqYi+fWakOAAA1KdcZnm25fls5CbvzMW1zXDsEjI1ivW/KBZ0nkd0y2ePnXkSpDgAANZVyHYaklOsnSda1o7AzF2mbV7VDwJgo1vvnLPZsd8lvma9u9vKZ22aR5O1ePjcAAPAYR5vrcxiO+eoqZXJduT4ML1LKdW/YwIEo1vvEtHrX3CaZ7eUzl4v20718bgAA4ClOlesMzrZcZxiOsq+eAvgHxXq/mFbvlv0cWFoOHVGqAwBA9yjXGZ5Srr+rHYOdOU3bTGqHgDH415cvX2pn4CHKtPpNFOtdcZn56njnn7V88/u0888LAADs0nnmq0ntELBT7keH5n82D02APTGx3h/TKNW7ZLLzz9g2J3ERAwAAfXCatrFugWGZrxZJfqsdg51Z2rcO+6VY74NyqvP72jH4y+87P7C0bV4nWez0cwIAAPv03roFBme+miY5rx2DnSiHmQJ7o1jvh2ntAPxlnV3/+yil+jLeSAAAgL75pFxncMqaI+X6MLzxdg3sjx3rXVem1f9bOwZ/ebd5PW43ymtZV0le7uxzAgAAh7bb+wTogra5SnJUOwY78X+Zr0yvw46ZWO++ae0A/OV6D6X6Mkp1AADou0+bN1FhSI6TXNcOwU4sNoObwA4p1rusfNE7rR2Dv5zt+PNdxNN/AAAYiqVynUGZr/5MKddvKyfh+cq+dYeZwk4p1rttWjsAfznPfLXc2Wdrm0WSNzv7fAAAQG0volxnaEq5fpJy3hj9dpTEvnXYIcV6V5lW75LdHlhaDg7x7xYAAIbHVCjDM19dpUyuK9f779SBy7A7ivXumtYOwF9mma9udvKZyjew9zv5XAAAQBe9TJlcV64zHKVc3/V6VOpwJgTsiGK9i0yrd8ltdvWqVNucJPm0k88FAAB02VGSZe0QsFPz1SLJu9ox2Alv1sAOKNa7aVo7AH+ZbnbKPU95Grx49ucBAAD64mhzthIMRynXf68dg2d7GR0FPNu/vnz5UjsDXyvT6v+tHYMkyWXmq+Nnf5byFPgmZd8iAAAwLueZrya1Q8BOlYdG3rTvv18zXznQFJ7IxHr3TGsH4C/TZ3+GUqovo1QHAICxOk3b2E3NsJSHRZe1Y/BsH+1bh6dTrHeJ3epdcp75armDz3ORsl8RAAAYr49pm0ntELBjJ0mua4fg2Ry2DE+kWO+Wae0AJEnW2c20+iLJm2d/HgAAYAg+mQxlUMp5ZMcp99D014uUoUDgkRTrXWFavUtmma9unvUZyque/n0CAABfWyrXGRTl+lC8SdtMa4eAvlGsd8e0dgCSlIuB5x3cUV7x/LiLMAAAwKCUyVBrFxiS+eoqZS0M/fYhbXNcOwT0yb++fPlSOwNlWv2/tWOQJHmX+Wrx5N9dpk+WcVgpAADwY9dJjjfTvjAMZcjsU+0YPMs6yStfm+BhTKx3w7R2AJIk188s1X+JUh0AALjfUZJF7RCwU+V++rfaMXgW+9bhERTrtZUy1itT3XD25N+pVAcAAB7nbdpmUTsE7NR8NU1yXjsGz2LfOjyQYr2+syhju+Ay89XyGb9/kTJ1AgAA8FCnm/UZMBzz1SRl3RH9Zd86PIBivaYy5fz0KWl26TnT6rMkb3cXBQAAGJFPaRtvMTM0x1Gu952DluEeivW6TKt3w/nmFPPHK9Ml73eaBgAAGJtF2uZ17RCwM+Xwy0nKYZj0k33rcA/Fei2m1btinaceHlsufJ14DgAAPFcpsEyHMiRlgO04yvU+e5O20V3BDyjW6zGt3g2zzFc3j/5dbfMq5bBSAACAXXgZ9xgMTSnXFbP99tEbNfB9ivV6fGOpb51k9ujfVaZILuLBCAAAsFtHaZtF7RCwU/PVIslvtWPwLN6oge9QrNdQ9nIrZeubbva+PdYiydGOswAAACTJqdULDM58NU1yXjsGT/YypQsBvvKvL1++1M4wPm1zk/JFiXpuM1+9evTvaptZHFYKAADs3/9lvnJwIMPSNlcxqNZnv2a+evyb/zBQJtYPrUyrK9Xrmz76d5R/d0p1AADgEBb2GjNAx0mua4fgyaa+LsGWifVDM63eBY+fVi/fOJaxwgcAADic6yTHT1xhCd3k/rrvfF2CDRPrh9Q2J1Gqd8HkUb+6HNCxjG/6AADAYR0lsQ6GYZmvrpKc1I7Bkx3lKVsAYIAU64flAJr6LjNfLR/5e5ZRqgMAAHW82Zz1BMNR7svf1Y7Bk73fDI/CqCnWD6VtjpO8qR2DRz5VbZtFHKwCAADU9X5z5hMMx3y1SHJeOwZPtkjbvKodAmpSrB+OafX6HjetXi5cT/cVBgAA4BFmDg1kcOarSZLL2jF4khdJFrVDQE2K9UMoT/De1o7BI3arlwvWT3tLAgAA8DgvklxszoCCITlJORCT/nmTtpnWDgG1KNYPY1o7ADnPfHXzoF+5PawUAACgS17GYaYMzXz1Z8og3LpyEp7mw2b9MYyOYn3fyrS6dSL1TR/xa5dxWCkAANBNJkQZnvnqKmVynX5aeJuGMVKs79+kdgAeNa2+iMNKAQCAbvuQtlFCMizlTLR3tWPwJC9j3zoj9K8vX77UzjBc5WndTUw/1/b/HlSsl8NK7VUHAAD6YJ3k9YOHiKAvysCbN//76V3mq0XtEHAoJtb36yxK9dp+f2Cp7rBSAACgTxxmyjDNV5Mkl7Vj8CSzzUpkGAXF+n5NagcYuXUeslvdYaUAAEA/HSWZ1Q4Be3CS5LZ2CB6tPPCDkVCs70tZK/KydoyRm21OF7/PRbxZAAAA9NPp5v4ThqPcy5+kDMzRL0cOWGYsFOv7c1Y7wMit85DJjbaZJXmz9zQAAAD7M9ust4ThmK+uYhNAX31I2xzXDgH7pljfh/LF46h2jJG7f1q9THW8P0gaAACA/bFvnWGary6S/FY7Bk+y8DWJoVOs78e0doCRu39avUxz2EUIAAAMxcski9ohYOfmq2mS89oxeLSX0bswcIr1XSunH1stUtfPp9XLE9NF7FUHAACG5W3axlpShugsyXXtEDzaadrmpHYI2BfF+u5NawcYuYfsVp/Fqh4AAGCYPtq3zuA4zLTPFpshVBgcxfoulUno09oxRu6+afWz+HcEAAAMm33rDM98dZNSrtMvL2JNFQOlWN8tr9zV9fNp9TK18fFgaQAAAOqwb51hmq+WSX6tHYNHe2NNFUOkWN8tXyTq+vG0epnWuDhsHAAAgGrepm0mtUPAzs1XszjMtI+sqWJwFOu7Ui5YHIZZz3271S9SpjYAAADGYqbIYqAcZtpPi9oBYJcU67tjWr2un02rT5O8OWgaAACA+uw2ZpgcZtpXR5uOBgZBsb4LbXOc5Kh2jBH78bR6+Xfz/7N3N9dtZFe7gLe9PKduAiAcgeQIBEcgOgKhZ5g1O4KGIjB7VjNDEViKwGAEFiMwWAl8zQj6DgpsSc0/gARqn1P1PGv1cvveNvl+NsVCvbVrn5/7DAMAAFCQ17GYPPZ2L9TJYaa1+nnb1UD1FOuHYVo91/3T6vaqAwAARET8GIuJApLhcZhprVbbzgaqplh/qcVkGhHvsmOM2GO71T+FvfcAAAARiiyGqjvM9HN2DPZyGhHL7BDwUor1lzOtnuuhafVl2KsOAABw6yS80ctwzcNhprXxJg3V+9Nvv/2WnaFe3dP+TZiKznITEdM7xXq3q+s/GYEAAAAK99N2wheGZTF5ExHr0NHU5P5eByphYv1lzsIv7Ex3p9XtVQcAAHjMP7cFJAxL036JbnKdepxExCo7BDyXYv1lltkBRuyh3er2qgMAADxulR0AjqJpP0XEL9kx2Ms7K2GolWL9ubp1I6fZMUbsvmn1ZdirDgAA8JTXsZhYB8MwNe15RFxmx2AvDlemSor153Noaa7Vd/+ue9Dxc0YQAACACv24vY+CITqL7k136uBwZaqkWH+OxWQaEe+yY4zYx2jaze//rnuqucoKAwAAUClTogxT94b7LDsGe3kbi4khVqqiWH8ef9BzLf/w71dhLQ8AAMC+TuP+s6ugft1hpj9lx2Avy+0wK1RBsb6v7mn+PDvGiP1xWv08vD0AAADwXO8dHMhgNe1FRHzMjsHOTsJGAiqiWN/fWXR/0Mmx/P3vFpM3EfHPtCQAAADDYCUMQ3YeEVfZIdiZlTBUQ7G+P3+483ydVrdXHQAA4FBMiTJc3b71eTjMtCZWwlAFxfo+uhPTX2fHGLHVN39/Ef63AAAAOJR3VsIwWN2+dYOS9fCwjyoo1vczzw4wYpfRtOuIiO2HvfepaQAAAIbHShiGq2lXYd96TayEoXiK9V11Hy6UuXmWERHbDyhN+wAAIABJREFUV4FWiTkAAACGypQow9a087BvvSZWwlA0xfruPCXLc/X7tHr3Ic/hsQAAAMdhJQxDdxb2rdfCwz6Kpljf3Tw7wIhdRETEYrKMiLepSQAAAIbPShiGq2k3oeOpiZUwFEuxvovuaf1pdoyRuo6mXcVi8iYifs4OAwAAMAKmRBm2pv0UEb9kx2BnVsJQJMX6bubZAUZsuZ2U+JQdBAAAYESshGHYmvY87FuvhYd9FEmx/pTuidi77BgjdbM9tfsivDEAAADQNythGDr71uthJQzFUaw/zR/aPBfbCYn32UEAAABG6CQiltkh4GjsW6+NlTAURbH+tHl2gJG6ie41n1VuDAAAgFH7MRaTWXYIOBr71mtiJQxFUaw/ZjGZR/eHlv59iu6Xpf/+AQAAclkJw7DZt14TK2EohmL9cfPsACP2a0S8zQ4BAABAnIY1qQyffev1sBKGIijWH9L9AVXs5rgKDzUAAABK8nMsJm+yQ8DR2LdeEythKIJi/WGexud5HVbAAAAAlOYiOwAcVbdv/WN2DHbyNhaTs+wQjJti/WHz7AAAAABQELuNGQP71uvh/AdSKdbv49BSAAAAuM9SkcWgNe2v0Q1b2rdePithSKVYv988OwAAAAAUSJHF8DXtl4hYZsdgJ++shCHLn3777bfsDGXpDi39X3YMAAAAKNjfo2nX2SHgqBaTTxHxLjsGT7qJiOn2bQPojYn1u+yLAwAAgMfZbcwYzCPiOjsETzoJbxiQQLF+l9dHAAAA4HGnYTCNofu6b53y/RiLySw7BOOiWP9Wt5PpNDsGAAAAVODn7TpVGK5u5dGH7BjsxJs09Eqx/r15dgAAAACoyCo7ABxd0y4j4io7Bk/yJg29Uqzf6p6yO5ACAAAAdvd2+/Y3DN1ZdIdkUrafYzF5kx2CcVCsfzXPDgAAAAAVurB+gcFr2k3ojmqxyg7AOCjWv5pnBwAARu8mIi63f32OiOvcOACwE+sXGIem/RQRH7Nj8KTXsZj4ncTR/em3337LzpCvOzX4P9kxAIBBu4mIL9u/X//hX79ExKuImH3zlwPVAajNX7dTvTBc3dsZX8JntdLdRMQbv5M4pr9kByjEPDsAADAIVxHxa3xfnP8aTfvlzj/Z3ZSdhSIdgOG4iO7aBsPVtL/GYjIPA5qlO4luJcwsNwZDZmK9u6ndRPcHDgDgKbeT51/ia4m+2WkapntL7rZMf32kfACQ6e/RtOvsEHB0i8kyIn7OjsGT/rFd4QMHp1jvnjL+KzsGAFCcbwv0ze9/37S/7vwVFpNpdCX6WUS8O3RAACjQdTTtNDsE9GIx+RKGJUp3ExHTvT7Dw46sgnHACgDQHRJ6W6KvY9cJ9PssJm+iWzM3CzdaAIzPaSwm59G0F9lBoAdn0X1+tAWhXCcRsQz9H0cw7on1borsf9kxAIBe/bFE328K/T6LyVl0N1Zn4cYKAEyIMh6LyXlE/DM7Bk+ypoqDG/vEuqdVADBst+tc1nGoEj3i9oyWWSjTAeA+JkQZj6a92J6jY+1f2S4i4k12CIZl7BPrm4g4zY4BABzMdXxfon852FfuyvTbIt2NEwA87a/PXq0GNek+J27CsEXpPkTTLrNDMBzjLda7V7b/nR0DAHiRq/hapK+P8sr51zUv7w/+tQFg2C6jaWfZIaAXeqYa3ETEGw/8OJQxF+urcIMMALU5fpEeEdvXeedhzQsAvJS9xoyHrqkGHvhxMOMs1rtXdP4vOwYA8KTb1S6f4phFesTtoebn0ZXpVsUBwGFcR9NOs0NAL7q+6Uv4LFm6f0TTfsoOQf3GWqzPI+Jf2TEAgHt9jtsy/divaX7dm34eEa+P+r0AYLx+iKZdZYeAXnRvPv4nOwaPuomI6VGHdhiFsRbrX8LNMwCU4jq+TqT3MzlibzoA9EmJxbgsJhcR8WN2DB71SzTteXYI6ja+Yr17zft/2TEAYOQuoyvTjz+Vfqv7DDDf/uX1XADo14do2mV2COhF91bkOgx1lu5v0bRfskNQrzEW68uI+Dk7BgCMzE183ZX+qdeJtW46fR4R73r7ngDAH91ExJveHqhDtsXkTUT8NzsGj7qKpn2THYJ6jbFY34QpNQDow018LdL7PRyomxKaR7c73XUfAMrwMZp2nh0CemO4swY/RdNeZIegTuMq1j0tBIBjyyvTI26v9edhdzoAlOqvptYZFef8lc4ZEDzbX7ID9MyhBABweLllekTEYjKPbkL9bcr3BwB2dRHdAeIwFvMw5Fmyk+h+L82Tc1ChsU2s/xrdHxgA4OU+Rm6Zbt0LANTp79G06+wQ0BsrYWrg9xJ7G0+x3h1c9u/sGABQucuIWEXfB5B+azGZRlemz8MDcwCo0WU07Sw7BPTKSpjSXUfTTrNDUJcxFeufIuJddgwAqNB1dK9HfkrdidoV6suwPx0AhsB0KOPi3L8afIimXWaHoB7jKNa7V8X/LzsGAFTkdm/6RTTtl9Qki8ksukLd/nQAGI6raNo32SGgV1bClO4mIt44YJld/Tk7QE8cjAIAu7mKiB8iYhpNO08t1ReTWSwm64j4TyjVAWBoXm8PH4fx6Kahr7Jj8KDbg0xhJ3/JDtCTeXYAACjYTXR70y+KmM7obrLnoUwHgKFbRvcZBMZkHlbClOxdLCYzq6rYxfBXwXT7WP+XHQMACnQVX3en5xxE+q2uUF9GxGluEACgRz9E066yQ0CvrIQpnYNM2ckYivXziPhndgwAKMjHKGF3+i2FOgCMmQKLcVpMvkTE6+wYPMhBpjxpDMW6X1QAEHEdX9e95E+nR9weSnoRrtMAMHam1hmfxeRNWAlTMgeZ8qRhF+vWwADAZUSsirpZ7Qr1ZdihDgB0TK0zTlbClO5zNO1ZdgjKNfRi/SIifsyOAQAJPkZXqK+zg/xOoQ4APMzUOuO0mGzCSsSS/b2oeyqK8pfsAEfmqRIAY3ITX9e9bHKjfKN7g2wZEe9zgwAABbuIxaSMA9WhX/OI+E92CB60iohpcgYK9efsAEfT7aryxA+AMbiJiA8RMY2mPS+mVF9MXm3fHvtfKNUBgMedRMR5dgjoXTcN/Ut2DB50ul3ZA3cMdxWMNTAADN91RCyLfG26+/B5Ht1NMgDALm6iGxQwtc64LCavIuJLGBAtld9N3Gu4E+vWwAAwXNfR7SGdFleqLybz7Z7In0OpDgDs5yS6tRgwLl1hO8+OwYNOIuIiOwTlGebEercG5r/ZMQDgwEqeUJ+Fg0kBgJe7jqadZoeAFIvJp4h4lx2DBznIlO8MdWJ9nh0AAA7oMiL+UeiE+qtYTFbRHbikVAcAXuo0FpN5dghIMo9u7QhlMrXOdxTrAFCu6+gK9Vk07afsMHd0e9Q34WBSAOCwltkBIIWVMKV77cEf3xreKpjF5Cwi/p0dAwBeoNyVLxG3a19W4XAlAOB4fij2sxAc22KyDm+DlspBpvxuiBPrDi0FoFblHkoaEbGYTLd7H/8TSnUA4LiW2QEg0TyshCnVSfj9xJZiHQDy3UTJhXpExGJyHhFfwmFKAEA/7FpnvJp2E/Z5l+zHWEym2SHIN6xivVsDc5IdAwB2dBMRH6J7lXCVnOV+i8mbWEy+RMQ/wzUWAOjXMjsApGnaZURcZcfgQavsAOQbVrFuWh2AevwSXaG+LHI/32LyKhaTi4j4b0S8zo4DAIzS6XaADsbqPDsAD3rr9xOKdQDo1+eI+Gs07XmRhXrE7RtgXyLix+woAMDoKRYZr6ZdRzeQQ5ms6xm5P/3222/ZGQ6jKwH+nR0DAB5wGRHL7YfjMi0mr6J7pdEedQCgJH8v+jMUHFP3GX0T1jKW6sN2bQ8jNKSJddPqAJToOrqDSWdF3xB2D6g3oVQHAMqzzA4Aabq3XOfZMXjQ+fbhByOkWAeA4/kQEW+KPZg04naX+qfo3voyBQMAlOhtLCbT7BCQpmk/RfcGLOU5CSthRmsYxXo3ZacMAKAUt3vUyzyY9JYpdQCgHsvsAJBsHhE32SG41/tYTN5kh6B/wyjWTasDUIbr6HaAnkXTbrLDPMiUOgBQn/em1hm17v7CZHS5/G8zQop1AHi5m+gOrZkWvUc9wpQ6AFCz8+wAkKo7JPM6Owb3eru912JE6i/Wu1ctTNsBkOVzdHvUl9lBHtVNqa/ClDoAUK+5QwLBQaYFM7U+MvUX636hAJDjOiL+Ufzal4iIxWQWEV8i4n1yEgCAlzgJHQBj170h+zk7Bvc6jcVkmR2C/gyhWPeaBQB9+yW6KfVP2UGe1H2w+09EnCYnAQA4BOtgwEGmJTv3Zs141F2sd2tgFAUA9OUqIv4WTXseTftrdphHLSbTWEy+RMTP2VEAAA7oNBaTeXYISNXdiyyzY3Cvk/C/zWjUXax7BQyAftweTvommvZLdpgndYfmfImI19lRAACOYJ4dANI17UV0gz+U58dYTKbZITi+2ot1a2AAOLbLqOFw0ggHlAIAY/F2e4YMjJ3VSOVaZQfg+Oot1q2BAeC4biLip2jaWfGHk0bcXhfX4YBSAGAc5tkBIF13kOnH7BjcywPAEai3WI+YZQcAYLBup9QvsoPspNszug6rXwCA8Xhv1QJERDe17iDTMtVxP8mz1Vysz7MDADA4tU2p365++VdY/QIAjM88OwCkc5BpyV47bHnY/vTbb79lZ9hf91T6f9kxABiUy4iYV1GoR9yuflmFKXUAYLxuomlfZYeAIiwmm7AyuUTX0b0N/Wt2EA6v1ol1h5YCcEgfqplSj4hYTM7C6hcAgBPToPC7eXYA7nUaDpkdrFqL9Vl2AAAG4Soi/hZNu8wOsrPF5CIi/h1WvwAARCisoNMdZPo5Owb3Oo/FxNs1A1TfKpjuB/H/smMAUL1fomnruRHrrn+fIuJtdhQAgML8fVsqwrh1q5O/hCGcEn2Mpp1nh+CwapxYtwYGgJe4ie7mq6ZS/U10H5CV6gAAd82zA0ARutWWF9kxuNf77YMPBkSxDsCYfI6IaVUTTd3e0HU4iAgA4CHvrVmA311Ed2Am5VllB+CwaizWZ9kBAKjST9G0Z1Wdxt7tU/9XeJUTAOAp8+wAUITufqeet3PH5W0sJrPsEBxOXcX6YnIWygUA9nN7QGk9r0QuJq9iMfkUET9mRwEAqIQiEW417aeIuMyOwb2W2QE4nLqKdWtgANjPx4iYRdN+yQ6ys26f+joi3iUnAQCoyel2GA/oeNhUprfbdZ8MQG3F+iw7AABVuImIH6Jp55Wtfrkt1V8nJwEAqNE8OwAUoxsu+pgdg3stswNwGPUU613Z4OA2AJ5yFd2U+io7yF66qYX/hpVnAADP9S4Wk2l2CCjIeXRDR5Tl1NT6MNRTrFsDA8DTPkdtq18ivj2kFACAl5lnB4BidG/v1nPW1LhcxGLyKjsEL6NYB2AofoqmPats9curWExW4ZBSAIBDmWcHgKI07TIirrNjcMdJ2INfvTqK9e5VLvtmAbjPTUT8LZq2rkmMbjphHRHvk5MAAAyJQ0zhLgVumc5NrdetjmLdoaUA3O8qIqYVrn5xSCkAwPHMswNAUZr2U0RcZsfgjpOwqqdqtRTrnjYD8Ecfo2nfVLX6JUKpDgBwfO9MgcIdy+wA3Ou9Q5frVUux/i47AABF+SGadp4dYm+LySy6Uv0kNwgAwODNswNAUZp2HREfs2Nwr2V2AJ6n/GLdbjQAvrrdp77KDrK3xWQeEf8JpToAQB/slIa7ltkBuNf77ZvNVKb8Yt1+dQA6de5Tj7gt1f+VHQMAYEROFVXwB027iYgP2TG4l13rFaqhWDexDsDHiJhVt089ImIxuQilOgBABlPrcNdFdG8CU5a329WhVKTsYr1b3n+aHQOAVB+iaeeVluqriPgxOwYAwEgZ1IM/6u6rltkxuNcyOwD7+dNvv/2WneFhi8l5RPwzOwYAKW4i4rzKfeoRt6X6++wYULCriLh9YPblm7+P6A75/V534NbLdWsBXv3h/3W6/evW7Ju/fxPORgCo2Q/Vfp6EY1pMNmGYtUR/P9jnXo7uL9kBnuDpMsA43US3+qXGfeqvonu9UqnOmF1u/3W9/dfb4vzX9D/Xz/3+3Z/t2129t+X87b9Ow40pQKnOImKVHQIKtAwrK0u0iu8HPihYuRPr3c3L/2XHAKB3V1HvPvVX0RWJr5OTQB8uoyvLv0TEZvvXlyr/7B7K12n4WXwt3qehdAfI9tftoY3AtxaTdUS8zY7BHd60qUTJE+uz7AAA9O4yIs6qLOaU6gzXVdyW5t3P+EY58YCv0/DrO/9/3WFU0+jK9tu/rJgB6MdZdG8UAt9bRsR/skNwxzK8aVOFkifWV+E1eoAx+RhNO88O8SxKdYbjKroCvfvLfsfjWkym8X3RPgtlO8AxXEXTvnn6H4MRMrVeKlPrFSi5WN+E12YBxuJDNO0yO8SzKNWp13V8nUJXopfia9k+2/6rG12Aw/hb+jkfUKLus8f/smNwx3U07TQ7BI8rs1jv9lP+NzsGAL2o90m8Up26XMVtiR6xts6lIt0amduyfRam2gGe45do2vPsEFAkWyNK9VM0rTVWBSu1WD+PiH9mxwDgqG4iYh5N+yk7yLMo1SnfdXQ/o5+iK9LrO7uA+3VDKLPtX+9SswDUw/QnPMTUeqluImLqc3y5Si3WP4WbBIAhu4mIWbWv4yrVKdNNfF+kb1LT0J9uon0W3eF8fi8BPOwf1Q51wLEtJsuI+Dk7BnfUuzZ1BEot1gsMBcCBXEfEmVIdDuJ2vcsnO9KJiNvfUWfxtWi3Ngbgq4/RtPPsEFCk7jPEJnx2KI2p9YKVV6wvJmcR8e/sGAAcxVV0k+p1fihQqlOGy+im0j+ZSudJ3TT72fav09wwAOluomlfZYeAYplaL5Wp9UKVWKxfRMSP2TEAODilOjzf5/haptf5Z4h83W72eSjZgXGzDgYeYmq9VKbWC1Visf4llBYAQ3MZ3fqXOj8IKNXJoUzneJTswHhZBwOPWUzOI+Kf2TG4w9R6gcoq1p1CDDBE9d+8LCbriHibHYNRuIqIi1Cm0yclOzAu1sHAUxaTTfhMUBpT6wX6c3aAP5hlBwDgoIZQqq9Cqc5xXUfEh4j4azTtm2jalQ/M9Kppv0TTnkfTTiPiHxHxMbqbN4AhOonFZJ4dAgq3zA7AHScRcZ4dgu+VNrH+KSLeZccA4CCGUqq/z47BIN1Et+ZlFU27Ts4Cd3UrsM6im2T3cBEYms/RtGfZIaBoptZLZGq9MKUV67+GAxIAhkCpDvez6oX6dOsaz6Mr2X1WB4bi/7kWwyO6Nzv+lR2DO+q/1x6Qcor1brfjf7NjAPBi9V/oF5NlRPycHYPBuJ1Ov4im/ZIdBl6ku8mehyl2oH4/RNOuskNA0Uytl+qv0bSb7BCUtWN9lh0AgBf7ZQCl+jyU6hzGdUT8FN3rmnOlOoPQnQEwi4i/hl3sQN2sgoGnLbMDcK9ldgA6JU2sr8PkC0DN6p/68bojh3EZEUu70xmFr7vYl2GiDajLTTTtq+wQULzF5EtEvM6OwR2m1gtQ0sS6Uh2gXkMo1d+EUp2X+RjdB9yZUp3RaNpft1Ps04j4R3QPlgBqcBKLial1eNp5dgDutcwOQCkT693F7N/ZMQB4lqGU6utwKB/7u4nuMNILB6DBVvc79TwcAA2Ur/6zgaAPtkyUytR6slIm1mfZAQB4liGU6q9Cqc7+vt2fvlSqwzea9su2qLrdww5QKhPrsJtldgDutcwOMHalTKzb1wRQn5+iaS+yQ7zI11LdNYhdXUe3P32VHQSq0f2uPd/+5SEmUJp/RNN+yg4BxTO1XipT64nyJ9a7D9oKDYC6fKy+VO98CtcgdnMd3RsaU6U67Knbw76MiGlEfIhuhRJAKUytw26W2QG41zI7wJjlF+vWwADUZhi7KBeTVZi44GkKdTgUBTtQpll2AKhC067DIeUleh+LyTQ7xFgp1gHYx1BKdYfq8RSFOhyLgh0oy+n20GXgacvsANxrmR1grEoo1r12BVCHoZTqZxHxz+wYFOsmIj4o1KEHXwv2N+GQUyDXPDsAVMHUeqnOtqu26Vlusd69qnCamgGAXQylVH8TEavsGBSpK9QjptuiD+hL026215i/hoIdyGHgD3a3zA7AHSfRHRJPz/7022+/5X33xWQeEf/KCwDADoZSqr+KiE10HzrgWx8jYhlNu8kOAkTEYjKL7qbdORhAn/7qswDsaDFZh+t0aW6iGxL6NTvImGSvgpklf38AHncVw3nyvQ6lOt+7jIi/RdPO3UhDQZp2HU07i4h/RHfeAUAfTK3D7i6yA3CHqfUE2RPrm7AKBqBUVxExG8QT78VkFQ4r5avriDiPpv2UHQTYwWKyjO5G0cNR4Jgutw/1gF3o9Epkar1neRPr9qsDlGxIpfp5KNXpfHswqVIdatGdezAN+9eB43rr8D/YyzI7AHeYWu9Z5iqYWeL3BuBhNxFxNpBSfRYR/8yOQRE+R8QbB5NCpZr21+15H3+P7uEvwDHMsgNANZp2FVa2lejcQ8L+KNYB+NZNdJPqm+wgL9a9GWUqmeuI+Hs07dkgfq5h7Lr9628i4qforlkAh2TPOuxnmR2AO0yt9yhvx7pdTACluS3Vv2QHebHuCf06Il4nJyHXBxPqMGDd7/pVRLxLTgIMx000rUlP2Id+r0R2rfckZ2LdfnWAEp0PolTvXIRSfcwuI+KvSnUYuG49zFl062G8ig4cwkksJm+yQ0BlltkBuOMkvIHTi6xVMLOk7wvA/X7Y7sirn8NKx+wmIn6Kph3GOiNgN027jog3EfFLchJgGJRRsI/uPtJ6tvIsswOMgWIdgF8GVKq/CYeVjtXt4aQX2UGABN30+nlE/C0cbgq8jGId9uczeHlOYzGZZ4cYupwd6/YvAZTiYzTtPDvEQXS7dr+E68vY3ETEPJrWQbXAV4vJMiJ+zo4BVOv/2U0Me+juxTbRrSChHNfRtNPsEEPW/8S6/eoApbgaTKne+RSuL2PzObpDeZTqwPe6MxZMrwPPNcsOAFXpHkSZWi+PqfUjy1gFM0v4ngB87yqG9Pu4m0x8mx2D3tzuUj8zTQY8qGm/RNPavQ48h3UwsL+LsGu9RMvsAEOmWAcYn5uIGE4huZjMwuv+Y3IZdqkD++h2r/89Iq6zowDVmGUHgOp095feJC3P6faemSNQrAOMzyyadpMd4iC6XX4+vI3Hh2ja4fz8Av1p2nVEvImIj8lJgDqcbtfYAvtZZgfgXsvsAEPVb7FuvzpAth+iab9khzigT+GAnDG4joi/bXcmAzxP0/66PVvkh/CqOvA062BgX90AjIfY5Xlrav04+p5Yf9Pz9wPgqw/RtKvsEAezmJyHvepj8Dm61S9DeiAEZOquhW/CwabA42bZAaBSVjaWaZkdYIj6LtZnPX8/ADofBzXtu5i8iYh/ZsfgqG6ie8NiOOcBAOVo2o2DTYEnzLIDQJW6gZjL7Bjc8daKq8NTrAMM31VEnGeHOBh71cfgKrqzAFbZQYCB6w42/UdYDQPcdbId5gD2t8wOwL2W2QGGpr9ivStCXvf2/QCI6IqC2cAmfi/CeR1D9jG6n1mrX4B+NO2nsBoGuN8sOwBUqTs0/Do7Bne8N7V+WH1OrHvSC9C/YZXqi8lZRLzPjsHR/BRNOx/UzyxQh6+rYRy4BnzLAabwfMvsANxrmR1gSPos1mc9fi8Auv3Uw5n67d58WmXH4ChuIuJv0bQOOgJyNe08In4Iq2GAztvsAFCtbq2jqfXynG3vrTkAxTrAMP0ywP3UnyLiJDsEB3cVEdNBPQQC6tZdP2ehDAAiIhaTWXYEqNgqOwB3nMSQzmBL1mex7kkvQD8ut4exDcdich6uI0P0MZr2jdUvQHG6h31vIuIyOwqQbpYdACp2Ed4CK9G5qfXD6KdY94QXoC/XMbRdkN3hKsvkFBzeD9uVCwBlatpfo2lnYe86jN0sOwBUqxug+ZQdgztOYmi9QZK+JtYdXApwfDcRcTbA6d9VWAEzJLf71FfZQQB28nXvOjBO3pqEl1lmB+Bey+wAQ9BXsT7r6fsAjNn54PZULybLcDMzJFcRMRvczykwfN3DwL+H19lhnLyFD8/XtJuI+JwdgztOYzGZZ4eonYl1gGH4OLgJ4MXkTUT8nB2Dg7kMpTpQs6ZdRzcwdJUbBEig04CXucgOwL3m2QFqd/xivduNe3r07wMwXlcD3VW9yg7AwXyMpp0NcE0RMDbdw8FZKNdhbGbZAaBq3cNp187yvPVGzsv0MbE+6+F7AIxVt1d9aLoVMK+zY3AQHwf64AcYq+4h4SwcagpjMssOAANgar1M59kBatZHse6VKYDjOdvurBuO7k0nF/dh+EGpDgxS0/66/f2mXIdxONmuKQSeq1td6qyS8rzb3oPzDCbWAer1YftK3dCsIuIkOwQv9sPg9v4D/FFXrv+QHQPoxSw7AAyAqfUyLbMD1KqPYt2r/ACHdxlNu8wOcXCLyXlEvM2OwYsp1YHx6H7fKddh+Eysw8utsgNwr7NYTF5lh6jRcYt1C/ABjmGoe9Wn4Ul57W4i4m9KdWB0ut97/wivuMOQzbIDQPW6NabWqJXnJKxjfZZjT6zPjvz1AcbobHtw2tBchBUwNbuJiFk07ZfsIAApmvZTdPc/ynUYplMTnXAQq+wA3Eux/gzHLta9KgVwWMPcq76YnEXEu+wYPJtSHSAitr8HZ6Fch6GaZQeA6nX3s1fZMbjjJBaTeXaI2phYB6jHUPeqvwqH2NRMqQ7wLeU6DJnhQTgM939lWmYHqM3xivVuV65X+gEOY5h71TvLiDjNDsGzXEXEG6U6wB8o12GoZtkBYBC6s0lcI8tz6rzM/RxzYt2TXIDDmQ9yr/pi8iYifsyOwbNcRTepvskOAlCkr+X6dXIS4HDeZgeAAVllB+Bedq3v4ZjF+uyIXxtgTH7ZHogF/O36AAAgAElEQVQ2RF4BrNNtqT68hz0Ah9SV62/CLlkYjm4wBHg594JlerfdQsIOTKwDlO0qmnaYT4y7g1FM/dRHqQ6wj+735SyU6zAUug44hO7N18/ZMbjXMjtALY5ZrCtLAF7mJiLm2SGOwoGltboOpTrA/r6W6/bJQv1m2QFgQFbZAbjX2faenSccp1j3ahTAISwHfCjkMhxwXZvuAF2lOsDzKNdhKPQdcCjdylNnkZTnJOxa38mxJtZnR/q6AGNxGU07zInubl+bA0vrchPdpPpQH/QA9OPrgabKdajX6+wAMDCr7ADca54doAbHKtY9wQV4vm4yeLhW2QHYi1Id4JCU61C/xWSWHQEGZJgDZfU73Z6LxiMU6wDlmQ923cZichbO4KiJUh3gGJTrUDudBxxKd+/7MTsG95pnByjdsYp1r0YBPM/H7Z65oTKNUJe5Uh3gSJTrUDPFOhzWKjsA93rrHM3HHb5Y90oUwHNdx5APCFlMlhFxmh2Dnf0w8Ic8APm6cn24134YLkUTHFLTrsMhpqXyOeURx5hYd4EBeJ4hr4B5FS7INfkhmnaVHQJgFLrftz9kxwD24i19ODxvN5fp/fZ+nnso1gHK8Mv2Kf1QLSPiJDsEO/moVAfoWfd796fsGMAerEeAQ1tlB+BBhuQeoFgHyHcdXfE8TIvJNCJ+zI7BTj5G086zQwCMUtNehMPboCa6Dzgkh5iWbJ4doFSHLda7VwO8EgWwn+GugOl4pa8OV2ESASBX93Dzc3YMYCeKdTg8ZzyV6TQWk3l2iBIdemLdhQVgP8NeAdMdaP0uOwZPuo6I2cAf8ADUYh7dw06gbPoPOLSm/RQOMS3VPDtAiQ5drM8O/PUAhmzYK2A6y+wAPOkmIs6U6gCF6H4fz0KxAKVTrMNxrLIDcK+3zpa4y8Q6QJ5hr4DpptXfZsfgSfNo2i/ZIQD4Rvf54Cy6h59AmU62ZwkBh7XKDsCDrA79A8U6QI5hr4DprLID8KSftq9bAlCa7qHnPDsG8KhpdgAYnKbdhPNGSnW2PV+TrUMX66cH/noAQzT8FTDdwSauCWX7GE3rYFmAknUPP3/IjgE8aJYdAAbK8E+ZTsJD/+8crljvXvkH4GnDXgHTWWYH4FFX0bTz7BAA7KBpVxHxMTsGcC9v7cMxdNc+69DKZB3MNw45se6CAvC0j4NfAWNavXQ3YboKoC7dw9Cr7BjAHdPsADBgq+wA3OvUcPVXinWA/tzEOJ7uLrMD8KizEbwxATBEszC9B6V5nR0ABmyVHYAHjaHX2IliHaA/w18BY1q9dD8N/o0JgKHqPkPMsmMAf7CY6ELgGLpDvL2tVaZ3sZhMs0OU4JDFuie1AA+73B5ANnTL7AA86LPDSgEq15UMDjOFskyzA8CArbID8KB5doASHKZYt1sH4DE3MYaLzmJyHqbVS3UdY/gZBBgDh5lCaUysw/GssgPwoHl2gBIcamJ9eqCvAzBEF9G0m+wQPbBnrVz2qgMMicNMoSTT7AAwWN09zOfsGNzrdLsKdtQOVax7Qgtwv6to2mV2iKOzW71kP21XBwAwLGfhMFMowTQ7AAzcKjsAD5pnB8imWAc4rrFMcS+zA3Ave9UBhqp7G26enAKIeJsdAAatO6vMg+QyvR37IaaHKtZdSADu+hhNu84OcXSm1UtlrzrA0HVlwy/ZMWD0Rl4sQQ8+ZQfgQWMZJrzXy4t1FxCA+9zEeC4wy+wA3GturzrACDTtedi3Dtmm2QFg4LyFW655doBMh5hYtwYG4K7lKEpN0+ql+jCKtyUAuGXfOuTSi8AxdWdGXWfH4F4nYz7EVLEOcHhXI9prvcwOwB3jODAXgK+6fetjeVMOSvQqOwCMgHUw5ZpnB8hyiGJ9doCvATAk47ixXUxmYVq9NDfRTS0CMDZNu4qIz9kxYKRm2QFgBMYyvFaj0R5ieohifXqArwEwFOM4sLSzzA7AHcvt1CIA4zQPr8pDBhPrcGzdfY4zRco1jgHDP3hZsb6YvArTigC3xnNgaTet/jY7Bt+5HNEKIgDu053vMs+OASP0OjsAjMQqOwAPmmcHyPDSiXX71QG+GseBpZ15dgC+cxP+NwEgIrZvzv2SHQNGZ6RrEKBn9qyXa5SHmCrWAQ7jejTTwt1Nw/vsGHzHChgAvmra8/C6PPRtmh0ABq+753GeSLnm2QH69tJifXqIEAADMM8O0KNxrLuphxUwANxnnh0ARsbgIfTD1Hq5RneIqYl1gJe7HM2Bpd3ZGvPsGPzOChgA7te0XyLiQ3YMGBEHmEI/FOtlG9Ug3kuLdQfXAYyr2JxHxEl2CH5nBQwAD2vaZVgJA30xeAh96M41sw6mXPPsAH16frE+stF+gAf8MrJic1RPnwtnBQwAu5hnB4CRMLEO/TG1Xq5RHWL6kon16aFCAFTqJiKW2SF6s5icRcRpdgx+5yEHAE+zEgb6YmId+qNYL9tZdoC+vKRYnx0qBEClltvX0MZCkVuOD9uiBAB2cRER19khYOCsS4S+WAdTundj2XRiYh3gea5HtYajuyg6V6MM19EVJACwm66AmGfHgMFbTEytQ39W2QF41Dw7QB8U6wDPM7bp7bH931uy85G9KQHAITTtOiI+ZseAgbNnHfrStJ+iW89KmebZAfrwkmLd5CIwVpfbi/g4LCavYiQXxQp8HtXPHgCHdh5KCDgmE+vQL/dG5TqNxWSWHeLYnlesj2RPDsADltkBenYWdkaWwpsDADxf98aTawkcj4l16JdivWzz7ADH9tyJ9ekhQwBU5OP2VeoxcQNehg/RtJvsEABUrmlXEXGZHQMGapodAEbFOpjSvd++AT9Yzy3WZ4cMAVCRZXaAXnUHML3OjoEDSwE4KA/N4Tim2QFghNbZAXjUWXaAYzKxDrC7jyOcGHbjXYalA0sBOJim/RIRv2THgAEa9GQmFMo6mLINulNQrAPs5iYGfkG4o3tla9BPlytxuX1tHwAOaRlen4dD86Yn9E+xXrbXQz6r87nF+tuDpgAo38UIJ4YdWlqGZXYAAAao+1yzzI4BAC/SXc8+Z8fgUYMdUty/WB/wUwaAB9zEOPdbD/biV5ExHpYLQF+a9iIirrJjwKB0ZxQB/TK1XrZ5doBjec7E+vTQIQAKN75p9e4hqldZ8y2zAwAweB6kw2HZsw79U6yX7SQWk0GumX1OsT47dAiAgplWJ8svIzwsF4C+dW9GXWbHgAFRrEPfrIOpgWJ9a3roEAAFOx/dtHpnkBe9ityEaXUA+jPPDgADYhUM5FhnB+BR72MxGdyDR8U6wMOuo2lX2SF6172idZodY+TGt34IgDzdG1Ifs2MAwAtYB1O+wQ3wPadY9/QVGItldoAkg7vYVWas64cAyHUe3TUIeJlpdgAYpe4hsQO5yza4lbP7FevdyP7JcaIAFGWs0+qvIuJ9doyRW5pWB6B33bXHg114uWl2ABixVXYAHvU6FpNpdohD2ndi3bQ6MBbL7ABJTKvnuo6mVWoAkOUiTK0DUK91dgCeNKip9X2L9ekxQgAUZpzT6h3Feq5ldgAARszUOhzCNDsAjFbTfomI6+wYPGpQnYNiHeCuZXaAFN0rWe+yY4zYmB/oAFAOU+vwMqfZAWDkHGJattNYTGbZIQ5l32J9dowQAAUZc7k5qCfHFVpmBwCA7dT6oF7TBmBUFOvlm2cHOJR9i/VXR0kBUI5ldoBE8+wAIzbmBzoAlKa7JnmVHp5rYIfzQVWadh3evCrdYIb69i3WXx8lBUAZxltudh/+/Y7Ps8wOAAB/sMwOABWbZgeAkTO1XraTWEzm2SEOYfdi3RNXYPiW2QESDeaJcYVuwgc/AEpjah2Aeq2zA/CkQXQQ+0ysT48VAqAA451W78yzA4zYxXafLQCU5iI7AAA8g8Gl8r2LxaT6leP7FOuzY4UAKMB4bxytgcl0E2P+2QOgdKuwpxaeY5YdAEatG1y6zI7Bk6qfWt+nWK/+KQLAA26iu3Ecq+ovZhUzrQ5AubprlAfAANTI1Hr5zrMDvNQ+xfqbo6UAyDX2cnOeHWDEVtkBAOAJF2FqHYD6rLMD8KTXtZ/pacc6MHbjXsVhDUymj9G0m+wQAPAoU+sA1Khpv4RDuGtQ9Rv0+xTrp0dLAZBn7NPqVV/EKqekAKAWq+wAUJlZdgAgIkyt12CeHeAldivWFxNrYIChWmUHSDbLDjBSl9sJCgAoX/eG1cfsGACwJ3vWy/e65t5514l1B5cCQzTuVRyLyauIeJcdY6RMqwNQm2V2AADY0zo7ADuZZwd4rl2L9dkxQwAkWWYHSGYNTI7raFqTEwDUpRtGuMyOAQA769a+unaVr9puYp8d6wBD8nnU0+qdWXaAkTKtDkCtXMNgN9PsAMDvDDWV77TWdTAm1oGxcmNY8VPhit2Evf4A1Kp74+o6OwZU4DQ7APC7dXYAdjLPDvAcdqwDY3QZTbvODpFqMZlFxEl2jBH6tH0dEQBqZTgBgHo07ZfoBpwoW5WDf7sW66+PmgKgX6vsAAWo8qI1AMoIAGq3CgUFAHWxDqZ8p7GYVNdTPF2sLybT48cA6M11NO0qO0QBZtkBRuhqOy0BAPXq3rxSUABQk3V2AHYywGLdoRvAsJgY7h6YehOpf372ABgK1zQAarLODsBOFOsABXNwZGeWHWCEbsJ0HwBD0b2BdZUdA4rWnWkElKBpN+G6VYOT2tbBKNaBMVk5ODIiKnwKPAAOLQVgaEytA1CTdXYAdlJVX7FLsf7m6CkA+uEGsDPLDjBCfvYAGJpP4RBTAOqxzg7ATgZXrL86egqA4/u8ff1r3BaTNxFxkh1jZK4dWgrA4DjEFIC6rLMDsJOq1sGYWAfGwsRwp5oL1ID42QNgqFzjAKhD90D4MjsGO6mmt9ilWDfZCNTuOpp2nR2iELPsACNkmg+AYereyLrOjgEAO1pnB2AnAynWu5UBALVbZgcoyNvsACNjBREAQ2dqHYBarLMDsJNq1sE8NbFuvzpQu5swMdxZTGbZEUbIzx4AQ+daB0AdvMlek0EU6ybWgdp92u5SwxqYDMoGAIatezPLzlq4y6AilMk1qw6DKNZdCIDaLbMDFGSWHWBkPnqoA8BIrLIDQIEMKkKZ1tkB2EkV62BMrANDdmm/9XfsV++XaXUAxsI1D4BarLMDsLPqi3UT60DNVtkBimG/et9uommVDACMQ/eG1ufsGADwJHvWa1J9sT7tIwTAEVxH066yQxRklh1gZJTqAIyNax8AtbBnvQ4npQ8JPlWsn/aSAuDwVtkBCjPLDjAyygUAxsa1D4BarLMDsLOip9YfLtYXk2l/MQAObpUdoDD2q/fHGhgAxsc6GADqsc4OwM4qLdatgQHq9dmhpd8o/NWpAVKqAzBWroEAlM+e9ZqcxmLyJjvEQx4r1h1cCtRqlR2gMMVehAZqnR0AAJIo1gGohT3r9ZhnB3jIY8W6Igao0bU1HHfMsgOMjJ8/AMbJOhgA6rHODsDOil0HY2IdGBql5l0elPbn87ZUAICx8lkMgBqsswOws2LXwZhYB4bmIjtAUbqDqE+zY4yIMgGAsVtnBwCAHXzJDsBeZtkB7vNYsQ5Qm0uHlt7hIWm/1tkBACBV91nsKjsGADyqe9PY9aoe8+wA93msWH/bWwqAw1hlByiQYr0/Vx7sAEBEeIMLgDqsswOws9fbN/KLYmIdGIqbcBN3n1l2gBFZZwcAgEL4TAZADdbZAdhLcYeY3l+sF7oQHuARnxwaeS+/z/ujRACAiIim/RIR19kxAOAJ9qzXZZYd4I8emlh/1WsKgJdzaOkfda9JnWTHGImbaNp1dggAKMg6OwAAPKpb5elBcD3exWJSVGetWAeG4Ho7GcX3TKv3Z50dAAAKs84OAAA70CXUpah1MA8V68oYoCam1e/nd3l/rIEBgO+5NgJQg3V2APYyyw7wLYeXAkPgxu1+s+wAI7LODgAARenOvrnKjgGJ1tkBgJ2YWK9LFRPrsz5DALzA5XYvGneZWO/HtZ9BALjXOjsAADzKWVm1OYnFpJhy3cQ6ULtVdoAiObi0T+vsAABQqHV2AADYwWV2APYyyw5w66FifdpnCIAXsAbmftPsACOyzg4AAEVqWp/TAKiBdTB1KX5i/bTXFADP83G7v5O7ZtkBRmSdHQAACmYKEIDSrbMDsJfTWEyKWH1rFQxQM1NQD5tmBxgJ+9UB4HHr7AAA8AQT6/WZZQeIuK9YX0xm/ccA2NuN14sfVcTT2xFYZwcAgMIpKwAoWzcsdZMdg73MswNEmFgH6qVUf9zr7AAjsc4OAACFW2cHAIAdrLMDsJfXsZi8yg5xX7E+7TsEwDOssgMUq5BdYyOxzg4AAEXrzsO5yo4BCTbZAYC9eMOqPumHmCrWgRpdR9Ous0MUbJodYCRu7FcHgJ2sswNA73xOhNqsswOwtyKLdYDSWQPzOBPr/VhnBwCASpgCBKB0rlX1mWUHuK9Yn/UdAmBPq+wAhZtmBxgJH7wAYDeumQCUrVtddp0dg72cxGIyywxgYh2ozXU0rZuzx02zA4zEOjsAAFSh++x2kx0DAJ6ga6hP6jqY+4r19BNVAR5hDczT3mYHGAV7/gFgH8oKAErnWlWfWeY3v69Yf917CoDdrbIDFG0x8XC0H1fZAQCgMuvsANAjnxWhTuvsAOztdSwm06xvbhUMUBNrYJ7m4NJ++DkEgP24djImv2YHAJ7FtapOs6xv/H2xntjwA+zAGpinTbMDjIQPXACwH9dOAMrmANNape1Z/+PE+jQjBMCOVtkBKjDNDjASygEA2EfTbrIjAMAO3OvVZ5b1ja2CAWphDcxuptkBRsHBpQDwHJfZAaAnVsFAvfQO9TmJxWSW8Y1NrAO1sAZmN9PsACPg1UAAeB5lBWPhZx3q5c9vnVLWwSjWgVoo1nfj8NLj80ELAJ5nkx0AAJ7gfq9Os4xvahUMUIMbqzd2dpIdYAR80AKA53ENBaBs3ZkgN9kx2NvrWEymfX9TE+tADUyr72IxMa3eD6UAADyHQQnGY5MdAHgR93x1mvX9DRXrQA0U67t5lR1gJDbZAQCgYqYAGYNNdgDgRRTrdZr1/Q2tggFKdxNNq1jfzTQ7wCg0rQ9ZAPB8rqMAlM61qk69H2BqYh0o3To7QEWm2QFG4Co7AABUTlkBQOk22QF4lpO+V+T+sVg/7fObA+zAtPrurII5vk12AACo3K/ZAeDonCcAdfNnuGazPr+ZVTBA6RTru3N46fGZsgOAl1lnBwCAHXhbuU69roP5WqwvJiYdgdJcRdOaaqIkm+wAAFA5n+0AqMEmOwDP8rbPb/btxLpJR6A0q+wAlfF7/Pg22QEAoGoOAWf4TLnCMLhe1Wox6W1q3SoYoGTr7ACVOckOMAI+XAHAy11nB4Aj8lYGDIN7v3rN+vpGinWgVNcmmvZgnVc/rCYCgEPYZAcAgCdssgPwbLO+vtG3xXpv3xRgBw4t3Y81MMd3mR0AAAZikx0AjmidHQA4AIN+NXvd1/ChiXWgVOvsAAAAHMUmOwAA7MCZCfXqZc+6Yh0oU9OaWN/PNDvACKyzAwDAQGyyA8ARWR0Iw7HJDsCzzfr4Jt8W69M+viHADj5nB6jQNDsAAMCONtkB4Iisj4Dh8Oe5XrM+voliHSjROjsA3GOdHQAAAIDeKNbrdRqLyfTY38QqGKBE1sDsr5eDOQAAXqxp19kR4IgUcTAcm+wAvMjs2N9AsQ6U5jqadpMdokJvsgOMgJskAAAe17R2rMNQNK17wLrNjv0Nvi3WlTJACdbZAeBebpIA4JCuswPAEdxkBwAO7io7AM82O/Y3+LZYPzn2NwPYgTUwlMjNPwAc1iY7AByB6VYYHgNW9Tr6nnWrYIDSrLMDVGqaHWDgNtkBAAAA6N06OwAvMjvmF1esAyW5sm7j2U6zAwAA7MFkL0O0zg4AHNwmOwAvcnbML94V64uJ/epACayBoVRu/gHgsAxTAFCDTXYAXmR2zC9+O7H+6pjfBGBH6+wA8AA3/wAAPGWdHQA4OENWdTs55kC5VTBAOZp2nR0BAIBeeGgNQPmsqx2C2bG+sGIdKMVldoBqWefVh012AAAYGBOADJGfaxgmfUXdjj6xrpQBstmv/nzWeR3fJjsAAACFM9kKQ+XPdt1mx/rCdqwDpVhnBwAAAHimq+wAwNF4G6Vup7GYTI/xha2CAUpwE03rQgUAANTKRCsM1yY7AC82O8YXVawDJVhnB4BHOVgXAA7NUAVD42cahmuTHYAXmx3ji1oFA5RgnR0AAIAe2UXN8PiZhuHy4Kx+s2N8UYeXAiVYZwcAAAB4gXV2AOBIPAwegqPsWbcKBshmv/rLzbIDAAAAwIBdZgfgxWaH/oKKdSDbOjsAAADAiziTB6B0B9/YolgHsplWp3QmEwAAeMxNdgDg6NbZAXix2aG/oMNLgWzr7AAAAAAvYFgIoHyvYzE5aAd+W6y/PuQXBdiZVyYBAIC6bbIDAEe3zg7AQRx0HYxVMEAmKzYAAMbL+gyGYpMdAICdzA75xRTrQKZ1dgAAANJYn8FQrLMDAEfmbfuhmB3yiynWgUxupgAAgNr9mh0AgJ28PeQXU6wDmdbZAQAAAF6kaQ0MwThYZzsEi8nB9qz/+ZBfDGAPV9G0JjsAAICaXWUHAGAvs0N9oT9HxKtDfTGAPZjqAAAYN/eiDMEmOwDQm3V2AA5idqgvZBUMkGWdHQAAgFSvswPAARgYAqjLAVfBAOTwARQAAKid+xoYD3/eh+E0FpPpIb6QYh3I4YAfAACgfpvsAEBvnBM3HAeZWlesAxmcpA0AANTPwBCMySY7AAczO8QX+XNETA/xhQD2sM4OAAAA8EJX2QGAHjXtJjsCB3OwifXpIb4QwB5MdQAAALXbZAcAeneTHYCDeHuIL2IVDJBBsX5Ym+wAAAAwQu5rYHz8uR+KxeTFU+uKdaBv116fOrhNdgAAABghBRtAvWYv/QKKdaBvPnwCAIzdYjLNjgAH4N4GxmedHYCDMbEOVMeHTwAAptkB4IVuvIkLUDXFOlCddXYAAACAFzIwBOO0yQ7AwbyOxeTVS76AYh3omw+g1OYgp4UDADAo7mtgnDbZATioF02t/zkOsKgdYEfX0bS/ZocAAAB4IcU6QP1mL/kPm1gH+rTJDjBQPtQDALWZZQeAF/IZHMaoadfZETioF0+sA/RlnR1gkLwFAAAA/WpaxTpA/RTrQDV8+KROLzzQBACAQbnMDgCkuskOwMGcvuR+X7EO9EmxTq1e9BQbALhjmh0AXsB9DYyb3wHD8uz7fcU60JebaNpNdggAAIowzQ4AL6BUAxiO2XP/g4p1oC8+fB6X11EBAKAf7m1g3DbZATgoE+tA8Xz4pGbT7AAAMDDWrFEvB5fC2G2yA3BQinWgeD58UrNpdgAAGJiT7ADwTN4UBRiWZx9gqlgH+rLJDjBwm+wAAAAwAuvsAEC6TXYADu5ZU+t/DlN4QB+adp0dYeA22QEGbpodAAAGYzGZZUeAF/AmLrDJDsDBzZ7zH/pzRJweNgfAHdfZAeCFptkBAAAogmIdYHiePbEOcGw+fB7fr9kBAAB25OBSanUdTbvJDgGk22QH4OAU60CxFOvH57/j41IAAMDhPOuAMCjAOjsAUAAP2IboWRtdFOtAH5S+1O4kOwAADMg0OwA8k/sagKF6xhkwinWgD5vsACNgFcyxLSbT7AgAMBDT7ADwTOvsAEAxbrIDcHB7v6muWAeOr2lNdhyb/477MM0OAAADYcUadfKZG/jK74PhUawDxbnODgAHYh8sAByGFWvU6DI7AABHNd33P6BYB45tkx1gRK6yAwyc6ToAeKnFxPWUWq2zAwBwVG/3/Q8o1oFjW2cHGBF71o/LxDoAvJzrKbVaZwcAirLJDsAR7DkAoFgHjm2THWBEFOvHZcIOAF5ulh0AnqVp19kRgKJssgNwFIp1oCib7AAj4vCU4zJhBwAv53pKjexXBxiH6T7/sGIdODZlL0PxOjsAAAyAN8Co0To7AAC9mO3zDyvWgWO6iaa1nqQ/6+wAg7eYTLMjAEDlFOvUaJ0dACiOIcJhmu7zDyvWgWNyoWFoptkBAKBai8mriDjJjgF7s18duMsQ4TCdbj+v7ESxDhzTJjvAqPjA34dZdgAAqJhpdWpkvzrAuOz8eUWxDhzTJjsAHJgD1wDg+RTr1GidHQCAXinWgSJYBdM/EzXHpRAAgOebZgeAZ1hnBwCKtMkOwNFMd/0HFevAMdk5xtAo1gHg+VxHqY91i8B9mnaTHYGjMbEOFMCH0Azr7AADd7LPQSYAwHfeZgeAPX3ODgBA7xTrACPlLYHjM20HAPtaTKbZEeAZ1tkBAOjdzgN1inXgWOz6zmGv/fEp1gFgf66f1GidHQCAFDt9blGsA8dicjrHJjvACCgGAGB/rp/U5jqa1tAK8Jjr7AAcjWIdSOVDaAYHqPRhmh0AACo0yw4Ae1pnBwCKt8kOwNFMd/mHFOvAsZhYz3OVHWDgHLwGAPszsU5t1tkBAEhjYh1IZWI9j4cax7aYKAcAYFfddfMkOwbs6VN2AADSKNaBVMrdPOvsACOgWAeA3bluUpuraFr3MwDjdRKLyaun/iHFOnAcDvrJtMkOMAIKAgDYnesmtTGtDsCTn18U68Ax3GQHGLlNdoARmGUHAICKzLIDwJ4U68AuDBQOm2IdSOHikst//8f3OjsAAFShe43adZOaXHv7FtiRlVHDZhUMwOh0+yC9NXBsi8ksOwIAVMAaGGqzzg4AQBFmT/0DinXgGNbZATC13gNFAQA8bZYdAPZkDQwAERHTp/4BxTrAMCnWj2+WHQAAKjDLDgB7WmcHAKAIp0/9A4p14BjW2QFwgGkPZtkBAKACb7MDwB4+b9cqAkDEYvLom+qKdYBhMrF+fCexmEyzQwBAsZxHQn2sgQHgW48eYKpYhzxKNhwAACAASURBVP/P3t1dR3GlbQO+Pes7hzeBQhMBTAS0IzATAe2zOrMmArcjMD6rM5oIRkQwTQQWEYxUCQyKgO9gt4yMBail7t71c11raRmEfu5lbHX3XU89m0O4qB0AxfqRLGoHAIABW9QOADva1A4AjIo7XKZv8bU/VKwD+9f1F7UjzF65hfWqdowZWNQOAAAD9qJ2ANjBe69jgB0ZaJu+k6/9oWId2Ddl7nB4kD+8Re0AADBIbfM4ydPaMWAH69oBABick6/94d+SvDtODmAmlLnDsakdYAae2LMOALda1A4AO7JfHYDPObwUYKYuageYiUXtAAAwQNbAMCbWwABwm0df+0PFOrBvF7UD8Ad3DxyH4gAA/mpROwDsYFM7AAAD1TaLL/2RYh3Yt4vaAdjqesX6cSxqBwCAQWmbZ0me1I4BO1jXDgDA+CjWAabNORqH9yhtY2odAD5Z1A4AO7g0kALAVyy+9AeKdWDfNrUD8CdeJBzHonYAABgQF5wZE4eWAvA1j7/0B4p1gGlTrB+HAgEAkqRtHid5XjsG7GBdOwAAg/bsS3+gWAf27UPtAPyJYv04nmz3yQLA3LnYzJhYAwPAt5x86Q8U68B+eWI6LOXv46p2jJlY1A4AAAOgWGdMrIEB4Fu+eCC7Yh1g+lzsOI5l7QAAMACL2gFgB69qBwBgBNrm5LZ3/y3JxVGDAFNmMnqYNrUDzMTTLz3YAsAstM2LJI9qx4A7ep+uv6gdAoBROLntnYp1YJ9MRg+Tv5fjcfs7AHPmcZAxWdcOAMBonNz2TqtgAKZvUzvAjCxrBwCAihTrjIn96sBDXdQOwNGc3PZOxTrA1HX9hyTva8eYCetgAJgna2AYF2tggIfzc2ROnt32TsU6sE+b2gH4Iutgjse0HgBz5PGPMXFoKQC7eHzbOxXrAPOwqR1gRpa1AwBABYp1xsQaGAB2cXLbOxXrAPOwqR1gRqyDAWBe2mYZa2AYj7fbVYkAcFdPbnunYh3Yp4vaAfiCsvvtsnaMGVnWDgAAR2RanTFZ1w4AwAjdMkD3t5hiBPbnonYAvmpTO8CMLGsHAICjaJvHSX6oHQPu6Cpdbw0MAPdx8vk7TKwDzMemdoAZeZK2ufXUcACYGNPqjMm6dgAARuvk83co1gHmY1M7wMyc1g4AAEfg8Y4xWdcOAExIuWuL+Tj5/B2KdWCfzmsH4CvsWT82E3wATFvZNfq0dgy4o/fpeq9XgH1yl/K8/OVCimId2J+u/1A7At+0qR1gRh6lbZa1QwDAAZlWZ0zWtQMAMGp/uZCiWAeYl03tADOzrB0AAA5oWTsA7GBdOwAA0/K3dP2mdggAjmZTO8DMPN/eJg8A09I2L5I8qh0D7uiNu2sBeKDnn7/DxDqwL+9rB+AOyp51f1fHtawdAAAOYFk7AOxgXTsAANOjWAf2xQTIeGxqB5gZ+2cBmJZyN9YPtWPAHV26Ux+AvWibP+1ZV6wDzM+mdoCZcYgpAFOzrB0AdvCqdgAAJuPxzd8o1gHmpuvPakeYoWXtAACwR+7GYkzWtQMAMBknN39zXaxfHj8HABW9rR1gZhxiCsA0lLuwHFrKWDi0FIB9Orn5m+ti/eLoMYCpOa8dgJ1sageYoVXtAACwB8vaAWAH69oBAJguq2CAfTEJMi7WwRzfi7TN429/GAAMVDmw63ntGHBHDi0FYN8WN3+jWAeYo66/iDVgx/YopvwAGDe71RkTh5YCcFCKdYD5MrV+fAoJAMapnBXysnYMuKOrWAMDwP6d3PyNHesA86VYP74n20PfAGBslrUDwA7OHFoKwAE8ufkbxTrAXJWdk1e1Y8zQsnYAANhJOSPEXVeMyap2AGAWnKE1c1bBAPuyqR2AezG1fnzP0zaL2iEAYAfLlLNCYAzebc8TAji0Z7UDUEE5zD2JYh1g7hTrdaxqBwCAHZhWZ0wcWgrAIf1xp8J1sW73GMAcdb1ivY7n20PgAGDYytkgT771YTAQl57fAnAs18X6edUUANT0tnaAmVrVDgAAd7CqHQB2YFodgENbXP/CKhgATPXU8dLUOgCDZlqdcblKsq4dAoD5UKwDoFivZ1U7AAB8hd3qjMk6XW/NLQCH9pcd6wDMVXkBYh1MHabWARimtlkkeVo7BuzAGhgAjuHZ9S9Ksd71m1pJABgEU+v1rGoHAIBbrGoHgB28Sddf1A4BzM5J7QDUZWId2A8X6MZOsV6PqXUAhqVMqz+vHQN2sK4dAJilk9oBqMIqGABusA6mtlXtAABwg5UajMk7Qz4AHNEfq/JuFutXFYIAMBym1usxtQ7AMLTNMnarMy6r2gEAmKebxfp5tRQA1Nf167jIWtOqdgAAiMcjxuXStDoAtVgFA8BNptbreZm2efbtDwOAAynT6k9qx4AdrGoHAGCGynk0inUA/kSxXpedtgDUtKodAHZwub3jEqAWg1Ezd7NYv6gVAoCB6PqzJJe1Y8zY8+sr3wBwVG2ziml1xmVVOwAwe49qB6AuxToAnzO1XpepdQCOq20eJzmtHQN2cGVaHYCKThKrYAD4K8VuXU+3O24B4FhOY+qOcfF8FYCaThLFOgCf6/qLJO9rx5i51XZ6EAAOq21OkvxcOwbs4CqKdQAG4GaxvqkVAoDB8WKlridxSz4Ax+Exn7F5la7/UDsEMHNt4+BSTKwDcCt71us73U4RAsBhlAOzf6gdA3ZgWh0YCncYz9siUawDcJsyBfSmdoyZe5RkVTsEAJOmoGRsTKsDMBg3i/XzaikAGKJ17QDk5XaaEAD2q21OkzytHQN2YFodgEH5VKy76gvATV2/SXJZOwZeQAKwZ+WA7FXtGLAj0+rAkFgFg1UwAHyVUre+p9upQgDYl1cpK8dgLEyrA0Pj8NJ5e578tVh/XyEIAMO1rh2AJMlqO10IAA9TVoy9rB0DdmRaHYDB+bxY90AFwCcOMR2KRzGlBcB+eDxhbEyrAzBIVsEA8C3r2gFI4iBTAB7KgaWMk2l1YIjcUcxfivXzKikAGK5yiKlVYcOwrh0AgJFqm5M4sJTxuUzXr2qHALiFHetz1zYnVsEAcBduvx2GJ2mbVe0QAIzSOg4sZXxWtQMAwBf8pVgHgNucpey3pL6f0zamIwC4u7Z5keR57Riwo8t0/bp2CAD4EqtgAPi2stdyXTsGf1jXDgDASLTN43jcYJxWtQMAfMVJ7QDUZxUMAHdlHcxwPN0eQAcA37KOFTCMzzvT6sDAPakdgPqsggH2o0xDMWVdf5HkTe0Y/GG1PYgOAG5XVsD8UDsG3MOqdgAA+IbPdqx3/aZODmAC7Hyeh3XtAPzhUfx9APAlVsAwXu90EwCMgMNLAdhBeZHzrnYM/vDcShgAvmAdK2AYJ89tgGFrm0XtCAzDbcX61dFTADAm69oB+JNf0zbuGAHgEytgGK836frz2iEA4C5uK9Y9iAHwZeUgqcvaMfiTtXMOAEiS7fkb68op4D6uYrc6ACNiFQwA97GqHYA/eZrkVe0QAAzCOlbAME6v0vUXtUMA3IE7hklye7F+cewQAIzOWawOG5qXaZtl7RAAVFTO3XheOwbcw2UMCQDj4W5hki8cXnpx7BQAjEzXf4gXP0P0yr51gJkqP/9/rR0D7mm1fX4JAGNxa7EOcB8ntQNwdK9ian1oHsW+dYD5KT/317VjwD29257hAzAWJ7UDMAy3FeubY4cAJuGkdgCOzNT6UNm3DjA/r1J+/sMYrWoHANjRSe0ADIOJdQAeQoE7TC+3e3YBmLpyvsbL2jHgnt6k6ze1QwDAfdixDsD9lan1N7VjcKtf0zaL2iEAOKCyV91FbsbqKolBAGCMnGtFktuK9a6/OH4MAEZsVTsAX3SWtjmpHQKAA/i0V/1R5SRwX68cWAqMlMdeklgFA8BDlQuyptaH6VFKue4wU4DpsVedMbtM169qhwCAh/hSsf7uqCmAKVjUDkBVq9oB+CKHmQJMjb3qjN+ydgCAe7Fuk08em1gH4OFMrQ/dy7SNch1gCspe9de1Y8ADvHVgKQAT8PRLxfr5UWMAMAWr2gH4qp+2E44AjFVZ7bWpHQMewIGlwNid1A7AcHypWHeACAC7KVPrv9SOwVe93k46AjBOmzgwjXFbbZ8zAozVSe0ADIdiHdiXk9oBGIRXKZNIDNdGuQ4wQm2zjsNKGbf36Xqr6YCxe1w7AMNhFQywL09qB2AAuv5DHJQ5dI9SynVPCAHGwmGlTIMVMMAUGFLiDw4vBWDfTK0Pn3IdYCzaZhGHlTJ+vzmwFICpub1Y94AHwH2ZWh+Lp1GuAwxbWd11VjsGPNBVHHIPTMfz2gEYDhPrwP60zUntCAxE16+SXNaOwTc9jYsgAMNULnyu47BSxm+5HbwAgEn5WrH+/mgpgKk4qR2AQVnVDsCdvNweiAfAsGzisFLG72263l0XwDSU9Wzwh68V664oA3B/Xb+Oi7RjoVwHGJLyM1mpzthdJVnWDgEAh/K1Yv38aCkAmKrT2gG4s5dpG39fALW1zSrJy9oxYA9WVsAAE7OoHYBhMbEO7NOidgAGphyG/a52DO7s17TNsnYIgNkqP4N/rh0D9uBdut45LgBM2teK9YtjhQBg0pa1A7CT18p1gAra5kWS17VjwB5YAQNM1aJ2AIZFsQ7AYXX9RZLfasdgJ8p1gGNqm2dJ1rVjwJ6sts//AKbmce0ADItiHdinZ7UDMFirlOklxkO5DnAMpVTfJHlUOQnsgxUwwJQ5WJw/+XKx7gozsDtXb7ldObhqVTsGO3u9LXwAOASlOtNiBQwwXW1zUjsCw/O1ifUkuTxKCgCmr0wvva8dg51tlOsAB9A2j1PWvyjVmQorYIApO6kdgOH5VrF+cYwQwGQ8rx2AwTutHYCdPYpyHWC/Sqm+iVvKmQ4rYICp83qIv1CsA3A8Xb9J8qZ2DHamXAfYF6U602MFDDAHVt/yF4p1YL/Ki0X4mtM4yHSMlOsAD6VUZ5qWVsAAM7CoHYDhUawD+6Z04+scZDpmynWA+1KqM01v0/VntUMAHMFJ7QAMj2IdgONzkOmYKdcBdqVUZ5ouYwUMMB9PagdgeBTrwL4p27irZe0A3JtyHeCulOpM13J7JyLAtLXNonYEhunrxbo9acDu7Fjnbrr+PMlvtWNwb9fl+rJ2EIDBUqozXb9sD6UHmIOT2gEYpm9NrCfl9i6Au1Kss4tVPM6M2aMkr5XrALdQqjNd79P1q9ohAI7opHYAhukuxfrFoUMAk2I1BHdXbh8+rR2DB1OuA9ykVGe6rpK8qB0C4MgWtQMwTHcp1s8PngKA+er6syRva8fgwZTrAIlSnak7tTIWmKGT2gEYprsU6w4jAXbxvHYARmmZMgHFuL1O27gDAZivcqjzJkp1pulNun5dOwTAUZUL5k9qx2CYTKwDUF9ZCbOsHYO9+DVts64dAuDolOpM2/tY3wfMk3W3fJGJdWD/ygtL2E1ZCfOudgz24qVyHZiVT6X6o8pJ4BCukiy3gxAAc6Pf4Iu+Xax3/ebwMYCJeVw7AKO1jJUwU1HK9XLrJMB0lfMlfo9Snek6Tde7kx2YK8U6X3J5l4n1RMkB7OakdgBGqhyG5Tbj6XiZZKNcByarlOqva8eAA7JXHZi7k9oBGKyLuxbrrk4DuzipHYARKy/e3taOwd48TSnXT2oHAdirsvJKqc6U2asOkDyvHYDhumuxfnHIEMDknNQOwOgt426pKXma5Nz5C8BklFL9Ze0YcED2qgN4/cI3KNaBQzipHYCRKy/ilrVjsFePUibXF7WDANxb2zxO25xHqc702asOYL8632AVDHAIJ7UDMAFdf5bkTe0Y7NWjJP/Z7iQGGJcytbZJuQsHpuw3e9UBkijW+Ya7Futu/wJ28aR2ACbjNMll7RDs3eu0zavaIQDurNxts4lSnel7n663Vx2gUKzzVXcr1rt+c9gYwOTYRcY+WAkzZT+lbdZpm8e1gwB8VbnL5j8pd93AlF0lWdQOATAgDi7lq+46sZ44RA7YjbKM/SgXd3+pHYODeJmyd93PC2CYyiGlr2vHgCNZOKwUYMvZUHzbxS7Fuj3rwC5MrLM/Xb9K8r52DA7iaZJzd7kAg+KQUubnR4eVAvyJ1yd8y07F+sWhUgCTZAKVfXsRd09N1ZOUyfUXtYMAbC/0XcQ+debjjcNKAf5Csc43KdaBQ1nUDsDEdP1FymGmTNOjJP9O26xqBwFmrG1Ok/we+9SZj/fp+mXtEAADtKgdgOGzCgY4FBPr7F+ZpnpbOwYH9bNDTYGjK6tf1kl+rR0FjugyiiOAvyqvRZ7UjsHwmVgHDsXt0xzKMuWFINN1fajpSe0gwAyU1S+b2KfOvFwleeGwUoBbLWoHYBzuXqw7yATYlcMIOYTyAnBZOwYHd32o6aJ2EGDC2maZUqobCGBull7jA3yRLoO7ON9lYj0xIQjsxioHDqPrN0l+qR2Dg3uU5D/2rgN792n1y+vYp878/Ctdf1Y7BMCALWoHYBQ+7FqsXxwiBTBZi9oBmLCuXyV5XzsGR/Fz2ubM3nVgL8oddeex+oV5epOuf1U7BMDAPa8dgHHYtVjfHCIEMFkntQMweS9SdoQyfT+krIZxWyZwf+UOmN/jQDLm6V26flk7BMCgWUXJDkysA4d0UjsAE9f1F7FvfU6eJPl9uxMZ4O7a5iRts0nyc+0oUMn7lIEEAL5uUTsA46FYBw7JZCmHV3aE/lY7Bkf1Om2zthoGuJNyMe48butmvq6SvNgeAA/A1y1qB2A0zr/7+PHj3T+8vID938HiAFP0f57EcxRtc57kae0YHNVlSlFwXjsIMEDltcs6ZZUUzNVVkoXHSoA7apsdilJmreu/221ivZRjdtkCuzC1zrHYtz4/16thTmsHAQambV6k3G2rVGfulkp1gDuyX50d7boKJim3UQLclWKd47Bvfc5+TducWQ0DpG0ep23Okvw7yaPacaCyH7cr8wC4m0XtAIyLYh04tJPaAZgR+9bn7IckF6ZMYMZMqcNNv6Tr17VDAIzMonYARuMyuV+xfrHfHMDEmVjnuLr+NMm72jGo4lGS/6RtXtUOAhxR25ykbTYxpQ7X3qTrV7VDAIyQg865q4vExDpweB6YqOFFtleQmaWf0jam12EO2maV8vrE8w0o3qTrl7VDAIyO1w7cg2IdOLy2OakdgZkph22/qB2Dqp6kTK/bvQ5T1DaLtM15kp9jSh2uvVeqA9zbonYAxmf3Yr2UFVf7jwJM2EntAMxQ158n+bF2DKq73r1+WjsIsAflcNJ1kv8keVo5DQzJ+yiFAB7CYBa7OE/uN7H+xycD3NGidgBmqhza9aZ2DKp7lOTXtM25WzxhxMoFsoskLysngaEppXoZggNgV+UOVxfs2cWHRLEOHIcDTKmn3BL9vnYMBuFpPq2HOakdBrijT2tffo21L/A5pTrAwy1qB2Cc7lusX+wzBDB5inVqW8RhpnzyQ5LztM3K/nUYsLY5SducxdoX+JKrJEulOsCDWQPDri4SE+vAcTypHYCZ+3SYqTNCuPYo5dDDi7TNsnIW4KayR/1Vkv+mXAgD/uoqZVLda3OAh1vUDsDoXCSKdeBY7DWmtvLC0wGWfO5Rktdpmws/p2AA2maV8kLlp7pBYNCU6gD70jbPYhiQe7pfsV4m/9xSD+zCOhjqK4eZ/lI7BoP0JGX/+kbBDhW0zTJtc5FyJ4k96vBlSnWA/VrUDsAoPejw0sSedWA3inWGoetXSd7UjsFgPc+ngt3PLTi0T4X665gWg29RqgPsn/3q7G77WPyQYn2znyTATCioGI6uXyZ5XzsGg/Y8ye9pm3Xa5qR2GJictlmkbc6jUIe7UqoD7FvbPE553g/3YmIdOJantQPAZxZRrvNtL5P8V8EOe1IK9U2S/8RzA7grpTrAYZhW5z6urn/xkGLdgzqwG3uLGZJyXsgyNx4U4StuFuyL2mFgdMrKl01KoW4yDO5OqQ5wOIvaARilPx6T71+se2AHdmcdDMNSHssWUa5zdy/jkFO4uz/vUFeow26U6gCHZWKdB3nIxHriFnpgN4vaAeAvyovV09oxGJ2bh5x6Qg43tc1jh5LCgynVAQ6pDMk8qh2DUbq4/sX/e+AXOo/diMDdmVhnmLp+nbZJSgEEu3ie5Hna5jLJKsnZds0QzE85AOx0++aFKtyfUh3g8AzHcF8X17946MT6xTc/AuCTJ9sX3TA8Xb9O8lvtGIzWk5QLMxdpm5WDTpmVtnmWtlkn+V+Sn6NUh4dQqgMch2KdB3tosb7ZRwhgVha1A8AXdf1pkje1YzBqj1KKRQedMn2fDiT9PeX8AeBh3kepDnB4bfMsVtVxf388Tu9jFQzALp4lOasdAr6o65fbtTBKIh7qZZKX1sQwKeVujOX2zQtS2J/rUt3jBMDhLWsHYNT+eKx+2MR6edC/fGgaYFYWtQPAHZzGAd3sz801MevthAyMS9u8SNucJflvyl0ZSnXYH6U6wHEtagdg1P54vP7u48ePD/tS5fbP5w/7IsCsdP13tSPAN5XzADZxSDeH8T7JOslakcJgmU6HY1CqAxxTeX7z39oxGLEbndZDd6wn9qwDuzKtyRiUF7iLmFznMJ4m+TXJ/9I2Z2kbhycxDG3z+MbudNPpcFhv0vXPlOoAR+V5N3vz0B3riT3rwO4W8bODMej6D9vDJ8+jWOJwfkjyQ9rmKuUMilcOruPoysWdF3G+BBzLm3T9snYIgBla1g7AqP1p8G4fq2BO4hYKYDdv0/WuEjMe5S6LTZJHlZMwH5cpJftayc7BfCrTX8TPNzimX9L1q9ohAGZHh8nDvUvXL65/8/BiPUna5kM8GQfu7jJdf1I7BOxEuU49Snb2R5kOtf2Yrl/XDgEwS21zmrKOEe7rT3ec7atY38QBpsBu/p6uv6gdAnaiXKe+65J9k64/qx2GkVCmwxBcJVn62Q1QUdtcxIpPHuZPd53tY8d6UkoGxTqwi0WSdeUMsJuuP9/uXN9EOUUdT5L8lOSn7U72TUrRfubwO/5QbnNepBTpP1TNAiSlVF+46wigojIkpVTnof70mmtfxbonCMCuFlGsM0bKdYbjUa4PPk1ep23e59M0+6ZmMCooP5depDy+Pq2aBbjpfZIX7tQEqG5ZOwCT8KcOXLEO1LKoHQDuTbnOMD3dvv18Y5q9vJmSnJ4ydbVIKdPdOQrD9C6lVHdHEUB9L2oHYHr2s2M9cYApcB/2rDNudq4zHor2sSsX867L9EX83IGh+9PhZgBUVF63/V47BhPQ9d/d/O2+JtaTMrVuWgbYxSLWwTBmJtcZj5trY7KdaD/Pp7L93ETlgLTN45THyOsi3XNsGJd/petf1Q4BwB9OawdgmvZZrG/iST+wm0UU64ydcp1xepTyvO15kp+TZLuj/fyPN3vaj6OU6NcF+rPtm4O1YJyukizT9We1gwDwJ9bAsA/vPn/HvifWAXaxqB0A9kK5zjRc72h/mSRpmyS5zKeyfZPkwgqvByi3IZ/kU4GuRIfpeJ9SqntdDDAkbfMiXqNxIPvcsX6S5L/7+WLAjNizznTYuc58vEtysX07T/LBhPsN5ULb9ST6dZn+tGIi4LAcUgowVG1zlut1iPAwv6TrVzffsb9iPXGAKXAfP6br17VDwN6Ucn0dJRrzdL27/cNn/8ykivdSnCelNH/82T89F4Z5+S1db3cvwBCVlXv/qx2DyfhLsb7PVTCJA0yB3b2IPetMyZ/XwijXmZvr3e3J55NBZbVMUtbLXGx/vbnxEddF/KffH2P689OO82s3f3/z1yextgX45CrJqQERgEFb1g7ApGw+f8e+i/VNFOvAbha1A8Dedf0H5Tp80ZN8Kqi//rzxUxl/7Xoi/r5MlAP7cJmy+sU+dYBhW9YOwLTtexXMiyT/3t8XBGbiH16YMEllEnYT5ToATMXblENK7VMHGLKyovP32jGYkK7/7vN3/W3P30IxBtzHonYAOIjyonuR5E3lJADAw/2SrndIKcA4OP+Cfbq67Z37Lda7/iLltjiAXbyoHQAOpus/pOuXUa4DwFhdJfn+8wPLABg0PQP7dOsw+b4n1r/4jQC+4vl2ZQZMVynXf6sdAwDYyfskJ+n6Te0gANxR2yzjXB326+K2dyrWgaFY1A4AB9f1p0l+rB0DALiT39L1z6x+ARidZe0ATM7Fbe88RLG+OcDXBKZvUTsAHEXXr1PK9Vt3tAEA1V2vfrGfF2Bs2uYkyfPaMZicI62CcYsccD/2nzEfpVxfRLkOAEPzLla/AIyZi6Icwq13rx1iYj0pe+gAdvEkbfOsdgg4mq4/TynXPWYCwDD8kq5fWP0CMGrL2gGYoC9ccD9UsX7rNwP4hkXtAHBUynUAGILLJP9I169qBwHgARxaymF88U7zQxXrDjAF7sM6GOan6z+k658leVM7CgDM0Jskz7YXuwEYt2XtAEzSF58jKNaBIXmetnlcOwRU0fXLJP+qHQMAZuIqyT/T9UurXwAmoKyWdWgph3DkYr1c7XcgG3AfptaZr65/leSf8RgKAIf0NuWA0rPaQQDYG4eWcihfvAB/qIn1xNQ6cD+L2gGgqvIif5Gy7xUA2J+rJP9K178wpQ4wIeXO95e1YzBZmy/9wSGL9S9+U4CvMLEO5c6vZ3GoKQDsy7uUXeqvagcBYO+WtQMwaRdf+gPFOjA0j9I2ynVwqCkA7MP1lPoiXX9ROQsAh2ENDIfzlecPhyvWu35zsK8NTN2idgAYjHKo6Y+1YwDACJlSB5i6tlkmeVI7BpP17mt/eMiJ9cQt7MD9mFiHm7p+neQfcagpANyFKXWA+VjWDsCkffVMlkMX65sDf31gmp6kbZ7VDgGDUvaun+QbV8wBYObeJjkxpQ4wA6U3eF47BpN2/rU/VKwDQ7WsHQAGp+xdXyT5rXISABiaqyT/TNe/SNd/dboMgMmwW51Dq1qsJTTcigAAIABJREFUf/WbA3yFdTDwJV1/muSfsRoGAJJy0PdJuv6sdhAAjqRtTpK8rB2DyatYrJd9dpcH/R7AVFkHA19TyoNncZ4JAPN1meT7dP3SlDrA7CxrB2AGvnFWy6En1hPrYID7W9QOAINWHuQXKZN6ADAnvyR5lq7f1A4CwJG1zeNYA8PhffN8s2MU69bBAPe1rB0ABq/sXV8m+TFWwwAwfe+S/CNdvzKlDjBbyySPaodg8i6+9QEm1oEhe7rdmwZ8S9evYzUMANN1leRf6fpFut7wFsC8mVbnGL75fOPwxXp50mOCDrgvh5jCXXX9Rbr+WZLfakcBgD16m3I46avaQQCorG2WSZ7UjsEsDKBYLzZH+j7A9LgSDbvq+tMk38eFbQDG7fpw0hfWvgCwtaodgNlQrAOj9yRt86x2CBidcpjbScqUHwCMjcNJAfiztnkR0+ocx+VdLuor1oExWNYOAKNUDjZ9keRfMb0OwDi8S/J3h5MCcAt3tHMsF3f5oOMU6w6XAR7GnnV4iLKTdhEHmwIwXJdJ/rk9nPSichYAhqZtFkme147BbGzu8kHHmlhPyuQBwH1YBwMP1fXn24NNf6kdBQA+c7325ax2EAAGa1U7ALNypyHxYxbrmyN+L2B6lrUDwCR0/SrJP2J6HYD6rH0B4NtMq3N8inVgUpa1A8BkfJpe/612FABmydoXAHaxqh2AWbm66/OT4xXrTnMHHubR9gRwYF+6/jTJ9ykFBwAc2lWSX9L1J9a+AHAnptU5vjufFXrMifXEnnXgYRTrsG9dv0nXn8TudQAO603KHvVV7SAAjMqqdgBmZ3PXDzx2sb458vcDpuVl2uZx7RAwSXavA3AY75J8n65fWvsCwE5Mq1PHYCfWN0f+fsD0mFqHQ/m0e/2XlNv1AeC+LpP8uN2jvqmcBYBxWtUOwCwNtFj3hAp4uGXtADB5ZXr9WaxwA2B3ZY96WfuyrpwFgLEyrU4ddz64NDn+xHriRTrwMM/TNie1Q8Dkdf1Fun6R5MeYXgfgbj7tUe/6D7XDADBqq9oBmKU7T6sndYp1p78DD7WsHQBmo0wbniR5WzcIAAP2Lsk/7FEHYC9Mq1PPZpcPrlGsbyp8T2BalrUDwKx0/Yd0/Ysk/4zpdQA+uUw5mHSRrt9pwgsAvmJVOwCzNfCJ9fKEy4ty4CGepG0cYgrH1vVnMb0OQHk992O6/sQ5WgDslWl16trs8sE1JtYTU+vAwynWoQbT6wBzdn0w6YmDSQE4kFXtAMzW5a5nxCjWgbF6mbZ5XDsEzNan6fU3lZMAcBy/pRTqDiYF4DDaZhnT6tSz2fUTFOvAmC1rB4BZK9PryyTfp+zZBWB63iT5e7r+VKEOwIGtagdg1nY+L6ZOsW7POrAfp7UDAMl2v+6zlPUAAEzD25RCfZmuv6gdBoCJK9PqT2rHYNY2u37Cdx8/fjxAjjtom3WSl3W+OTAh3zs0CwakbU6SrOMWToCxepdk5fkVAEdT1rxeJHlUOQlz1vXf7foptVbBJNbBAPuxrB0AuKHrL9L1iyQ/xt1pAGPyLmVgYaFUB+DITqNUp6539/kkxTowdg4xhSHq+nXK4aa/1Q0CwDco1AGop7yet+aV2jb3+aR6xXrZ0+egM2AflrUDALcoh5ueJvlH7jkBAMDBKNQBGIJXMa1OfTsfXJrUnVhPkrPK3x+YBle3Yci6/tx6GIDBUKgDMAzlfCbnLzIEm/t8Uu1ifVP5+wPT8CRts6gdAvgG62EAalKoAzA069oBIMn7dP2H+3yiYh2YClPrMAaf1sP8PdbDAByDQh2A4SnDcc9rx4A8oJ+uW6yXqwFeVAP78MP2NjJgDLr+Yrse5vs4cwXgEBTqAAzZq9oBYGtz30+sPbGemFoH9sfUOoxN12/S9Sexfx1gX95GoQ7AkLXNMsnT2jFg614HlybJdx8/ftxnkN21zbMkv9cNAUzEVbr+ce0QwD21zeOUC2SnSR5VTgMwNm+SrNL1F7WDAMAXlef8F/F8n2G43A563Uv9ifWuP48JNWA/Hm2vfANjVPavr5I8SymIAPi6q5Sfl39P1y+V6gCMgCEahmTzkE+uX6wXZ7UDAJOxqh0AeKCyf30ZB5wCfMlVkl+SnCjUARiNci7az7VjwA2bh3zyUIr1Te0AwGQ82Z4uDozdnw84VbADlMOef0wp1Ffp+g+1AwHADta1A8BnNg/55Po71pPr/Ur/qx0DmIy36foXtUMAe1Yumq2SPK8bBODo3iVZp+vXtYMAwL20zYsk/64dA2540H71ZCgT62XS4n3tGMBk/LC9xQyYkq7fbCfY/5kytQkwdW+SfJ+uXyjVARi5V7UDwGcevJp8GMV6sakdAJiUVe0AwIF0/dl2suDHKNiB6blK8ls+HUi6qZwHAB6mbVZJntSOAZ/ZPPQLDGMVTHJ9e/d/ascAJuMqZf+o3aMwdW2zTLmY5sk6MGaXKT/Lzjx/AWAyyt3k50keVU4Cn/u/hz7nGk6xniRt8yH+RwP255d0/ap2COBISsF+muRp5SQAu3ib5JXJdAAmqW3OkvxQOwZ85n26/tlDv8iQVsEke9htA3DDae0AwBF1/Xr75Oj7lIP+AIbq5rqXF0p1ACapHFiqVGeINvv4IkMr1je1AwCT8mg7wQrMyadDThXswNC8S/Jjuv5xuv40XX9ROxAAHETbPI4DSxmuvQx3D20VzOMk/6sdA5iUy+0hh8Bctc2zlDtYXtaOAszSVcqLt1fp+vPaYQDgKMqBpT/XjgG36vrv9vFlhlWsJ0nbnMduVGC/fkzXr2uHACorByedJlnGmS7A4b1PmdRzGCkA81IGW36vHQO+4G26/sU+vtD/28cX2bOzKNaB/VomWVfOANRWVi6cbqdnrgv2JxUTAdNjOh0ArIBh2Db7+kJDnFh3VQs4hO8dDAb8RTmHYZnked0gwMi9S7J2hxwAs9c2p0l+rR0DvuIf+xqAGF6xniRtcxETZMB+vdseZgjwV22zSCnY7WEH7uoy5Y64tUNIASDXZydexNpFhmuv5/D9bV9faM82tQMAk/N8W5wB/FXXb9L1yyT/l+SXlMIM4HNXSd6k3Al3kq5fKdUB4A/rKNUZts0+v9gQd6wnZS+hiTFg307jwh3wNeWAwVWSVdrmRcrPDWtigLcpr1EcRAoAtynPnX+oHQO+4WyfX2yYq2CSpG0GGgwYub+bLAN20jYn+XTYqQkcmI/3KZN3Z547AMBXlBUw57HWmeH7v30OSQx1Yj0pUyGudAH7tkopxwDuphRqp0lOt4edmsaB6bpMmWR6pUwHgDtbRanO8L3b952HQ55YXyZ5XTsGMEmm1oGHKVPsy+2bFxEwbtdl+jpdf147DACMSjnL7D+1Y8Ad/Ctd/2qfX3DIxfpJkv/WjgFM0pvtIYUAD1deTCxTJtmtioFxUKYDwENZAcO47H3IcrjFepK0zXmSp7VjAJNkah3Yr/LC4kWsioGhUqYDwD61zaskP9WOAXdwma4/2fcXHfKO9aQcFvRr7RDAJK1i1zqwT2Vf3zrJeluyL7dvhgSgnvdJNlGmA8B+lbs2leqMxdkhvujQJ9afJfm9dgxgskytA4dX1tu9iJIdjuV9ykWuM4/zAHAAVsAwPt+n6zf7/qLDLtaTpG0u4n9U4DDsWgeOS8kOh3CVMpV+llKmf6gbBwAmzgoYxuUqXf/4EF94DMW6/1mBQzK1DtShZIeHuN6XvknXH+TWXgDgFmUFzH9qx4AdHGyocgzFunUwwCGZWgfqKyX7Ig4+hS+5nkrfxIoXAKjDChjG6Z+HGsQYfrGeJG3zIcmj2jGAyTrIri2AeykvWBYpJfsiXrgwX9cHj555nAaAAbBVgnH6v0OtChxLsb5O8rJ2DGCy3qXrF7VDANyq3L33YvtmZQxTdplPu9I3dqUDwIC0zYsk/64dA3b0Nl3/4lBffCzFuv95gUMztQ4Mn2l2puW6SC9v1rsAwDCV56AXsU2C8fkxXb8+1BcfR7GeWAcDHJqpdWB8/rybfRHPlRg2RToAjFHbnMU5QIzTwdbAJOMq1texDgY4LFPrwLiVtTGLG2+Kdmp6l3LA2SZWuwDAOLXNMsnr2jHgHg66BiZJ/t8hv/iebaJYBw5rneSkcgaA++v685Qi81WS66L9ZtludQyHcplPJfq5C9UAMAHl7shXtWPAPZ0d+huMaWL9cZL/1Y4BTN5B928BVPVpR/t12f68ZhxG6yo3S3TT6AAwTW1znuRp7RhwTwddA5OMqVhP7HQCjuEyXX9SOwTA0Xyaar9+U7Zz0/Uk+qc3u9EBYPraZpXk59ox4J4OvgYmGV+xvoy9TsDh/ZKuX9UOAVDNX8v2Z7GvfQ7eJbnIn0t0k+gAMDdts0jyn9ox4AGOso1gbMW6dTDAMVwlOVEmANxQdmyepKyQuf616fbxuV7jcrF92yS5MIUOACS57t7O42wexu3ga2CSsRXriXUwwLGYWge4i0+F+7PP/unFWF3vknzIn0t0E+gAwNfp3Ri/o6yBScZZrC9jHQxwHH83wQfwAH8u3R9/9k+rZR7m3fafm+0/z5N8SNdvbv1oAIBv0bkxDUdZA5OMs1i3DgY4lqNd5QSYpU/F+3XZnnwq35N5rpq5Lsyvp82T69K8FOfnt34WAMBDlDN2NjH8wPgdZQ1MMsZiPXFbCnBM35v+A6isDFY8u/Gem+V7Uva+f65WKX+9w/ymD5+972L7VnicAQBqKs+1NkmeVk4CD3XUAcn/d6xvtGeKdeBYVrm9sAHgWMrEyebGeza3f+AdfZqUvy+7ygGAKXkVpTrTcHbMbzbWiXXrYIBjOtp+LgAAADgae9WZjqskJ8ccgPnbsb7RXpV/QW9rxwBmY7W9oAcAAADTUPaqv6odA/bk7Nh3lY6zWC+OOtoPzNqTJKe1QwAAAMBelOGxdRxWynQcvStWrAPczel2Jy8AAACMnb3qTMlVul6xfmfWwQDH9ShukQMAAGDsyl71l7VjwB6ta3zT8Rbrhal14Jh+SNssaocAAACAe7FXnWla1/iminWA3axrBwAAAICdlb3qZ7FXnWm5TNef1/jG4y7WyzqYN7VjALPyJG3jIFMAAADGZp3kSe0QsGfV7sAYd7FemFoHjm21vdIPAAAAw1cGxH6oHQMOoFo3PP5ivZz4elU7BjArDjIFAABgHMpZYb/WjgEH8DZdf1Hrm4+/WC9MrQPH9tJBpgAAAAxa25xEb8Z0rWt+c8U6wP2ZWgcAAGCYHFbKtF1tN5lUM41ivfxLvKwdA5idp2mbVe0QAAAAcItXSZ7WDgEHsq4dYBrFemFqHajhdHtrHQAAAAxDOaz0Ze0YcEDVtwhMqVhf1w4AzJKDTAEAABgOh5Uyfe9rHlp6bTrFetefxzoYoI4f0jYvaocAAABg5hxWyjwMYsBxOsV6sa4dAJitV9uDYQAAAOD4HFbKPFxlIBePFOsA+/Ekyap2CAAAAGZrHYeVMn1n6foPtUMkUyvWy26d97VjALP103aXHQAAABxP26yS/FA7BhzBINbAJFMr1ovB/MsFZsnPIAAAAI6nbZZJfq4dA47g3faczUGYYrE+iB07wGw93U4KAAAAwGG1zbMY8GI+1rUD3PTdx48fa2fYv7Y5i9tfgLr+vl1PBQAAAPtXDiu9iMNKmYerdP3j2iFumuLEejKwqxfALK1rBwAAAGCiSqm+iVKd+VjXDvC5aRbrXX+W5Kp2DGDWnqdtTmuHAAAAYJLWSZ7WDgFHNLiVR9Ms1ot17QDA7K3SNie1QwAAADAhbfMqViAzL2+HuG5XsQ5wOI/iZxEAAAD70jbLJD/VjgFHNrhp9WSqh5dea5vzuC0GqO9f6fpBPggAAAAwEm2zSPKf2jHgyC7T9Se1Q9xmyhPriUlRYBishAEAAOD+2uZZkrPaMaCCVe0AX6JYBzg8K2EAAAC4n7Z5nGST8toS5uQqA76gNO1ives/JHlbOwZAkudpm9PaIQAAABgRpTrz9mrb7w7StIv1Yl07AMCWlTAAAADs4izOD2S+1rUDfM30i/WuP0u5bQCgNithAAAAuJu2WSd5XjsGVPImXX9RO8TXTL9YL9a1AwBsPU/brGqHAAAAYMDa5lWSl7VjQEXr2gG+5buPHz/WznB4ZfXCf2vHALjhH+n689ohAAAAGJi2WSZ5XTsGVPQuXb+oHeJb5jGxXm4beF87BsAN69oBAAAAGBilOiTJq9oB7mIexXoxir8QYDaebm/tAwAAgKRtnkV/BZfbMzMHb07FukNMgaH5KW2zqB0CAACAykqpvknyqHISqG1VO8BdzadY7/oPKeU6wJCs0zaPa4cAAACgknI24CZKdbhM169rh7ir+RTrhdtpgKF5EvvWAQAA5qkMWp1FqQ7JyPqReRXrXX+e5LJ2DIDP/LA9oAYAAIC5KKX6JsnTyklgCK4ysqHoeRXrxaj+goDZeLW9/Q8AAICpU6rD515tV3mPxhyL9XXtAAC3eBTnQAAAAMzFqyjV4droptWTORbr5crHm9oxAG7xNG0zugcSAAAAdtA26yQva8eAAVmPbVo9mWOxXqxrBwD4gp/SNovaIQAAADgApTrcZpRDhvMs1rt+E4eYAsN1tt23BwAAwFQo1eE2b9L1F7VD3Mc8i/VilFdCgFmwbx0AAGBK2uY0SnW4zap2gPuac7G+rh0A4Cuep21WtUMAAADwQG2zTPJr7RgwQKOdVk/mXKw7xBQYvp/tWwcAABixUqq/rh0DBmpVO8BDzLdYL6yDAYbOvnUAAIAxUqrD14x6Wj2Ze7He9edJ3teOAfAV9q0DAACMjVIdvmVVO8BDzbtYL0ytA0Nn3zoAAMBYKNXhW0Y/rZ4o1pMyCXpVOwTAN9i3DgAAMHRKdbiLVe0A+6BYL4eYrmvHALiDs7TNSe0QAAAA3EKpDncxiWn1RLF+zToYYAzsWwcAABgipTrcxVWS09oh9kWxnmR7leRd7RgAd/A0bbOuHQIAAIAtpTrc1avt9pBJUKx/YmodGIuX2yduAAAA1KRUh7u6ysT6V8X6ta4/S3JZOwbAHb1K2zyrHQIAAGC2lOqwi0lNqyeK9c+tawcAuKOyb71tHtcOAgAAMDtKddjF5KbVE8X65yb3FwxM2pM4zBQAAOC4lOqwq9OpTasnivU/K3/Bb2rHANjB87SNi4IAAADHoFSHXV2m69e1QxyCYv2vVrUDAOzoJ4eZAgAAHJhSHe7jtHaAQ/nu48ePtTMMT9tskjyvHQNgR/9I15/XDgEAADA5SnW4j3fp+kXtEIdiYv121ioAY7RxmCkAAMCeKdXhvla1AxySYv02XX+W5LJ2DIAdPYpyHQAAYH+U6nBfb9P1m9ohDkmx/mWr2gEA7uFp3HUDAADwcEp1eIjJ7la/plj/srMkV7VDANzDy7TNqnYIAACA0WqbV1Gqw339kq6/qB3i0BTrX9L1H2LqExivn7fTFQAAAOyibdZJfqodA0bqKjPpVBXrXzeL/wiAyXqdtnlWOwQAAMBolFL9Ze0YMGKr7cDy5CnWv6b8R/CmdgyAB9go1wEAAO5AqQ4PdZmun82gsmL921a1AwA8wKMk67TN49pBAAAABqltHqdtNlGqw0Mtawc4JsX6t5RF+29rxwB4gKdJNrVDAAAADE4ZQtokeV45CYzd23T9pnaIY1Ks381sbmEAJuvp9rZGAAAAkpul+tPKSWAKTmsHODbF+l2Uqy3vascAeKCXaRsXCgEAAMpZVJso1WEfftlu/ZgVxfrdrWoHANiDn9I2y9ohAAAAqlGqwz5dZqbbPhTrd1Wm1i9rxwDYg9fKdQAAYJY+leqPKieBqThN13+oHaIGxfpuVrUDAOzJq+0TSgAAgHkoA0a/R6kO+/IuXX9WO0QtivVddP06ptaBaXiUZKNcBwAAZqGU6q9rx4CJWdYOUJNifXer2gEA9uS6XH9cOwgAAMDBtM2rKNVh32Z5YOlNivVdmVoHpkW5DgAATFfbrJP8VDsGTMxsDyy9SbF+P6vaAQD26GmU6wAAwJS0zeO0zVmSl7WjwATN9sDSmxTr92FqHZiep0lme+AIAAAwIWVoaJPkh8pJYIpmfWDpTYr1+1vXDgCwZ8+3t0kCAACMU9s8S3KeMjwE7NdVZn5g6U2K9ft7lfIfE8CUvFSuAwAAo1RK9U2SJ5WTwFS9mvuBpTcp1u+r7BGa/ZJ+YJKU6wAAwLi0zTLJ70keVU4CU3WZrl/VDjEkivWHMbUOTJVyHQAAGIe2OU3yunYMmLhl7QBDo1h/CFPrwLS93E59AAAADFMZCPq1dgyYuDfp+k3tEEPz3cePH2tnGLdy0vRF3GoETNeP6fp17RAAAAB/KH3MWZLntaPAxF0lOdkOGHODifWHKv9RndaOAXBAr02uAwAAg9E2JymHlCrV4fCWSvXbmVjfl7a5iFOngWkzuQ4AANTVNs9SSnWbA+Dw3qXrF7VDDJWJ9f1Z1Q4AcGAm1wEAgHrK65FNlOpwDFdxYOlXKdb3pUxxXtaOAXBgynUAAOD42maV5HWU6nAsq3T9Re0QQ6ZY369V7QAAR6BcBwAAjqdt1kl+rh0DZuR9uv5V7RBDZ8f6vtm1DsyHnesAAMDhtM3jlNUvTysngbn5R7r+vHaIoTOxvn+ntQMAHInJdQAA4DDKIaXnUarDsf2iVL8bE+uH0DabJM9rxwA4EpPrAADA/rTNiyTr2KcOx/Y+Xf+sdoixMLF+GKvaAQCOyOQ6AACwH+WQ0n9HqQ41LGsHGBMT64diah2YH5PrAADA/ZR96q+SvKwdBWbql3T9qnaIMTGxfjh2rQNz8zpt42cfAACwm7Y5STmkVKkOdbxXqu9OsX4oZcn/m9oxAI7s17TNunYIAABgJNpmEYeUQm3L2gHGSLF+WKvaAQAqeKlcBwAAvqmc1fSf2KcONf2yHRBmR4r1Q+r6iyS/1I4BUIFyHQAA+LLyeuF17Rgwc1bAPIBi/fBeJbmqHQKgAuU6AADwZ23zOG1zHvvUYQiWtQOM2XcfP36snWH6ymF+v9aOAVDJ+ySLdP2H2kEAAICK2uZZyiGlVr9Afb+YVn8YxfqxtM1Fkie1YwBUolwHAIA5M3QIQ/I+Xf+sdoixswrmeE5rBwCo6GmSTdrmpHYQAADgiMrql3WU6jAUV7ECZi9MrB9T22ySPK8dA6Ciq5TJdSeOAwDA1JXBmrOUQRtgGP6Vrn9VO8QUmFg/LlPrwNw9Splcd8sZAABMWdu8SHIepToMyTul+v4o1o+pTGi+qR0DoLJHSX5P2yxrBwEAAA6gbVZJ/h2HlMKQXCV5UTvElFgFc2xt8zjJRTy4ACTJj+n6de0QAADAHpTO4yzW4MIQ/TNdf1Y7xJSYWD+2rv+QxC0XAMXr7UFGAADAmJV1j+dRqsMQvVGq75+J9Vra5iLJk9oxAAbiTZLT7cVHAABgTNrmNMmvtWMAt7pM8szr7f0zsV6Pg0wBPnmZcqjp49pBAACAO2qbx9s7UJXqMFwvlOqHoVivpdx+8a52DIABeZpSrj+rHQQAAPiG8rx9kzIkAwzTL+n689ohpkqxXteydgCAgVGuAwDA0LXNMqVUf1o3CPAV79L1q9ohpkyxXlPXXyT5pXYMgIF5lOT37ZN1AABgKD6tfnmd8rwdGKarGOg9OMV6fa9SDhEA4M9ep21e1Q4BAADE6hcYl+V2oJcD+u7jx4+1M9A2L5L8u3YMgIF6m/KkwGErAABQQ7mb9FVMqcMYvEnXL2uHmAPF+lC0zSbJ89oxAAbqfcpJ5he1gwAAwGy0zeOUQt2UOozD+yQLg2nHYRXMcCxrBwAYsKdJzh1qCgAAR2L1C4xN2auuVD8axfpQOMgU4FscagoAAMfQNqdJfk8ZcAHG4TRdf147xJxYBTMk5Rar8yRPakcBGDg74wAAYN9KL7FO8kPlJMBu3qbrX9QOMTeK9aFxkCnAXdkdBwAA+9I2i5RS3bAfjMtlkmdeGx+fVTBD0/VnSd7WjgEwAvauAwDAPrT/v717OW7r2tY2/JUTkCJYYgbijkA4EZgnAsG91TMdgakITPXQMxTBpiIwGIHJCH4QEQgZ/I1JHJASJfECYK7L81SxfCnXrtE6At8zMGZzluSfiOrQRyeieh3Cejedpjw4AMCPvYm76wAA8Dxtc5S2WST5s/YowLP85q56PcJ6F5WHTM8qTwHQJ3+nbea1hwAAgN4op2ivkryrPQrwLJ8yW81rDzFmbqx3WdtcxQvcAE9xnfI1uGXtQQAAoJPKA6XnSd7XHgV4Nm+OdYCN9W6b1h4AoGc2d9cntQcBAIDOKe8TXUVUhz5bJ5mK6vUJ611WbiR9qD0GQM+8SvLP7QNMAABAsnmg9N94oBT67tRd9W5wCqbryle0ruIPPoDnuIwX0gEAGLO2OUoyj1vqMASfMltNaw9BIaz3QTlp8E/tMQB6ap0S1xe1BwEAgINqm2nKPfVXlScBXu46s9Vx7SHYcgqmD0oM+lh7DICechoGAIBxaZvXaZuLJH9HVIchKAtjdIqN9b4oJ2GW8QciwEs4DQMAwLCVb71fRD+AIfkf38LuHhvrfVEi0LT2GAA99y7J8vaXDQAAGI6ypX6eckpWVIfh+ENU7yYb631Tvsr1a+0xAAbgQ2ars9pDAADAi5XFkXmSN3UHAXbsc2YrJ2A6ysZ6/0xT7ioB8DJ/pm2u0jZHtQcBAIBnK28J/RNRHYbmOq5XdJqN9T5qm5Mk/609BsBArJOcZraa1x4EAAAerW2OU7bU31aeBNi9dZJJZqur2oPwfcJ6XzkJA7Brn5NMPWwKAEDnlS31P2uPAezN/2a2uqg9BD8mrPdV27xOsowHSQB26SYlri9qDwIAAN+wpQ5j4D2wnnBjva/KRuW09hgAA/MmyT+3G0AAANAd5TPqvxHVYcg+ier9YWO975yEAdgnb8QzAAAeIElEQVSX8lCMm3YAANRkSx3G4jrlrrrzpD1hY73/pikPGgCwW2+T/Ju2Oa09CAAAI2VLHcZineREVO8XG+tD0DaTJP/UHgNgwC5TtteXtQcBAGAEbKnD2PzHt6X7x8b6EJRH9j7WHgNgwN4lubK9DgDAXrXN67TNeWypw5j8Jqr3k431oWib10muUh7eA2B/bK8DALB75dvo8/i9HsbkU2arae0heB5hfUichAE4lHWSs8xW57UHAQCg58qi3DzJr5UnAQ7rMrPVpPYQPJ9TMENSTsJ8qD0GwAi8SvJX2maRtjmqPQwAAD1VTg0uI6rD2FwnOak9BC9jY32I2uYqbrEBHIrtdQAAnqY8Tnqe8pYPMC7rJBN31ftPWB+isj15lbJRCcBhXCY59eEIAIDvKmdfzpL8XnkSoJ7/+L1xGJyCGaLyoN5Z5SkAxuZdkn/TNme1BwEAoIPaZppy9kVUh/H6TVQfDhvrQ9Y2F3GnDaCGmyTT27cvAAAYM2dfgOJjZqvT2kOwO8L6kJWvmC3jJAxALR9T7q9/qT0IAAAH5uwLsPUps9W09hDsllMwQ1ZCjheGAer5PckybeP/FgMAjEnbnMbZF6C4TmJTfYBsrI9Buff7Z+0xAEbuMuU8zLL2IAAA7EnbTFLOvrytPAnQDddJJr7FPEzC+li0zVX8wQ7QBR+SnPtgBQAwIG1zlBLUvXMGbKxTorrHSgdKWB+L8of8VdxbB+iCmySnma0uag8CAMALuKMOPExUHwFhfUzKjd//1h4DgP/zOSWwL2sPAgDAE5Wzq6exwAZ867fMVvPaQ7BfwvrYtM15/H/SAbrGeRgAgL5om2nKlvqbuoMAHSWqj4SwPkburQN0kfMwAABdVh4mPUvyru4gQId9ymw1rT0EhyGsj5F76wBddpkS2N3iAwDogrY5TnmYVFAHfkRUHxlhfazKV9f+rj0GAN/1KSWwOw8DAFBDWUo7S/K+7iBAD1xntjquPQSH9UvtAaik3Hr6WHsMAL7rfZLl7aNYAAAcStscpW3mSf5fRHXg566TTGoPweHZWB8799YB+sD9dQCAfWub10lOb3+cTgUe4ybJsW8aj5OwPnburQP0yWWSs8xWi9qDAAAMhqAOPM86ycT7WOMlrJO0zUmS/9YeA4BH+5QS2Je1BwEA6C1BHXg+UR1hnVvlhu+ftccA4Ek+JDn3tUMAgCcQ1IGX+x/fJEZYZ6ttFkne1R4DgCdZJzmPwA4A8GOCOrAbv2W2mtcegvqEdbbKh4yrJG9qjwLAk92knIeZ1x4EAKBTBHVgd0R1/o+wzn1tc5zk39pjAPBsAjsAQCKoA7v2R2ar89pD0B3COt9qm2mSv2uPAcCLXCc5dfcPABidtjlKcpbkJII6sBufMltNaw9BtwjrPKxt5kne1x4DgBe7TNlgX9QeBABgr7ZB3e+ywC6J6jxIWOf72uYqydvaYwCwEwI7ADBMbTNJMo2gDuyeqM53Cet8X7lHt4yvzgEMicAOAAxDCepnSd7VHQQYqM+ZrU5qD0F3Cev8mMdMAYZKYAcA+qm8C3aW5E3dQYABu04yyWz1pfYgdJewzs95zBRgyAR2AKD7yjeqT29/fKsa2CdRnUcR1nkcj5kCDJ3ADgB0z/ZB0pMI6sD+ieo8mrDO43nMFGAMBHYAoD7304HDE9V5EmGdxytfvbuKO3YAY3Cd5Dyz1bz2IADASJTfOU/ifjpweKI6Tyas8zTlMdNFfAUPYCxuUjbY57UHAQAGqpx7OU0yjd81gcMT1XkWYZ2na5uTJP+tPQYAB3WTZJ6yxe4DJwDwcuV3y2mSXytPAozXOslxZqtl7UHoH2Gd52mb0yR/1R4DgINbJzlPMvfhEwB4snLuZZqyoe7cC1DTOmVT/ar2IPSTsM7ztc08yfvaYwBQzaeUDXYfRAGAHyuPkU7jd0igG0R1XkxY52Xa5irJ29pjAFDVZcod9kXtQQCADtk+RnoavzcC3SGqsxPCOi9TPigt4kMSAJuHTpMLd9gBYMTa5jglpp/EY6RAt4jq7IywzsuVD02L+MAEQOEOOwCMjdvpQPeJ6uyUsM5ulHt5/9QeA4DO+ZQS2Be1BwEA9qBtTlI2091OB7pMVGfnhHV2p22mSf6uPQYAnXSdssXuTAwA9F3bHKVsp09jOx3oPlGdvRDW2a22OUvyZ+0xAOisdZJ5knNnYgCgR7YPkU6TvKs7DMCjiersjbDO7rXNPL4GCMDPXaYE9ovagwAA3+HUC9Bfojp7JayzH21zleRt7TEA6IWblC12j50CQBe0zXHKZvpJnHoB+uk6yYnfL9gnYZ39KF8TXERcB+BpPqcEdlvsAHBI5W765tSL3+OAPrtO2VT3thN7JayzPyWuL5O8qjwJAP1zk+QibrEDwP5s76afRkwHhkFU52CEdfarfIVwEXEdgOe7TNlin9ceBAB6bxvTT5L8WnkagF0S1TkoYZ39K3H939pjANB762y32D1ABACPJaYDwyeqc3DCOofRNtMkf9ceA4DBuElynuTCqRgAeICYDoyHqE4VwjqHI64DsB+fUzbZL3yYBmDUxHRgfC6TnPg9gBqEdQ6rbc6T/F57DAAGaXMq5iKz1UXtYQDgIMR0YLw+Zbaa1h6C8RLWOby2mSd5X3sMAAbtJiWyz91jB2Bw2uYoJaRPIqYD4ySqU52wTh3iOgCHs4ns5+6xA9BbbXOcEtKnSd5WnQWgLlGdThDWqaN8XXERHwgBOKzrJPN49BSAPmibSbZnXt7UHQagEz5ktjqrPQQkwjo1iesA1CWyA9At23vpk9u/vqo6D0C3/JbZal57CNgQ1qlLXAegG0R2AOrYnng5SfKu7jAAnSWq0znCOvWVuL6MbQwAumET2RcePgVgL9rm7la6Ey8A37dOMs1sdVF7EPiasE43lC2NRcR1ALpl8/DpXGQH4Nm2W+mTJL9WnQWgP9ZJJj6H01XCOt0hrgPQbTcpf05d2JgB4IfKt3In2d5Lt5UO8DSiOp0nrNMt4joA/bDOJrKX0P6l7jgAVNc2k2xjujekAJ7vOiWq+4xNpwnrdI+4DkD/XGcb2W3VAIyB8y4A+yCq0xvCOt1UHvP5b+0xAOAZtidjygOofikAGIL7IX0Si0AAu/Y55aFSn5/pBWGd7mqbaZK/a48BAC90mW1kt80O0Bdtc5T7Id2ddID9+ZTZalp7CHgKYZ1uE9cBGJZ1NpHdbXaAbrm/kX4cIR3gUD5ktjqrPQQ8lbBO94nrAAzXdUpkX2S2uqg8C8C4OO0C0AW/Zbaa1x4CnkNYpx/EdQDG4TLb0L6oOwrAgLTN65Qt9Mntz7ua4wCQdZITn3npM2Gd/hDXARgfoR3gObb30Tcx/W3FaQC4b51k4v0h+k5Yp1/EdQDGTWgH+Nr9bfTNX511Aeim65So7q0hek9Yp3/EdQDY2Ib25MovKMAobG+jH9/+2EYH6IfLlPMvPrMyCMI6/SSuA8BDto+hltC+rDkMwIuViH73x210gH76lNlqWnsI2CVhnf4S1wHgZ26SXGUb2hdVpwH4EREdYKj+yGx1XnsI2DVhnX4T1wHgqS5TYnsJ7rbagRraZpLkKCI6wJCtk5xmtprXHgT2QVin/8R1AHiJde5utTshA+zS/YdFj+ImOsBYrFMeKb2qPQjsi7DOMIjrALBLYjvwdNst9KNsHxd9VW0eAGq5TnmkdFl7ENgnYZ3hENcBYJ82sX37YwMJxqncQj/K/Xvob2qOBEBnfE4yzWz1pfYgsG/COsMirgPAoV2nhPZlto+k+kUKhuDbDfTXccYFgO/7mNnqtPYQcCjCOsNT4vp5fO0UAGq5u92+zHbDXXCHrmmbo9wP55sNdJ+lAXiK3zxSytgI6wxT+XrqIn4hAIAueSi4L93fhD3bxvPjlHg+ie1zAHbDI6WMlrDOcInrANAnl0m+ZBvdl5mtFjUHgl4pn3030TwRzwHYP4+UMmrCOsMmrgNA32223Jdf/Tgtw7hsw/lDf/VZF4BD80gpoyesM3ziOgAM2XXKpvvi9p83fxXe6Y/tqZZNKE+2m+fvDj8QAPzQh8xWZ7WHgNqEdcahxPV5fBUWAMZmE96vbv+6vP354hYoe9c2d0P5Ub6N57bNAeiTdZJTj5RCIawzHuUXm0XEdQDgvk183wT4ZBviBXi+1TaT2797KJwngjkAw3OTck/d5yK4JawzLuI6APB8m3vvyXbzPbkf5OPR1R65v1GebO+WJ/ejuUdAARizy5So7swe3CGsMz7lF6iLuFcJAOzfTbYBPrkf5B/658R9+MfZ3iW/66F/N/nqn30GBIDH+5jZ6rT2ENBFwjrj1TbzJO9rjwEA8Ah3t+W/tsy3cf4hm/M2h/T1Rvhz/jvb4gBweO6pw08I64ybuA4AAABwl3vq8Ai/1B4Aqpqtpkn+qD0GAAAAQAdcJjkW1eHnbKxDkrTNNMnftccAAAAAqORDZquz2kNAXwjrsNE2J0nmSV5VngQAAADgUNZJppmtLmoPAn0irMNdbXOcZBFxHQAAABi+65R76svag0DfuLEOd5UbYpOUhzoAAAAAhupTkomoDs9jYx0e0javUzbX31aeBAAAAGDXfstsNa89BPSZjXV4yGz1JWVz/XPlSQAAAAB25SbJf0R1eDkb6/AzbTNP8r72GAAAAAAv8DnlkdIvtQeBIRDW4THa5jTJX7XHAAAAAHiGPzJbndceAoZEWIfHaptpkvMkrypPAgAAAPAYN0lOMltd1R4EhkZYh6dom+OUR03FdQAAAKDLLlOiutMvsAfCOjxV2xwluUjytvIkAAAAAA9x+gX2TFiH52ib1ylx/V3tUQAAAABuOf0CByKsw0u0zTzJ+9pjAAAAAKP3OcnU6Rc4DGEdXqptTpP8VXsMAAAAYLScfoEDE9ZhF9rmJMk8HjUFAAAADuc6ZUvd6Rc4sF9qDwCDMFtdJJmk3DIDAAAA2LdPSSaiOtRhYx12qTxqukjytvIkAAAAwDCtU7bUL2oPAmMmrMM+eNQUAAAA2L3rJCeZrZa1B4GxE9ZhX9pmmuTv2mMAAAAAg/Ahs9VZ7SGAQliHfWqbSZKLeNQUAAAAeJ6blNMvi9qDAFseL4V9Kn/oHad8VQsAAADgKT4nORbVoXtsrMMhlEdNz+PuOgAAAPBzHiiFjhPW4ZDa5jTJX7XHAAAAADrrMiWqL2sPAnyfsA6H5u46AAAA8LA/Mlud1x4C+DlhHWpom6OUuP628iQAAABAfdcpW+pXtQcBHkdYh1rcXQcAAACSD5mtzmoPATyNsA61tc00yd+1xwAAAAAO6iZlS31RexDg6X6pPQCM3mw1T/KflD9QAQAAgOH7mORYVIf+srEOXVFOw1wkeVd7FAAAAGAvbKnDQAjr0DVtc5bkz9pjAAAAADv1KclpZqsvtQcBXk5Yhy5qm0nK9vqrypMAAAAAL7NO2VK/qD0IsDturEMXla+EHSW5rDsIAAAA8AKfkxyJ6jA8Ntah69rmPMnvtccAAAAAHs2WOgycsA590DYnSeZxGgYAAAC67nNKVHdLHQZMWIe+aJujlLj+ru4gAAAAwANuUoL6ovYgwP4J69A3bXOW5M/aYwAAAAD/52OSM1vqMB7COvRR20ySXMRpGAAAAKjJljqM1C+1BwCeofyBfZTksu4gAAAAMFofkxyL6jBONtah79rmNMlftccAAACAkbhO2VK/qj0IUI+wDkPQNscpp2He1B4FAAAABmqd5Dyz1VntQYD6hHUYirZ5neQ8yfvaowAAAMDAXKZsqS9rDwJ0g7AOQ9M2J0nm8bApAAAAvNQ6yWlmq3ntQYBuEdZhiNrmKCWuv6s7CAAAAPTW55Qt9S+1BwG6R1iHIWubsyR/1h4DAAAAeuQmJagvag8CdJewDkNXHjadJ3lbeRIAAADoug8pD5TaUgd+SFiHMSgPm54l+b3yJAAAANBFHicFnkRYhzFpm0mSi3jYFAAAABKPkwLP9EvtAYADKvfhjlIeYAEAAIAx+5jkSFQHnsPGOoxV25yk3F63vQ4AAMCYXKdsqS9qDwL0l7AOY1Zur8+T/Fp5EgAAANi3dZKzzFbntQcB+k9YB5K2OU153NT2OgAAAEP0KWVL/UvtQYBhENaBom2OUrbX39UdBAAAAHbG2RdgL4R14D7b6wAAAPSfsy/AXgnrwLdsrwMAANBfH1OiurMvwN4I68D32V4HAACgPy5Tzr5c1R4EGD5hHfixsr1+nuTXypMAAADAQ25SNtTntQcBxkNYBx6nbU5SzsPYXgcAAKArPiQ5d/YFODRhHXi8tnmdEtdtrwMAAFDT55SzL8vagwDjJKwDT9c2k5TA/qbuIAAAAIzMdUpQX9QeBBg3YR14nrK9fpbk98qTAAAAMHzrlKA+rz0IQCKsAy9VttfPk7ytPAkAAADDs075ndMddaBThHVgN9rmLMlpPG4KAADAbnxKcuaOOtBFwjqwO21zlHJ7/V3dQQAAAOixy5Sgvqg9CMD3COvA7rXNSUpgt70OAADAY92k3FG/qD0IwM8I68B+eNwUAACAx1mnbKif1x4E4LGEdWC/PG4KAADAwzxMCvSWsA4cRtucpmywOw8DAACAh0mBXhPWgcMp52HOk7yvPQoAAABVXCaZCupA3wnrwOE5DwMAADA2lykb6ovagwDsgrAO1OM8DAAAwNDdJDnNbHVRexCAXRLWgbqchwEAABiim5QN9XntQQD2QVgHusF5GAAAgCFYJznPbHVWexCAfRLWgW5pm2lKYHceBgAAoD9KUC9R/UvtYQD2TVgHuqechzlL8nvlSQAAAPgxQR0YJWEd6K62OUoyT/Ku7iAAAAA84FPKw6SCOjA6wjrQfeX++jzJm7qDAAAAkBLUzzJbLWsPAlCLsA70R9ucppyIcX8dAADg8AR1gFvCOtAv7q8DAAAcmqAO8BVhHeincn/9PMmvlScBAAAYKkEd4DuEdaDfyv31s3jgFAAAYFcEdYCfENaBYWibaUpg98ApAADA8wjqAI8krAPD0jZnSU7jgVMAAIDHEtQBnkhYB4anPHB6muTP2qMAAAB0mKAO8EzCOjBc5YHTsyTv6w4CAADQKYI6wAsJ68DwlcA+jwdOAQCA8VonuYigDrATwjowHm0zSdlgF9gBAICxWCc5T3Ke2epL7WEAhkJYB8anBPZ5kjd1BwEAANgbQR1gj4R1YLzaZpqywS6wAwAAQ3GTEtTngjrA/gjrAAI7AADQfzcp99PntQcBGANhHWCjBPbzJK8qTwIAAPBYlynb6fPagwCMibAOcFfbvE5yevsjsAMAAF11mbKhvqg9CMAYCesADxHYAQCAbvqUEtSXtQcBGDNhHeBHBHYAAKC+dZJ5knNBHaAbhHWAxxDYAQCAw7vJNqh/qTwLAHcI6wBPIbADAAD7d50S0+e1BwHgYcI6wHMI7AAAwO59Tgnqi9qDAPBjwjrAS2wD+zTJm7rDAAAAPbROchEPkgL0irAOsCttM01yFoEdAAD4OffTAXpMWAfYNYEdAAD4vsskc/fTAfpNWAfYlxLYT5O8rTwJAABQ36eU7fSr2oMA8HLCOsC+tc0kZYP9Xd1BAACAA1snOU/ZUF9WngWAHRLWAQ6lBPbTJL9WngQAANiv65Tt9HntQQDYD2Ed4NDa5ihlg/193UEAAIAdc+4FYCSEdYBaSmCfpmyxv6o6CwAA8Fw3SeYpQf1L5VkAOBBhHaC2tnmdbWB/U3cYAADgkT6n3E6/qD0IAIcnrAN0SdtMUwL728qTAAAA31pnu52+rDsKADUJ6wBd5KFTAADoksuU7fR57UEA6AZhHaDLtg+dnsQddgAAOKR1kot4jBSABwjrAH1Q7rCfptxid4cdAAD25zrJeZILj5EC8D3COkDflDvs0yTv6g4CAACDYTsdgCcR1gH6qm2OU7bY39ceBQAAeqrcTredDsATCesAfedMDAAAPMU6JaafZ7Za1h0FgL4S1gGGxJkYAAD4ns8pm+nz2oMA0H/COsAQtc1RkrMkJ0leVZ0FAADquUnZTp/bTgdgl4R1gCErZ2JOUiK7MzEAAIzB5iHSeWarReVZABgoYR1gLNpmknImxmOnAAAMkYdIATgYYR1gbMoW+zTlwVNb7AAA9JlTLwBUIawDjFnbnKRE9l8rTwIAAI/l1AsA1QnrAGweOz2JLXYAALrrc8qZl3ntQQBAWAfgPrfYAQDojutsT724mw5AZwjrADxse4t9muRt1VkAABiTm5RTL+fupgPQVcI6AD/XNscpZ2JOkryqPA0AAMOzznYz/aryLADwU8I6AE/TNtOULfZ3dQcBAKDnNo+QXmS2uqg9DAA8hbAOwPOUB0+ntz8ePAUA4LE8QgpA7wnrALzc9sFTp2IAAHhIieklqHuEFIDeE9YB2K1yKuYkya+VJwEAoC4xHYDBEtYB2I9yKuYkZZP9bdVZAAA4FDEdgFEQ1gHYvxLZT1NCu3vsAADDIqYDMDrCOgCH1TbH2UZ299gBAPpJTAdg1IR1AOppm5OUwC6yAwB0n5gOALeEdQDqa5vX2QZ2j54CAHTDOiWkLyKmA8A9wjoA3SKyAwDUtInpF5mtLmoPAwBdJawD0F0iOwDAIdxkG9MXlWcBgF4Q1gHoB5EdAGCXrpPMkywyW11VngUAekdYB6B/RHYAgOfYPD66yGy1rDwLAPSasA5Av4nsAADfs72XXmK6x0cBYEeEdQCGo0T2Sbah/VXVeQAADu86ySLJ3IkXANgfYR2A4WqbTWCfJHlTdxgAgL1x4gUADkxYB2Ac2uY4yTQltIvsAECf3WQb0i9qDwMAYySsAzA+bXOU7bmYd3WHAQB4lM8pJ14ubKUDQH3COgDjtn38dBJ32QGA7tjcSreVDgAdJKwDwF1tM8l2m93JGADgUNbZbKS7lQ4AnSesA8D3bE/GTJL8WnUWAGCILrM973JVeRYA4AmEdQB4rLa5ezLGNjsA8FTbR0fLVvqXuuMAAM8lrAPAc9hmBwB+7iabiO68CwAMirAOALuw3WafJHlbdRYAoJbNnfTy47wLAAyWsA4Au1a22SfZno15VXEaAGB/hHQAGClhHQD2rW2Osw3tzsYAQL95cBQAENYB4ODaZpJtaH9XcxQA4Ic2G+lXKRvpi6rTAACdIawDQE1t8zrbyD6J++wAUJPTLgDAowjrANAlQjsAHNJN7m+kC+kAwKMI6wDQZUI7AOzSde6H9GXVaQCA3hLWAaBP7of247jRDgA/snlodJHkKrPVl6rTAACDIawDQN95DBUAEmddAIADEtYBYGja5jj3t9rf1BwHAPZks42+Cem20QGAgxHWAWDo2uYo28g+iTvtAPTPdTYBvZx0sY0OAFQlrAPAGG3Px2xi+6uK0wDAXTcpEX2zib6oOw4AwLeEdQBgs9W+ieweRQXgUNa5e87FA6MAQE8I6wDAw7a32o9vf5yQAeAl1rkb0EtEX9YcCADguYR1AODxygmZ44jtAPzY/XMuNtEBgIER1gGAlxHbAcZu87DoMiI6ADASwjoAsHv3Y/tR3GwHGILNKZfNz9LDogDAWAnrAMBhlJvtm9A+uf37VxUnAuD7vt5CX7qHDgCwJawDAPW0zeuUwD5JCe5OyQAc1k3unnApAf2q5kAAAH0grAMA3VO2249y/5yM4A7wfHcD+jLOuAAAvIiwDgD0R7ndfpTtOZmjJG9qjQPQQdcp4XxzB/2LgA4AsHvCOgDQfzbcgXHZPCK6zHYL/YsTLgAAhyOsAwDD1TZH2W63b+65H8WWO9APl0m+5G5Et30OANAJwjoAME7lrMzd2H50+/evqs0EjNG38Ty5ymz1peJMAAD8hLAOAPC1+9HdpjvwEptHQzc/7p4DAAyAsA4A8BTb8zJ3o/vmr7bdYXw24fzrrfNlZqtlraEAANgvYR0AYJfKQ6pfB/fXsfEOfXWdEs2X3/wI5wAAoyWsAwAc0nbjfRPdk/K4amLrHQ7t62i+2TqPUy0AAPyIsA4A0DXb+J5so/vdf/fukONAD22CeZIsbv96dfvvvmS2uqoxFAAAwyGsAwD01cMB/u4m/Oskbw86E+zP5pZ5so3kyTacC+YAAByMsA4AMAb3I/zdv78b4hPb8BzO5Z2/vxvKl9kGdHfMAQDoJGEdAICHbR9iTb4N8EfZxvnNP3ucdXzunlxJ7gfyZLtNnojkAAAMiLAOAMDutc3XIT63//z6Ef/OCZv9uXtO5a6vg/hD/86pFQAAuCWsAwDQH/e36B8yecL/2lP+20NY7Oy/na2e8r8FAAA80f8HMj4rf2mxUnYAAAAASUVORK5CYII=;" parent="1" vertex="1">
                    <mxGeometry x="82.77" y="180.9" width="56.42" height="57.1" as="geometry"/>
                </mxCell>
                <mxCell id="93" value="" style="shape=image;verticalLabelPosition=bottom;labelBackgroundColor=default;verticalAlign=top;aspect=fixed;imageAspect=0;image=data:image/svg+xml,PHN2ZyB4bWxuczp4bGluaz0iaHR0cDovL3d3dy53My5vcmcvMTk5OS94bGluayIgeG1sbnM9Imh0dHA6Ly93d3cudzMub3JnLzIwMDAvc3ZnIiBwcmVzZXJ2ZUFzcGVjdFJhdGlvPSJ4TWlkWU1pZCIgdmlld0JveD0iMCAwLjY2NzAwMDA1NTMxMzExMDQgMjU2IDI1NS45OTU0NjgxMzk2NDg0NCIgaGVpZ2h0PSIyNTUuOTk1NDY4MTM5NjQ4NDQiIHdpZHRoPSIyNTYiPjxnPjxwYXRoIGZpbGw9IiNEQTRFMzEiIGQ9Ik0xMjguMDAxMTI5LDAuNjY3IEM1Ny4zMTEwMzkyLDAuNjY3IDAsNTcuOTcxMjYyNyAwLDEyOC42NjM2MTIgQzAsMTk5LjM1MzcwMiA1Ny4zMTEwMzkyLDI1Ni42NjI0ODIgMTI4LjAwMTEyOSwyNTYuNjYyNDgyIEMxOTguNjkxMjIsMjU2LjY2MjQ4MiAyNTYsMTk5LjM1MzcwMiAyNTYsMTI4LjY2MzYxMiBDMjU2LDU3Ljk3MTI2MjcgMTk4LjY4ODk2MSwwLjY2NyAxMjguMDAxMTI5LDAuNjY3IEwxMjguMDAxMTI5LDAuNjY3IFogTTEyOC4wMDExMjksMjQwLjIyNzIzNCBDMTA3Ljg4ODUwNiwyNDAuMjI3MjM0IDkxLjU4MjAxMDUsMjI2Ljc5MTcxMiA5MS41ODIwMTA1LDIxMC4yMjMxOTMgTDE2NC40MjAyNDgsMjEwLjIyMzE5MyBDMTY0LjQyMDI0OCwyMjYuNzg5NDUzIDE0OC4xMTM3NTMsMjQwLjIyNzIzNCAxMjguMDAxMTI5LDI0MC4yMjcyMzQgTDEyOC4wMDExMjksMjQwLjIyNzIzNCBaIE0xODguMTUzNzc3LDIwMC4yODY1OTkgTDY3Ljg0MTcwNTQsMjAwLjI4NjU5OSBMNjcuODQxNzA1NCwxNzguNDcwODE3IEwxODguMTU2MDM2LDE3OC40NzA4MTcgTDE4OC4xNTYwMzYsMjAwLjI4NjU5OSBMMTg4LjE1Mzc3NywyMDAuMjg2NTk5IFogTTE4Ny43MjIzNCwxNjcuMjQyMTcyIEw2OC4xODUwNDc2LDE2Ny4yNDIxNzIgQzY3Ljc4NzQ5MzUsMTY2Ljc4MzYzIDY3LjM4MDkwNDEsMTY2LjMzMTg2NCA2Ni45OTY5MDI5LDE2NS44NjY1NDUgQzU0LjY4MTc2MDgsMTUwLjkxMzA4OSA1MS43ODE0MjI5LDE0My4xMDY1NzIgNDguOTY0NjYxNywxMzUuMTUwOTcyIEM0OC45MTcyMjYyLDEzNC44ODg5NDggNjMuODk3Nzg3OSwxMzguMjExNjg3IDc0LjUyMTA2NjIsMTQwLjYwMTUyOSBDNzQuNTIxMDY2MiwxNDAuNjAxNTI5IDc5Ljk4NzQzNTMsMTQxLjg2NjQ3NCA4Ny45NzkxNzY0LDE0My4zMjM0MiBDODAuMzA1OTMwMywxMzQuMzI4NzU4IDc1Ljc0OTg2OTksMTIyLjg5NDU1OSA3NS43NDk4Njk5LDExMS4yMDczNzIgQzc1Ljc0OTg2OTksODUuNTQ5MzIwMiA5NS40Mjg3OTgzLDYzLjEyODE3MTkgODguMzI5Mjk1MSw0NS4wMDU1Nzc1IEM5NS4yMzkwNTY2LDQ1LjU2ODAyNjIgMTAyLjYyOTk0OSw1OS41ODg1ODUxIDEwMy4xMjkxNSw4MS41MTA1MzE5IEMxMTAuNDc0ODY2LDcxLjM1OTM0OTEgMTEzLjU0OTEzNCw1Mi44MjExMjk5IDExMy41NDkxMzQsNDEuNDU0Njk2NCBDMTEzLjU0OTEzNCwyOS42ODYxOTEyIDEyMS4zMDM2OTgsMTYuMDE1NzUxIDEyOS4wNjA1MjEsMTUuNTQ4MTczMiBDMTIyLjE0NjI0MiwyNi45NDM5NzE0IDEzMC44NTE3NzMsMzYuNzEzNDExOSAxMzguNTkwNTI1LDYwLjk0ODQwMDggQzE0MS40OTMxMjIsNzAuMDUxNDg2NCAxNDEuMTIyNjc0LDg1LjM3MDg3MjcgMTQzLjM2MzQzMyw5NS4wODYxMDEyIEMxNDQuMTA2NTg5LDc0LjkwNzk3MTMgMTQ3LjU3NjE1Miw0NS40NjYzNzg4IDE2MC4zNzY5NDIsMzUuMzAxNjQzIEMxNTQuNzI5ODY3LDQ4LjEwMjQzMzYgMTYxLjIxMjcwOSw2NC4xMTk3OTg0IDE2NS42NDY3OTMsNzEuODIwMTUwNSBDMTcyLjgwMDUwOCw4NC4yNDM3MTY0IDE3Ny4xMzc0NjIsOTMuNjU2MjYxNyAxNzcuMTM3NDYyLDExMS40NTgxMDIgQzE3Ny4xMzc0NjIsMTIzLjM5Mzc2MSAxNzIuNzMwNDg1LDEzNC42MzE0NDEgMTY1LjI5NjY3NCwxNDMuNDE2MDMyIEMxNzMuNzQ5MjE3LDE0MS44MzAzMzMgMTc5LjU4NjAzNCwxNDAuNDAwNDkzIDE3OS41ODYwMzQsMTQwLjQwMDQ5MyBMMjA3LjAzNTMzOCwxMzUuMDQ0ODA3IEMyMDcuMDM3NTk3LDEzNS4wNDI1NDggMjAzLjA0ODUwMywxNTEuNDQ2MTczIDE4Ny43MjIzNCwxNjcuMjQyMTcyIEwxODcuNzIyMzQsMTY3LjI0MjE3MiBaIi8+PC9nPjwvc3ZnPg==;" parent="1" vertex="1">
                    <mxGeometry x="779" y="451.5" width="52.5" height="52.5" as="geometry"/>
                </mxCell>
                <mxCell id="94" value="" style="shape=image;verticalLabelPosition=bottom;labelBackgroundColor=default;verticalAlign=top;aspect=fixed;imageAspect=0;image=data:image/png,iVBORw0KGgoAAAANSUhEUgAAAPoAAAD6CAYAAACI7Fo9AAAbeUlEQVR42u2dC5Ac1XWGVxhAUBUIJDFC070SWFVAcCCOAiFOxRaYFGgfQotDUsHW7qyEVuDYgQQ7wdgOY2E7wU4FbFJl4xirAHanu2dWD1YPnrU4BTiOSYiTooJNAYqgKFcMYNDOY+fVOef2vbM9o13t9DxW07f/v+rWPLQz0zPqr8+55557Tk8PBIVErtPzPjfRc/xC/za9wL9BEBQWyKfnIH7bOee0zHjv2pwTuzxrxS6dcVavqLkYuD3L8ItBUJgAJ2jJih/H9zPJlR/KWbFkJmm8WUiZrrvLdMuTpptNGjM5y3giY8UG1OscAh6/HgSFAXIC3O3xrHPONm5nqN2pXreQMtysZVRolGiU847hunu8fyMLbynIXcAOQSGA3FWQm992DzDERplGQULu+gY/LvK/uft72cI/6wJ2CAoR5Jb5HXefgHc+wI8YZPnzbNnpFrBDUKgg96y4G2DMem688UPADkF6Qg7YISgikAN2CIoI5IAdgiICOWCHoIhADtghKCKQA3YIigjkgB2CIgI5YIegiEAO2CEoIpADdgiKCOSAHYLapUR3Qw7YIahlS85FI3q6HnLADkGtuux8m0nSfvLuhhywQ1BTkMsab7lk7DZRNCLZ9ZADdggK6LILS37YOuv8Wcdws7YoGFEJCeiAHYKCWPNM0viuuzcULjtgh6BAkMvg2wvOBScSJAdLaVPVenMBOwRpFoDLW+YHcrZRzFlV190F7BCkiVSp5RkrdpGYn1uhhhywQ9BRLbpjrOG66xpYdMAOQQvN0d39a04iKA6FfI4O2CFoQdhV1N2K7ZBgFDQBHbBDUP08fXbCuLA4Z9ErgB2CdLXqdmy7e2CVgEMj0AE7BFVhl7vWyIX/fkhy3QE7BDULenW+DtghSFPY5XIbKwfYIQiwA3YIAuyAHYIAO2CHIMAO2CEIsAN2CALsgB2CADtghyDADtghCLBDEGAH7BAE2AE7BC0tpsu8MbeRBbADdkgHJRLHrUtMH5+gW//T117rvI+fl+ADdsAOhVUeyDVwn9x/3fjpdHtizd+tSxwP2AE7FEIXnS023+uLOyv6R9Jf6B9xnu4fSb1O463+4dTBgZHUo/Tcjevi08s92KcBO2CHQjgP7+mPpz5FUGeHxh5xN2yZcgdHd7kDozvdwc273auv3+tupOcZ/vXDqfXzeQCAHbBDXck4AS7n4gTwXUPbHnMH4pNu34hToMclGmUCvyJuvcezCvqBeHorv27t2L0nAHbADoUAcnLLvznkWeuChNo9ymDgK1dfv4/uT44BdsAOhQ7ydGURyNUoe7DvBeyAHQqZJXcDDsAO2CHNIQfsgB2KCOSAHbBDEYEcsAN2KCKQA3bADkUEcsAO2KGIQA7YATsUEcgBO2CHIgI5YAfsUEQgB+yAHYoI5IAdsEMRgRywA3YoIpADdsAORQRywN4C7DnbeFZB7gB2QN7lkAP21iz7Mwpy122tKi8EyAF7Fw6y6Hl3P3+vmAUXHpC7IRuAPdgosGXPWLEB/p7TiZ7jAQMgB+z6wV5095huzjKegFUH5IBdX9gredtg0A/POKtXAAhADtj1hb1cnjR5rn4poADkgF1f2EvuLnLfndjlAAOQA3Z9Ya8UUqabGe9dCzgAOWDXE3aCXNz+4m3nnNMACCAH7HrCLpbX6Dsk5ffC8hogB+yawV5RgbhMcuWHsLwGyAG7jrAnyZofoGSZpHG7+C7TsOaAHLDrBnuBjzNnm9+u/w4QIAfsesDuQW6Z3xHH3tOzDBtaADlg1wv2WsgJcFhzQA7Y9YIdkANywK457IAckGNoDjsg14jyZQJ0QA7YAbnGgiUH7IBcb117rSOymfrjqb8f2vYoIAfsgFw3rVuXENlM/SNO/8at+/kELfIJClAjDTsg11BiXt43kvrJhi0P0wmZLgLQSMMOyLV12UdTHx7cvIdPyhLAjDTsgFxLtz0xLdz2vmHncxvHDmBuHm3YAbnuoJO7fs/GrQT6cApuezRhB+QAHUNz2AE5XHeMpYJd/V+0AntmDvZZWRTi6EUjkoAcwTiMJYJ9nzsQT2/1ljrbAvv33QOrRAlmad3LWVtC7916z9N9r2iE3E8OyLG8htF5y75+OLXegz3ROux2bHsxbbpcy62UFl1UhAXnW37s7u11Zx3DzSVjt4nX0jmQAOSau+9ImDnWozS4eTffvr4uPr1cYttUEQdhlWUBiNkJ40J25QnwQ1x3XYBtG0W6fzCTNL572DrrfHWBQNGIqLnwSIE9VmN2o9hf4NzYyny9Cryvdpu7f81JecdYM2PFLspb5gdecC44cb6/g6IibGo5hiNdZPedpk+P+i+8rYh7li8EMj9PVhyuejSFbarHcq4u3Pfh1EGC/ER/7KTl/9UeL8gmwGc3vQduOoTCE8dmDKcqA6M7+f5b/deNn97KPB2CAHs3W/TRXSIgRxb9ZIAOAXZNI+8btkxxMO5pL1ySwPwZAuy6jb4Rp+D9vukvtCPqDkGAvQvd9oH4JEOe6Ys7K/wrIBAE2PVYVuPEpMLQtsdcymH4FKw5BNj1HNJlT93Fv2071s8hCLB3IeT8W85F2RFphwC7vpCL3xSQQ4Bdb8hdQA4B9oVGhTPK5FbP+lGRgS5ADkEhgb0iCmJwmSuv1FWJIeYlKc4m4xzxDVQ0g8egGLtdkU4aT6v93up1RfkYkENaaxlHdXn5hiuZiEH3W4r0dg72soKTqq+4XBCD98pzuSve5eWtO6cyNH5O45WB4dSLdPs/dAH4Kd3+L92+yVs/+UKwces+73V06+37Tle8904v5b57QA51Xo2UKGoa+PbBXlEW2wPUg5Me52g8T2Du6BtJ/yWB33fVcPrCaz45edaGzff9Sk1hRTqW9Z/Zf9LG+K5fvSqeXD0w7FxCr/mTgXgqQevUu8VFgS4S3gVjn3fBqHoJgBwKuRX3zi/3OIZkYDj9d3TyPUTjQTr5t/cPT14W5ILQAdjZnS4IAMlqX339FKWEpg8R2N8jUP94/ScmjXb9GHxRoOyz36L3/TQd53763BkP+imfF9HWuT0ghzo+iZ6Dj4Chk+5ldnv5xBZusHSFvTpxqf+ik/FjS2rZvUBaQVhv728z4gI0mr6SrXL9dxFTDjHtSBzPFy3fktSyI743Dd4YIqYqR5miXEleAW0kGaNjeYbdellKq11lrwE5tASBMnlSUdWSOxloWZesKOCbC2wVvJ1TD4u5L1n4m32WfVlnYPfSPjlgJktMv0HH+EWGrma6IWMJbc77XsYXifnAF27+sDPOxyeAFxeipgtlAnJoiaPhXANu8XmoiEhL8D7bQdj5GCryc97izxocmzrFD7cEcGmgoOPkz/RvC73qk865PK1hT0O69AXpfQByqEshr0LWwLzTO5lLbM24oUPbYY+n8+w5sCXn5zhg5p87H+sdW2pFQj0ejFsX8/5wvij5gnaAHOpWyIOvWbcbdt608fEbn2S3/d8JnrU1gHdZ6qdy7asufTx9Ax1/3ive6BQAORR2yDsDuwJmdPJPx8aeO6EKeJdDwBZeufR9102u4oCdDBqWBo5MvAHkUKggbz/sdbuywrYVU12cpGfyD3Jt39++CpBDoYS8A7CrjjDhBMC7OFVLYQ+LOENcVG3NA3IozJB3BPaQ/+DLVBZe/7B9GWfsXXPjE9WiEYAcCivkXQs79woTDQlkN5KakaAhmxV04hhVgwXOKKRA3der0xNADoUY8q6AncGeTkiQAzYEdBPVC0Dblu9qO56iMgykB+THDHZ3gf5h7zrGGdwtNO8YV+Us4xN5yxjLJGM3zFjmaMY2N2at2KXZyZhRDzf3G2vmYjGfVIotTkpIJ8gXg739gPuaALoPrTk1Y68czFrGt2j8W8Yy3uY2wO5urwc49/sWg+/v6XXLkyb3A89lk8bPsknTzluxbdxJtOYzGHj0IYMAeQOwxz3Y2+W6iiaABLl6zJY5Zxv3EbT/5+4xPZh3mW4hZTDIFe77TaPoH7IHeDlvG26FgHcf9i4C8m+nqX3wMLcS9gOPEwwC5Auny5a9NWWvu0irbYSeu3dtdb06lzTWZW3jSQEqWelCynR9UJck5O4io0IWvey7CLjiYjEloD+UnYjdrC4qYh7vwrpDgHzeNkIe6M7jrYCuAm3Cgj8UMwjCSbbaDKUP1EbAPvqw5zyAUtrzDuj9X87bvYPqWNRxQBAgr2kjlHp3/ajzG82C7p+HzyRjcQqsZaXFLWU9F9zt0OALSEG59nT/gZe+5bnzrs+zgKAoQy6OhXd19Q2ntvEx1pRzChBwq7rqlvE9trAcYGMAOwh4/RAWvmrdnZXnAnYIkNe0+E39uHq8TULuOhecSKD9wN3XqwAvLyHk/jHL0wWCvcDxAcAORR3yOdCHJ6/g4wy6vKYgf80xTibAnpeu+uwxAtw/ihz0K9KYmTCuAuxQhCFPF8W+7OHUk3ycQRNG/AksBNYPuwjyqivP0wcxhUiu/HD9agAERcGSz2PNE8GsuQy+ZS3Tke56N0EuBq/Dc1Se4gaHCXazPp4AQRGA/OG5uXnAKLtyg7O2+VmGPNeFkPtGgZf3MknjP3wXKayzQ9pDLmqmcVOFgU32VmHNE43PzZVFnBmP/bbIavPWtFtZG6+w5c1ZZkFlwsnhz5QrtxygowtS3jLuhAsPRQNySnuV6+bvXLnFOUN+gWWNf1XPGhLgP+L8dJWp1hTgZG05vZVz2kVKLN3yerhIglG571Nevru8CJRaSLAp8/tmnN61cOEh3SGX1lw0N5gIGmlXueTkBm+ROeeF5qPihspbzxLw+2fs2Oczlnn1e/bKP6Clsd/LO71/xDvZZH78QXExmLuwNONBFEWGnm08VR9MhCC9IJd13zndlVolfTwI6Gp3GMNO0LwidpUlA7vUFQEcWemMZbyTS8ZuyyTNlYt+9nNrT+CLgIrusxfQpHUXsGdso4/fF2mykK6QV+rTXRtNklHWPGebm+VSWqEJyMvea2NJ3ofun/fz+0+rijJ1FWf8x8FWniGvTAafNrD7L/Pun/KvHECQTpCLaLvXqjj42nl1bk57yEXmWTCLKgJ2wvW2zVv8lroRF5q9CVlkQvzt7ETvBVnL/Lm7s6kYAebqkNaQV/PaKVnmy0Gi7QqGAsFRTJtuE1HwEs+x6fbTyjtodo7MqbbCs3BW9tJ8+81SOvBFp+DFBsy7/J4KBOkCedWi03bUfm9+3liSTDUIZ8W+EjQIx5F16erfI96LlrZarQajYOdiFrJwhRsgQFeWbv9LykNAdRpII8i5Z1va6zu2efIc/h6NbketWVIL4LbneC7tudc/rX+vlv87lGW3Y9ubWAGocB58ZhzuO6SXJRf7zrmrKEXbD62L71guv9ii0CkXm6PjBEhGRrwrDa5fF9llp3zzIWXN2/df4l0wXt2xejl91uulAFOKnHLfk8ZfwH2HdILcvyX12UDWXFq7vL3yikBBOFp642AZRbpf6JR7rC4cOdv8IoOba9yqF+V04gGADukEuVg/l4kyqWbm5wTFZ6SLXAwS9MoljQS/vhNpp8rb4CITdVlwiwcHvT3rP2rndAIC5N2REcf9wUdS/xQo4q5At81/DAS6suhJ8w+XYh6csYz/Fp/XmMdRlq7+IZdcf8AOyPWAvBb0O5oC3TLGpbvbCOgVWUrq8MzE2Wd2EiRXFaO0YlbQ48tZ5ruHHzjz/QAdkOsBuQ/0vnj61kCgS0tMFnNKFF9srNBjWTZeOFgt1NihJaw5j8P4RgCPg3fMiV1t7yRXrPZPAyBArgXodPs3zYDOG09E0ksjoJPbXvECcS922lLOpeYaiYZBt6ugF/PjvecAdECuB+RtAD0Liw4B8lCB/iXM0TFHB+Q6Qu4HfST1DUTdZdQ9abyGqDsg1w90sY6e3iFAXxcQdMoia2od3TZu59d3ch39PV5HV+vnja6j78Y6OiDXcnjlnfvj6Uf4Oze6RbXVzDiytB3PjMsgMw4C5Go45Q2b9/D9F5qxmpzrTtY5UK57Tua6E/RD7bbqygpz22TkukOAvK66TN9I6peDfzbx6/LHWBYEqkzAohNLsnvNMr4c0JrP7V5D8QltKY8q5DU72AaGnUsCue/V/ejmV5rYEurtR7eNbyp3u2370amIpIzuB96PTt7GS9W+cdiPrhnk0oJFFPJqPff+kcmxQJF3lR2XNH+3lQozedv8c3XhaLXCDHdeySSNpivMzFjG3XDbNZTalkkpoHdHEnJf5J3c9/uDRN79LnfLNeMs86+q70k14xLN1Ixzen+T1s1bqxlHFy247ZpJndB9cefWoW2P8Yle8CquRAx0CsgNbt7NwL+USLgKsEBVYEVN91aqwD4sgmATvxzvPd3vMTRaBZY+fyvD3UwVWM+zQBVYTS25d0L3b9n5wYHRnSIoRSd6BCH3BeXodxgctX4n0Dxd1XWnOTaBcrANdd3fnpmgpg0Prjprsc/maD1Z4A00z3+29bru/NmxAX5f1HXX0ZqTu8rz074ouuzzVoJ1/pZ/l7Vj9za85FXdQNLeTi0ZipjvoznzrQJmJ/b72XHjkrzdewUFzLaSBadOLbFX29apxTJ+4F82hLQJwPX0DI5NnUIn+BsccebIc8RB9zqpDjv/GWSJbd65ejt6rzmGy+686r1W7nTvNczNNXbbN+08v7YaaqRB95bZaK4+GJ+8NIj77gdkxmlfN1W5I06BXJbv1/ZuqnT7dTUVAB0aSZ3AdEJfLKx5tOfmR7ZNHkn9c5BltirsEpSZCeOvQ9Mf3TKer/dKIM0s+mA8fd6cJYdF97LkRI33w31bJlf5lx8DuPDi78kap6S17EbYS3KX2gx3doHLrvkcfV18ejmd3K9jjl4zZq+54Qm3b5OzyR+0bPiX9QWzCKh/lUtu3QR7ibPmROYctWKGy6571F26pWS97hM100acAiBPFThpiPIK7pbmuSlXtppC6hgnU3T8J10Eu4jqcxZf3jLW+6cbkObu+1WbnXP72V2VwaioQ85pwPWeT0uwe7vI/kW68YU2BNCaD7ztEgUoCjk7dhkgj6BVHxhO3zS07VGv/9hIJANztZDzvNx1Ww5M+ee9vO7NS2V5b7NJYSlddbFW7u1ke3l2YuV5gDzCEfj+eGr7RpHrno4a7B2BXMnxwT5jmaMEXU668qUGC0o2O9hzKHBKrEyvfZC9C0AeXS1Tbjxlx90RMdg7Crl/2UqllWYnYwYBvpPdaJlfXm4hq22+BBhhwUVyjZdh90rGMq/2BQuR3hrlKLyy7BGCfUkgr/mVfZb08ETscoJwWlhcsvAcJMvVJshUGt0Q40ugqWbOEfSv8Y44lZ7LgGOdHIoa7EsOuX/5zT935xz2TDK2gyD9hchb55RXsvYiu+7ITDhveBeEMm9iUa65LAFVpn97ioJtI6/KKq7iM7G3HIog7McM8vpAnX876NvOOaeJzSuWcQ+NH2cs4x1e667mtu+VY2ou953+Lk8Btp+R5XYyVuxGCvStqfkM3s6KKjFQBGHvCsiPAH4ei/ve/bFfm7FiF/F6dy4Z20QgbyPLf0PONjfTBWBI7GajajL1e8eFxzANNx2KLuxdB/l8AbtmIHXV67DFFIo47F0N+ULgO3UVZapDVZxh6w3XHALs4YQcggA7IIcgwA7IISg6sANyCNIcdkAOQZrDDsihCKPJHT3ql2layn3uStgBORRhyBfZrdR8mmRXwQ7IoQhD7ts8kXOMj2Yt43M07swlzS9lbHPjWw+tOdV3QTgupLADciiigJNLrsDNJo0hgvtFsf95r29zBLfgoa6bOTv2+fkuDCGBHZBDgJys9lcF1F53zVLOMrmEUVHdivY/B1YR8LHHqj3EwgM7IIciDLmqK07dN2RBwqO17OGiBXnxd7bXSTMksANyCJDXQV5pqEIoFw8MB+yAHALkTUAeJtgBOQTIW4A8DLADcgiQtwHyboYdkEOAvI2QdyPsgBwC5B2AvPOwU0eYgcXbP1X6ADkEyDsKeQ3svPRWXWdvMYOOO8KI9k8EM4Ps9Xuradlcls9XhrY9Rg0P03cDcigccMrKnNNztb7ExpJEQGiWGPI52Pf1iqQa36E0lRuvOsJwrzfuQ85dXGXLZrbyAnZ+vHHrAXdgdCd3Nb1VvbaVhocQ1HnIpxffVNLFkKuR5ww6lS7bQkOAqmXfwF1cqWUz92dXgEuL/gZZ9Pv7t+z8oGfIyZIDcqhrAe/xpaImzZVZ27yF8s5TOct8PJs07awVu/nwA2e+X819j7aD7BhDLjLoOF2Wc+PfeuiMU9UxNfvbqC6u4n58evlgPH3eYHzy4v5NO88fHJs6pfpv66bRYQTq/rm0BPMmYRE555xb5+zxtdCxjEzGjt0g//64+eDpAsjVKIqNMLTrTU5HWoKQ3Xg/8DUXAgJcufkQ1L2Qy+g0WfKvuY+wy2twX6yCL++8yI9Fy539DE9se9Wy+2DvIsi5t3ZBROFpi2uL7vu8c3d26T244aZDIYKcW+nIPthFuXlkoU0lokk9Bbvu8Lvx3QR51aJ7Xsid7QUdgsIIupyXkwV8hhvkqXa2R219a9fBPu1F57sI8qpF5+IVAB2CGHJn1dkMhq85vdso7BTZvkO9T75LIJejxMUruFKN33OBoOiCPmF8lIs95BbeB75QU/sSz9mpe+ZtuaSR4PtdA7lXvOLFqueCnl9Q5EG3zY80AbqCvcyvlWCVG/QIOjkq1fk5laWS0xO47RCUS65YTXAUcnOgNAxWxhIR+rIYxxbwOcj3iWW1r8Jlh6C6YBwlxDzdYDCuW0cVcg4I+r8bBAF0afFmxs0rOTFGrptXdIC8lWw4CNIWdl4u66KAWvOQu4AcghZx4btqiQyQQ1BbQfc3UQgH7IAcgpqG3Q0F7IAcgjSHHZBDkOawA3II0hx2QA5BmsMOyCFIc9gBOQRpDjsghyDNYQfkEKQ57IAcgrSG3QbkEBQF2Mu8sSYPyCFIW9hFCSguSyU+o66cNARBesAuQY/dJt6fq8ui1hsE6QV7zpY16PbPVZeFVYcgPS27V122vkkEYIcgDWGvbxLBQTm48RCkMey+Xm/4lSFITze+KBs7el1c0VoJgrSEvcxdXLlls+rPnkAZZwjSEPakapgYuxlWHYL0hb0oas4nTVu8L1osQZCWsJfcPdwbznxcvCeCchCkJezSohspfo9pWHQI0hB2NUe3zVswR4cgPWEv52yDb/OZpLlSztERdYegUMG+v9rYsVjTW13uSxdu+yOr+LmbYM0hKGywS6ssGjvS/JtbNud8vdb5Pj/nTnEarPk1WHIICjns3LKZ+7OT1S7wNlWxVZXu0+NnMpaxvvr3yHWHoJAC71sqyyVXrM7Z5kdyE8ZHc86qs+f7GwiCQgz7fG45PwfIIah1/T93JlhvXQtrgAAAAABJRU5ErkJggg==;" parent="1" vertex="1">
                    <mxGeometry x="711" y="322" width="68" height="68" as="geometry"/>
                </mxCell>
                <mxCell id="97" value="" style="edgeStyle=elbowEdgeStyle;elbow=vertical;endArrow=none;html=1;curved=0;rounded=0;endSize=8;startSize=8;strokeColor=#000000;startArrow=none;startFill=0;endFill=0;" parent="1" source="75" edge="1">
                    <mxGeometry width="50" height="50" relative="1" as="geometry">
                        <mxPoint x="322" y="385" as="sourcePoint"/>
                        <mxPoint x="404" y="272" as="targetPoint"/>
                        <Array as="points">
                            <mxPoint x="386" y="429"/>
                            <mxPoint x="407" y="422"/>
                            <mxPoint x="394" y="422"/>
                            <mxPoint x="412" y="424"/>
                            <mxPoint x="397" y="422"/>
                        </Array>
                    </mxGeometry>
                </mxCell>
                <mxCell id="98" value="" style="edgeStyle=segmentEdgeStyle;endArrow=classic;html=1;curved=0;rounded=0;endSize=8;startSize=8;entryX=0;entryY=0.5;entryDx=0;entryDy=0;strokeColor=#000000;" parent="1" target="4" edge="1">
                    <mxGeometry width="50" height="50" relative="1" as="geometry">
                        <mxPoint x="404" y="276" as="sourcePoint"/>
                        <mxPoint x="446" y="149" as="targetPoint"/>
                        <Array as="points">
                            <mxPoint x="404" y="274"/>
                            <mxPoint x="404" y="220"/>
                        </Array>
                    </mxGeometry>
                </mxCell>
            </root>
        </mxGraphModel>
    </diagram>
</mxfile>